<?xml version="1.0" encoding="utf-8"?>
<!-- Generator: Adobe Illustrator 22.1.0, SVG Export Plug-In . SVG Version: 6.00 Build 0)  -->
<svg version="1.1" id="Layer_1" xmlns="http://www.w3.org/2000/svg" xmlns:xlink="http://www.w3.org/1999/xlink" x="0px" y="0px"
	 viewBox="0 0 160.56 347.87" style="enable-background:new 0 0 160.56 347.87;" xml:space="preserve">
<style type="text/css">
	.st0{fill:#F1F9FE;}
	.st1{fill:#FFFFFF;}
	.st2{opacity:0.05;}
	.st3{fill:#3C479B;}
	.st4{fill:#3C459B;}
	.st5{opacity:0.1;}
	.st6{fill:#6FC7B4;}
	.st7{opacity:0.25;}
	.st8{opacity:0.5;}
	.st9{fill:#EE94BF;}
	.st10{clip-path:url(#SVGID_2_);fill:#FDFDFD;}
	.st11{clip-path:url(#SVGID_2_);fill:#FCFCFC;}
	.st12{clip-path:url(#SVGID_2_);fill:#FAFBFB;}
	.st13{clip-path:url(#SVGID_2_);fill:#F9F9FA;}
	.st14{clip-path:url(#SVGID_2_);fill:#F8F8F9;}
	.st15{clip-path:url(#SVGID_2_);fill:#F7F7F8;}
	.st16{clip-path:url(#SVGID_2_);fill:#F6F6F7;}
	.st17{clip-path:url(#SVGID_2_);fill:#F5F6F6;}
	.st18{clip-path:url(#SVGID_2_);fill:#F4F5F5;}
	.st19{clip-path:url(#SVGID_2_);fill:#F3F4F4;}
	.st20{clip-path:url(#SVGID_2_);fill:#F3F3F3;}
	.st21{clip-path:url(#SVGID_2_);fill:#F2F2F3;}
	.st22{clip-path:url(#SVGID_2_);fill:#F1F1F2;}
	.st23{clip-path:url(#SVGID_2_);fill:#F0F0F1;}
	.st24{clip-path:url(#SVGID_2_);fill:#EFF0F0;}
	.st25{clip-path:url(#SVGID_2_);fill:#EEEFF0;}
	.st26{clip-path:url(#SVGID_2_);fill:#EDEEEF;}
	.st27{clip-path:url(#SVGID_2_);fill:#EDEDEE;}
	.st28{clip-path:url(#SVGID_2_);fill:#ECECED;}
	.st29{clip-path:url(#SVGID_2_);fill:#EBECEC;}
	.st30{clip-path:url(#SVGID_2_);fill:#EAEBEC;}
	.st31{clip-path:url(#SVGID_2_);fill:#E9EAEB;}
	.st32{clip-path:url(#SVGID_2_);fill:#E8E9EA;}
	.st33{clip-path:url(#SVGID_2_);fill:#E8E8E9;}
	.st34{clip-path:url(#SVGID_2_);fill:#E7E7E8;}
	.st35{clip-path:url(#SVGID_2_);fill:#E6E7E8;}
	.st36{clip-path:url(#SVGID_2_);fill:#E5E6E7;}
	.st37{clip-path:url(#SVGID_2_);fill:#E4E5E6;}
	.st38{clip-path:url(#SVGID_2_);fill:#E3E4E5;}
	.st39{clip-path:url(#SVGID_2_);fill:#E2E3E5;}
	.st40{clip-path:url(#SVGID_2_);fill:#E2E3E4;}
	.st41{clip-path:url(#SVGID_2_);fill:#E1E2E3;}
	.st42{clip-path:url(#SVGID_2_);fill:#E0E1E2;}
	.st43{clip-path:url(#SVGID_2_);fill:#DFE0E1;}
	.st44{clip-path:url(#SVGID_2_);fill:#DEDFE1;}
	.st45{clip-path:url(#SVGID_2_);fill:#DDDFE0;}
	.st46{clip-path:url(#SVGID_2_);fill:#DDDEDF;}
	.st47{clip-path:url(#SVGID_2_);fill:#DCDDDE;}
	.st48{clip-path:url(#SVGID_2_);fill:#DBDCDE;}
	.st49{clip-path:url(#SVGID_2_);fill:#DADBDD;}
	.st50{clip-path:url(#SVGID_2_);fill:#D9DBDC;}
	.st51{clip-path:url(#SVGID_2_);fill:#D9DADB;}
	.st52{clip-path:url(#SVGID_2_);fill:#D8D9DA;}
	.st53{clip-path:url(#SVGID_2_);fill:#D7D8DA;}
	.st54{clip-path:url(#SVGID_2_);fill:#D6D7D9;}
	.st55{clip-path:url(#SVGID_2_);fill:#D5D7D8;}
	.st56{clip-path:url(#SVGID_2_);fill:#D4D6D7;}
	.st57{clip-path:url(#SVGID_2_);fill:#D4D5D6;}
	.st58{clip-path:url(#SVGID_2_);fill:#D3D4D6;}
	.st59{clip-path:url(#SVGID_2_);fill:#D2D3D5;}
	.st60{clip-path:url(#SVGID_2_);fill:#D1D2D4;}
	.st61{clip-path:url(#SVGID_2_);fill:#D0D2D3;}
	.st62{clip-path:url(#SVGID_2_);fill:#CFD1D3;}
	.st63{clip-path:url(#SVGID_2_);fill:#CFD0D2;}
	.st64{clip-path:url(#SVGID_2_);fill:#CECFD1;}
	.st65{clip-path:url(#SVGID_2_);fill:#CDCED0;}
	.st66{clip-path:url(#SVGID_2_);fill:#CCCECF;}
	.st67{clip-path:url(#SVGID_2_);fill:#CBCDCF;}
	.st68{clip-path:url(#SVGID_2_);fill:#CACCCE;}
	.st69{clip-path:url(#SVGID_2_);fill:#C9CBCD;}
	.st70{clip-path:url(#SVGID_2_);fill:#C9CACC;}
	.st71{clip-path:url(#SVGID_2_);fill:#C8CACB;}
	.st72{clip-path:url(#SVGID_2_);fill:#C7C9CB;}
	.st73{clip-path:url(#SVGID_2_);fill:#C6C8CA;}
	.st74{clip-path:url(#SVGID_2_);fill:#C5C7C9;}
	.st75{clip-path:url(#SVGID_2_);fill:#C4C6C8;}
	.st76{clip-path:url(#SVGID_2_);fill:#C4C5C7;}
	.st77{clip-path:url(#SVGID_2_);fill:#C3C5C7;}
	.st78{clip-path:url(#SVGID_2_);fill:#C2C4C6;}
	.st79{clip-path:url(#SVGID_2_);fill:#C1C3C5;}
	.st80{clip-path:url(#SVGID_2_);fill:#C0C2C4;}
	.st81{clip-path:url(#SVGID_2_);fill:#BFC1C3;}
	.st82{clip-path:url(#SVGID_2_);fill:#BFC0C3;}
	.st83{clip-path:url(#SVGID_2_);fill:#BEC0C2;}
	.st84{clip-path:url(#SVGID_2_);fill:#BDBFC1;}
	.st85{clip-path:url(#SVGID_2_);fill:#BCBEC0;}
	.st86{clip-path:url(#SVGID_2_);fill:#BBBDBF;}
	.st87{clip-path:url(#SVGID_2_);fill:#BABCBF;}
	.st88{clip-path:url(#SVGID_2_);fill:#BABCBE;}
	.st89{clip-path:url(#SVGID_2_);fill:#B9BBBD;}
	.st90{clip-path:url(#SVGID_2_);fill:#B8BABC;}
	.st91{clip-path:url(#SVGID_2_);fill:#B7B9BB;}
	.st92{clip-path:url(#SVGID_2_);fill:#B6B8BB;}
	.st93{clip-path:url(#SVGID_2_);fill:#B5B7BA;}
	.st94{clip-path:url(#SVGID_2_);fill:#B5B7B9;}
	.st95{clip-path:url(#SVGID_2_);fill:#B4B6B8;}
	.st96{clip-path:url(#SVGID_2_);fill:#B3B5B7;}
	.st97{clip-path:url(#SVGID_2_);fill:#B2B4B7;}
	.st98{clip-path:url(#SVGID_2_);fill:#B1B3B6;}
	.st99{clip-path:url(#SVGID_2_);fill:#B0B3B5;}
	.st100{clip-path:url(#SVGID_2_);fill:#B0B2B4;}
	.st101{clip-path:url(#SVGID_2_);fill:#AFB1B3;}
	.st102{clip-path:url(#SVGID_2_);fill:#AEB0B3;}
	.st103{clip-path:url(#SVGID_2_);fill:#ADAFB2;}
	.st104{clip-path:url(#SVGID_2_);fill:#ACAEB1;}
	.st105{clip-path:url(#SVGID_2_);fill:#ACAEB0;}
	.st106{clip-path:url(#SVGID_2_);fill:#ABADAF;}
	.st107{clip-path:url(#SVGID_2_);fill:#AAACAF;}
	.st108{clip-path:url(#SVGID_2_);fill:#A9ABAE;}
	.st109{clip-path:url(#SVGID_2_);fill:#A8AAAD;}
	.st110{clip-path:url(#SVGID_2_);fill:#A8AAAC;}
	.st111{clip-path:url(#SVGID_2_);fill:#A7A9AB;}
	.st112{clip-path:url(#SVGID_2_);fill:#A6A8AB;}
	.st113{clip-path:url(#SVGID_2_);fill:#A5A7AA;}
	.st114{clip-path:url(#SVGID_2_);fill:#A4A6A9;}
	.st115{clip-path:url(#SVGID_2_);fill:#A4A6A8;}
	.st116{clip-path:url(#SVGID_2_);fill:#A3A5A7;}
	.st117{clip-path:url(#SVGID_2_);fill:#A2A4A7;}
	.st118{clip-path:url(#SVGID_2_);fill:#A1A3A6;}
	.st119{clip-path:url(#SVGID_2_);fill:#A0A3A5;}
	.st120{clip-path:url(#SVGID_2_);fill:#A0A2A4;}
	.st121{clip-path:url(#SVGID_2_);fill:#9FA1A4;}
	.st122{clip-path:url(#SVGID_2_);fill:#9EA0A3;}
	.st123{clip-path:url(#SVGID_2_);fill:#9D9FA2;}
	.st124{clip-path:url(#SVGID_2_);fill:#9C9FA1;}
	.st125{clip-path:url(#SVGID_2_);fill:#9C9EA0;}
	.st126{clip-path:url(#SVGID_2_);fill:#9B9DA0;}
	.st127{clip-path:url(#SVGID_2_);fill:#9A9C9F;}
	.st128{clip-path:url(#SVGID_2_);fill:#999B9E;}
	.st129{clip-path:url(#SVGID_2_);fill:#999B9D;}
	.st130{clip-path:url(#SVGID_2_);fill:#989A9D;}
	.st131{clip-path:url(#SVGID_2_);fill:#97999C;}
	.st132{clip-path:url(#SVGID_2_);fill:#96989B;}
	.st133{clip-path:url(#SVGID_2_);fill:#96989A;}
	.st134{clip-path:url(#SVGID_2_);fill:#959799;}
	.st135{clip-path:url(#SVGID_2_);fill:#949699;}
	.st136{clip-path:url(#SVGID_2_);fill:#939598;}
	.st137{clip-path:url(#SVGID_2_);fill:#929597;}
	.st138{clip-path:url(#SVGID_2_);fill:#929496;}
	.st139{clip-path:url(#SVGID_2_);fill:#919396;}
	.st140{clip-path:url(#SVGID_2_);fill:#909295;}
	.st141{clip-path:url(#SVGID_2_);fill:#8F9194;}
	.st142{clip-path:url(#SVGID_2_);fill:#8F9193;}
	.st143{clip-path:url(#SVGID_2_);fill:#8E9093;}
	.st144{clip-path:url(#SVGID_2_);fill:#8D8F92;}
	.st145{clip-path:url(#SVGID_2_);fill:#8C8E91;}
	.st146{clip-path:url(#SVGID_2_);fill:#8C8E90;}
	.st147{clip-path:url(#SVGID_2_);fill:#8B8D90;}
	.st148{clip-path:url(#SVGID_2_);fill:#8A8C8F;}
	.st149{clip-path:url(#SVGID_2_);fill:#898B8E;}
	.st150{clip-path:url(#SVGID_2_);fill:#898B8D;}
	.st151{clip-path:url(#SVGID_2_);fill:#888A8D;}
	.st152{clip-path:url(#SVGID_2_);fill:#87898C;}
	.st153{clip-path:url(#SVGID_2_);fill:#86888B;}
	.st154{clip-path:url(#SVGID_2_);fill:#86888A;}
	.st155{clip-path:url(#SVGID_2_);fill:#85878A;}
	.st156{clip-path:url(#SVGID_2_);fill:#848689;}
	.st157{clip-path:url(#SVGID_2_);fill:#848588;}
	.st158{clip-path:url(#SVGID_2_);fill:#838587;}
	.st159{clip-path:url(#SVGID_2_);fill:#828486;}
	.st160{clip-path:url(#SVGID_2_);fill:#818386;}
	.st161{clip-path:url(#SVGID_2_);fill:#818285;}
	.st162{clip-path:url(#SVGID_2_);fill:#808284;}
	.st163{clip-path:url(#SVGID_2_);fill:#7F8183;}
	.st164{clip-path:url(#SVGID_2_);fill:#7E8083;}
	.st165{clip-path:url(#SVGID_2_);fill:#7E7F82;}
	.st166{clip-path:url(#SVGID_2_);fill:#7D7F81;}
	.st167{clip-path:url(#SVGID_2_);fill:#7C7E80;}
	.st168{clip-path:url(#SVGID_2_);fill:#7B7D80;}
	.st169{clip-path:url(#SVGID_2_);fill:#7B7C7F;}
	.st170{clip-path:url(#SVGID_2_);fill:#7A7C7E;}
	.st171{clip-path:url(#SVGID_2_);fill:#797B7D;}
	.st172{clip-path:url(#SVGID_2_);fill:#787A7D;}
	.st173{clip-path:url(#SVGID_2_);fill:#78797C;}
	.st174{clip-path:url(#SVGID_2_);fill:#77797B;}
	.st175{clip-path:url(#SVGID_2_);fill:#76787A;}
	.st176{clip-path:url(#SVGID_2_);fill:#75777A;}
	.st177{clip-path:url(#SVGID_2_);fill:#757679;}
	.st178{clip-path:url(#SVGID_2_);fill:#747578;}
	.st179{clip-path:url(#SVGID_2_);fill:#737577;}
</style>
<g id="XMLID_35_">
	<path class="st0" d="M160.56,332c0,8.99-7.53,15.87-16.52,15.87H15.9C6.92,347.87,0,340.99,0,332V16.41C0,7.43,6.92,0,15.9,0h14.81
		c3.13,0,4.29,0.02,4.48,3.99c0.2,4.12,3.03,6.37,6.86,7.57c1.3,0.41,2.75,0.27,4.13,0.27h2.8h62.12h2.8c1.38,0,2.83,0.23,4.13-0.17
		c3.83-1.2,6.67-3.65,6.86-7.77c0.19-3.97,1.35-3.89,4.48-3.89h14.68c8.99,0,16.52,7.43,16.52,16.41V332z"/>
</g>
<g>
	<rect y="37.24" class="st1" width="160.56" height="244.95"/>
</g>
<g class="st2">
	<rect x="0" y="281.69" class="st3" width="160.56" height="1"/>
</g>
<g class="st2">
	<rect x="0" y="36.74" class="st3" width="160.56" height="1"/>
</g>
<g>
	<path class="st1" d="M152.61,312.96H7.95c-1.08,0-1.95-0.87-1.95-1.95v-18.87c0-1.08,0.87-1.95,1.95-1.95h144.66
		c1.08,0,1.95,0.87,1.95,1.95v18.87C154.56,312.09,153.68,312.96,152.61,312.96z"/>
</g>
<g>
	<g>
		<path class="st4" d="M39.35,22.19c-0.54,0-0.96,0.19-1.27,0.57s-0.46,0.9-0.46,1.57c0,0.7,0.15,1.23,0.44,1.59
			s0.72,0.54,1.28,0.54c0.24,0,0.48-0.02,0.7-0.07s0.46-0.11,0.71-0.19v0.8c-0.45,0.17-0.96,0.25-1.52,0.25
			c-0.84,0-1.48-0.25-1.93-0.76s-0.67-1.23-0.67-2.17c0-0.59,0.11-1.11,0.33-1.56s0.53-0.79,0.94-1.02s0.89-0.36,1.45-0.36
			c0.58,0,1.12,0.12,1.62,0.37l-0.34,0.78c-0.19-0.09-0.4-0.17-0.61-0.24S39.59,22.19,39.35,22.19z"/>
		<path class="st4" d="M45.73,25.02c0,0.71-0.18,1.26-0.54,1.65s-0.87,0.59-1.51,0.59c-0.4,0-0.76-0.09-1.07-0.27
			s-0.55-0.44-0.71-0.79s-0.25-0.74-0.25-1.19c0-0.7,0.18-1.25,0.54-1.64s0.87-0.59,1.52-0.59c0.62,0,1.12,0.2,1.48,0.6
			S45.73,24.34,45.73,25.02z M42.58,25.02c0,1,0.37,1.5,1.11,1.5c0.73,0,1.09-0.5,1.09-1.5c0-0.99-0.37-1.48-1.1-1.48
			c-0.39,0-0.66,0.13-0.84,0.38S42.58,24.54,42.58,25.02z"/>
		<path class="st4" d="M48.24,27.26c-0.54,0-0.96-0.2-1.26-0.59s-0.45-0.94-0.45-1.64c0-0.71,0.15-1.26,0.46-1.65
			s0.73-0.59,1.27-0.59c0.57,0,1,0.21,1.3,0.63h0.05c-0.04-0.31-0.07-0.55-0.07-0.73v-1.57h0.92v6.08h-0.72l-0.16-0.57h-0.04
			C49.24,27.05,48.81,27.26,48.24,27.26z M48.48,26.52c0.38,0,0.65-0.11,0.82-0.32s0.26-0.56,0.27-1.03v-0.13
			c0-0.54-0.09-0.93-0.27-1.16s-0.45-0.34-0.83-0.34c-0.32,0-0.57,0.13-0.75,0.39s-0.26,0.63-0.26,1.12c0,0.48,0.08,0.84,0.25,1.1
			S48.15,26.52,48.48,26.52z"/>
		<path class="st4" d="M53.65,27.26c-0.67,0-1.2-0.2-1.58-0.59s-0.57-0.93-0.57-1.62c0-0.71,0.18-1.26,0.53-1.66
			s0.83-0.61,1.45-0.61c0.57,0,1.02,0.17,1.35,0.52s0.5,0.82,0.5,1.43v0.5h-2.88c0.01,0.42,0.13,0.74,0.34,0.97s0.51,0.34,0.9,0.34
			c0.26,0,0.49-0.02,0.71-0.07s0.46-0.13,0.71-0.24v0.75c-0.22,0.11-0.45,0.18-0.68,0.23S53.95,27.26,53.65,27.26z M53.48,23.48
			c-0.29,0-0.53,0.09-0.7,0.28s-0.28,0.45-0.31,0.81h1.96c-0.01-0.36-0.09-0.63-0.26-0.81S53.78,23.48,53.48,23.48z"/>
		<path class="st4" d="M61.02,27.19l-1.66-4.77h-0.03c0.04,0.71,0.07,1.37,0.07,1.99v2.78h-0.85v-5.71h1.32l1.59,4.54h0.02
			l1.63-4.54h1.32v5.71h-0.9v-2.82c0-0.28,0.01-0.65,0.02-1.11s0.03-0.73,0.04-0.83h-0.03l-1.71,4.76H61.02z"/>
		<path class="st4" d="M67.72,27.26c-0.67,0-1.2-0.2-1.58-0.59s-0.57-0.93-0.57-1.62c0-0.71,0.18-1.26,0.53-1.66
			s0.83-0.61,1.45-0.61c0.57,0,1.02,0.17,1.35,0.52s0.5,0.82,0.5,1.43v0.5h-2.88c0.01,0.42,0.13,0.74,0.34,0.97s0.51,0.34,0.9,0.34
			c0.26,0,0.49-0.02,0.71-0.07s0.46-0.13,0.71-0.24v0.75c-0.22,0.11-0.45,0.18-0.68,0.23S68.02,27.26,67.72,27.26z M67.55,23.48
			c-0.29,0-0.53,0.09-0.7,0.28s-0.28,0.45-0.31,0.81h1.96c-0.01-0.36-0.09-0.63-0.26-0.81S67.85,23.48,67.55,23.48z"/>
		<path class="st4" d="M74.25,27.19h-0.92v-2.66c0-0.33-0.07-0.58-0.2-0.75s-0.35-0.25-0.64-0.25c-0.39,0-0.67,0.11-0.85,0.34
			s-0.27,0.61-0.27,1.15v2.15h-0.92v-4.32h0.72l0.13,0.57h0.05c0.13-0.21,0.31-0.36,0.55-0.48s0.51-0.17,0.8-0.17
			c1.04,0,1.55,0.53,1.55,1.58V27.19z"/>
		<path class="st4" d="M77.13,26.52c0.22,0,0.45-0.04,0.67-0.11v0.69c-0.1,0.04-0.23,0.08-0.39,0.11s-0.33,0.04-0.5,0.04
			c-0.87,0-1.3-0.46-1.3-1.38v-2.33h-0.59v-0.41l0.63-0.34l0.31-0.91h0.57v0.96h1.23v0.7h-1.23v2.31c0,0.22,0.06,0.38,0.17,0.49
			S76.95,26.52,77.13,26.52z"/>
		<path class="st4" d="M82.5,25.02c0,0.71-0.18,1.26-0.54,1.65c-0.36,0.4-0.87,0.59-1.51,0.59c-0.4,0-0.76-0.09-1.07-0.27
			s-0.55-0.44-0.71-0.79s-0.25-0.74-0.25-1.19c0-0.7,0.18-1.25,0.54-1.64s0.87-0.59,1.52-0.59c0.62,0,1.12,0.2,1.48,0.6
			C82.32,23.79,82.5,24.34,82.5,25.02z M79.35,25.02c0,1,0.37,1.5,1.1,1.5c0.73,0,1.09-0.5,1.09-1.5c0-0.99-0.37-1.48-1.1-1.48
			c-0.38,0-0.66,0.13-0.84,0.38S79.35,24.54,79.35,25.02z"/>
		<path class="st4" d="M85.75,22.79c0.19,0,0.34,0.01,0.46,0.04l-0.09,0.86c-0.13-0.03-0.27-0.05-0.41-0.05
			c-0.37,0-0.66,0.12-0.89,0.36c-0.23,0.24-0.34,0.55-0.34,0.93v2.26h-0.92v-4.32h0.72l0.12,0.76h0.05
			c0.14-0.26,0.33-0.46,0.56-0.61S85.48,22.79,85.75,22.79z"/>
		<path class="st4" d="M86.95,21.72c0-0.16,0.04-0.29,0.13-0.38s0.22-0.13,0.38-0.13c0.16,0,0.29,0.04,0.38,0.13
			s0.13,0.21,0.13,0.38c0,0.16-0.04,0.28-0.13,0.37s-0.21,0.13-0.38,0.13c-0.17,0-0.29-0.04-0.38-0.13S86.95,21.88,86.95,21.72z
			 M87.92,27.19H87v-4.32h0.92V27.19z"/>
		<path class="st4" d="M93.03,27.19h-0.92v-2.66c0-0.33-0.07-0.58-0.2-0.75c-0.13-0.16-0.35-0.25-0.64-0.25
			c-0.39,0-0.67,0.11-0.85,0.34s-0.27,0.61-0.27,1.15v2.15h-0.92v-4.32h0.72l0.13,0.57h0.05c0.13-0.21,0.32-0.36,0.55-0.48
			c0.24-0.11,0.51-0.17,0.8-0.17c1.04,0,1.55,0.53,1.55,1.58V27.19z"/>
		<path class="st4" d="M97.96,22.87v0.5l-0.74,0.14c0.07,0.09,0.12,0.2,0.17,0.34c0.04,0.13,0.07,0.27,0.07,0.42
			c0,0.45-0.15,0.8-0.46,1.05c-0.31,0.26-0.73,0.38-1.27,0.38c-0.14,0-0.26-0.01-0.38-0.03c-0.2,0.12-0.3,0.27-0.3,0.43
			c0,0.1,0.05,0.17,0.14,0.22c0.09,0.05,0.26,0.07,0.51,0.07h0.75c0.48,0,0.84,0.1,1.09,0.3c0.25,0.2,0.37,0.5,0.37,0.88
			c0,0.49-0.2,0.87-0.61,1.13c-0.4,0.27-0.99,0.4-1.75,0.4c-0.59,0-1.04-0.1-1.35-0.31c-0.31-0.21-0.46-0.51-0.46-0.89
			c0-0.27,0.08-0.49,0.25-0.67s0.4-0.31,0.71-0.38c-0.12-0.05-0.22-0.14-0.3-0.25c-0.08-0.12-0.12-0.24-0.12-0.37
			c0-0.16,0.05-0.3,0.14-0.41c0.09-0.11,0.23-0.22,0.41-0.33c-0.22-0.1-0.41-0.25-0.54-0.47c-0.14-0.22-0.21-0.47-0.21-0.76
			c0-0.47,0.15-0.83,0.44-1.09c0.3-0.26,0.72-0.39,1.26-0.39c0.12,0,0.25,0.01,0.38,0.03c0.13,0.02,0.24,0.03,0.3,0.05H97.96z
			 M94.57,27.86c0,0.2,0.09,0.35,0.27,0.46c0.18,0.11,0.43,0.16,0.75,0.16c0.5,0,0.87-0.07,1.12-0.21c0.25-0.14,0.37-0.33,0.37-0.57
			c0-0.19-0.07-0.32-0.2-0.4c-0.13-0.08-0.38-0.12-0.75-0.12h-0.7c-0.26,0-0.47,0.06-0.63,0.19C94.64,27.48,94.57,27.65,94.57,27.86
			z M94.96,24.26c0,0.27,0.07,0.48,0.21,0.62c0.14,0.15,0.34,0.22,0.6,0.22c0.53,0,0.8-0.28,0.8-0.85c0-0.28-0.07-0.5-0.2-0.65
			c-0.13-0.15-0.33-0.23-0.6-0.23c-0.27,0-0.47,0.08-0.6,0.23S94.96,23.97,94.96,24.26z"/>
		<path class="st4" d="M103.27,24.09h2.1v2.87c-0.34,0.11-0.67,0.19-0.99,0.24s-0.66,0.07-1.03,0.07c-0.86,0-1.53-0.26-2-0.77
			s-0.7-1.23-0.7-2.17c0-0.92,0.26-1.64,0.79-2.16s1.26-0.78,2.18-0.78c0.6,0,1.16,0.11,1.7,0.34L105,22.51
			c-0.46-0.21-0.93-0.32-1.39-0.32c-0.61,0-1.09,0.19-1.45,0.57s-0.53,0.91-0.53,1.57c0,0.7,0.16,1.23,0.48,1.59
			s0.78,0.54,1.38,0.54c0.3,0,0.62-0.04,0.97-0.11v-1.47h-1.18V24.09z"/>
		<path class="st4" d="M108.84,22.79c0.18,0,0.34,0.01,0.46,0.04l-0.09,0.86c-0.13-0.03-0.27-0.05-0.41-0.05
			c-0.37,0-0.67,0.12-0.89,0.36s-0.34,0.55-0.34,0.93v2.26h-0.92v-4.32h0.72l0.12,0.76h0.05c0.14-0.26,0.33-0.46,0.56-0.61
			S108.57,22.79,108.84,22.79z"/>
		<path class="st4" d="M113.93,25.02c0,0.71-0.18,1.26-0.54,1.65s-0.87,0.59-1.51,0.59c-0.4,0-0.76-0.09-1.07-0.27
			s-0.55-0.44-0.71-0.79s-0.25-0.74-0.25-1.19c0-0.7,0.18-1.25,0.54-1.64s0.87-0.59,1.52-0.59c0.62,0,1.12,0.2,1.48,0.6
			S113.93,24.34,113.93,25.02z M110.78,25.02c0,1,0.37,1.5,1.11,1.5c0.73,0,1.09-0.5,1.09-1.5c0-0.99-0.37-1.48-1.1-1.48
			c-0.39,0-0.67,0.13-0.84,0.38S110.78,24.54,110.78,25.02z"/>
		<path class="st4" d="M118.03,27.19l-0.13-0.57h-0.05c-0.13,0.2-0.31,0.36-0.54,0.47s-0.5,0.17-0.81,0.17
			c-0.52,0-0.91-0.13-1.17-0.39s-0.39-0.65-0.39-1.18v-2.82h0.93v2.66c0,0.33,0.07,0.58,0.2,0.74s0.35,0.25,0.64,0.25
			c0.39,0,0.67-0.12,0.85-0.35s0.27-0.62,0.27-1.16v-2.15h0.92v4.32H118.03z"/>
		<path class="st4" d="M122.25,27.26c-0.55,0-0.97-0.2-1.27-0.59h-0.05c0.04,0.36,0.05,0.59,0.05,0.66v1.77h-0.92v-6.24h0.74
			c0.02,0.08,0.06,0.27,0.13,0.58h0.05c0.29-0.44,0.72-0.66,1.29-0.66c0.54,0,0.96,0.2,1.26,0.59s0.45,0.94,0.45,1.64
			s-0.15,1.26-0.46,1.65S122.79,27.26,122.25,27.26z M122.03,23.54c-0.36,0-0.63,0.11-0.8,0.32s-0.25,0.55-0.25,1.02v0.14
			c0,0.53,0.08,0.91,0.25,1.14s0.44,0.35,0.82,0.35c0.32,0,0.56-0.13,0.73-0.39s0.26-0.63,0.26-1.11c0-0.48-0.08-0.85-0.26-1.1
			S122.36,23.54,122.03,23.54z"/>
	</g>
	<g class="st5">
		<path class="st4" d="M12.54,29.45c0.2-0.2,0.2-0.5,0-0.7L8.39,24.6l4.15-4.15c0.2-0.2,0.2-0.5,0-0.7c-0.2-0.2-0.5-0.2-0.7,0
			l-4.5,4.5c-0.1,0.1-0.15,0.25-0.15,0.35s0.05,0.25,0.15,0.35l4.5,4.5C12.04,29.65,12.34,29.65,12.54,29.45z"/>
	</g>
	<g>
		<path class="st6" d="M151,24.1h-4.5v-4.5c0-0.3-0.2-0.5-0.5-0.5s-0.5,0.2-0.5,0.5v4.5H141c-0.3,0-0.5,0.2-0.5,0.5
			c0,0.3,0.2,0.5,0.5,0.5h4.5v4.5c0,0.3,0.2,0.5,0.5,0.5s0.5-0.2,0.5-0.5v-4.5h4.5c0.3,0,0.5-0.2,0.5-0.5
			C151.5,24.3,151.3,24.1,151,24.1z"/>
	</g>
</g>
<g class="st5">
	<path class="st4" d="M35.6,330.03c1.05-0.98,1.65-2.33,1.65-3.83c0-2.92-2.33-5.25-5.25-5.25c-2.93,0-5.25,2.33-5.25,5.25
		c0,1.5,0.6,2.85,1.65,3.83c-1.8,0.3-3.15,1.8-3.15,3.67v1.5c0,0.45,0.3,0.75,0.75,0.75h12c0.45,0,0.75-0.3,0.75-0.75v-1.5
		C38.75,331.83,37.4,330.33,35.6,330.03z M28.25,326.21c0-2.1,1.65-3.75,3.75-3.75s3.75,1.65,3.75,3.75s-1.65,3.75-3.75,3.75
		S28.25,328.31,28.25,326.21z M37.25,334.46h-10.5v-0.75c0-1.27,0.97-2.25,2.25-2.25h6c1.28,0,2.25,0.98,2.25,2.25V334.46z"/>
</g>
<g>
	<path class="st6" d="M87.78,320.47h-9.75c-1.24,0-2.25,1.01-2.25,2.25v0.75h-3c-1.24,0-2.25,1.01-2.25,2.25v6
		c0,1.24,1.01,2.25,2.25,2.25h0.75v1.34c0,0.62,0.5,1.13,1.12,1.13c0,0,0,0,0.01,0c0.29,0,0.58-0.11,0.8-0.33l2.14-2.14h4.94
		c0.9,0,1.72-0.54,2.07-1.37l0.5,0.5c0.32,0.32,0.81,0.42,1.23,0.25c0.42-0.17,0.7-0.58,0.7-1.04v-1.34h0.75
		c1.24,0,2.25-1.01,2.25-2.25v-6C90.03,321.48,89.02,320.48,87.78,320.47z M83.28,331.29v0.44c0,0.41-0.34,0.75-0.75,0.75h-5.25
		c-0.2,0-0.39,0.08-0.53,0.22l-1.72,1.72v-1.19c0-0.41-0.34-0.75-0.75-0.75h-1.5c-0.41,0-0.75-0.34-0.75-0.75v-6
		c0-0.41,0.34-0.75,0.75-0.75h3v3.75c0,1.24,1.01,2.25,2.25,2.25h4.94C82.97,330.97,83.28,331.29,83.28,331.29z M88.53,328.72
		c0,0.41-0.34,0.75-0.75,0.75h-1.5c-0.41,0-0.75,0.34-0.75,0.75v1.19l-1.72-1.72c-0.14-0.14-0.33-0.22-0.53-0.22h-5.25
		c-0.41,0-0.75-0.34-0.75-0.75v-6c0-0.41,0.34-0.75,0.75-0.75h9.75c0.41,0,0.75,0.34,0.75,0.75
		C88.53,322.72,88.53,328.72,88.53,328.72z"/>
</g>
<g class="st5">
	<path class="st4" d="M136.09,327.11h-1.12c-0.15-0.75-0.45-1.5-0.9-2.17l0.82-0.83c0.3-0.3,0.3-0.75,0-1.05l-0.9-0.9
		c-0.3-0.3-0.75-0.3-1.05,0l-0.82,0.82c-0.68-0.45-1.35-0.75-2.18-0.9v-1.12c0-0.45-0.3-0.75-0.75-0.75h-1.28
		c-0.45,0-0.75,0.3-0.75,0.75v1.12c-0.75,0.15-1.5,0.45-2.18,0.9l-0.82-0.82c-0.3-0.3-0.75-0.3-1.05,0l-0.9,0.9
		c-0.3,0.3-0.3,0.75,0,1.05l0.82,0.83c-0.45,0.67-0.75,1.35-0.9,2.17h-1.05c-0.45,0-0.75,0.3-0.75,0.75v1.27
		c0,0.45,0.3,0.75,0.75,0.75h1.12c0.15,0.75,0.45,1.5,0.9,2.18l-0.83,0.82c-0.3,0.3-0.3,0.75,0,1.05l0.9,0.9
		c0.3,0.3,0.75,0.3,1.05,0l0.83-0.83c0.67,0.45,1.35,0.75,2.17,0.9v1.05c0,0.45,0.3,0.75,0.75,0.75h1.28c0.45,0,0.75-0.3,0.75-0.75
		v-1.12c0.75-0.15,1.5-0.45,2.18-0.9l0.82,0.82c0.3,0.3,0.75,0.3,1.05,0l0.9-0.9c0.3-0.3,0.3-0.75,0-1.05l-0.82-0.83
		c0.45-0.67,0.75-1.35,0.9-2.17h1.05c0.45,0,0.75-0.3,0.75-0.75v-1.27C136.84,327.41,136.54,327.11,136.09,327.11z M128.59,331.76
		c-1.8,0-3.3-1.5-3.3-3.3s1.5-3.3,3.3-3.3c1.8,0,3.3,1.5,3.3,3.3S130.39,331.76,128.59,331.76z"/>
</g>
<g class="st7">
	<path class="st4" d="M16.57,302.43c0,0.55-0.18,0.98-0.55,1.28c-0.37,0.3-0.88,0.46-1.54,0.46c-0.28,0-0.52-0.02-0.73-0.06
		s-0.41-0.1-0.59-0.19v-0.66c0.42,0.22,0.86,0.33,1.33,0.33c0.42,0,0.76-0.1,1-0.29s0.37-0.47,0.37-0.81c0-0.2-0.07-0.38-0.21-0.54
		s-0.39-0.34-0.76-0.55c-0.39-0.22-0.67-0.44-0.82-0.66s-0.23-0.48-0.23-0.79c0-0.49,0.17-0.88,0.52-1.19s0.8-0.46,1.36-0.46
		c0.26,0,0.5,0.02,0.72,0.07s0.46,0.13,0.71,0.25l-0.26,0.59c-0.17-0.1-0.36-0.18-0.58-0.23s-0.41-0.09-0.59-0.09
		c-0.35,0-0.63,0.09-0.84,0.27s-0.32,0.43-0.32,0.74c0,0.14,0.02,0.26,0.07,0.36s0.11,0.19,0.21,0.28s0.28,0.21,0.55,0.37
		c0.38,0.23,0.64,0.41,0.78,0.54s0.24,0.27,0.3,0.43S16.57,302.23,16.57,302.43z"/>
	<path class="st4" d="M19.51,299.73c0.24,0,0.45,0.06,0.64,0.19s0.33,0.31,0.44,0.56h0.04l0.26-0.67h0.5l-0.91,4.28h-0.52l0.1-0.82
		h-0.03c-0.47,0.6-0.96,0.89-1.47,0.89c-0.36,0-0.65-0.13-0.85-0.39s-0.31-0.61-0.31-1.06c0-0.54,0.09-1.04,0.28-1.51
		s0.44-0.83,0.77-1.09S19.12,299.73,19.51,299.73z M18.77,303.63c0.25,0,0.5-0.12,0.75-0.36s0.45-0.55,0.61-0.94
		s0.23-0.77,0.23-1.16c0-0.27-0.07-0.48-0.22-0.64s-0.34-0.24-0.57-0.24c-0.27,0-0.52,0.11-0.76,0.34s-0.42,0.53-0.55,0.91
		s-0.2,0.79-0.2,1.21c0,0.3,0.06,0.52,0.18,0.67S18.55,303.63,18.77,303.63z"/>
	<path class="st4" d="M21.92,299.81h0.66l0.29,2.13c0.03,0.18,0.05,0.44,0.08,0.79s0.04,0.63,0.04,0.85H23
		c0.09-0.23,0.2-0.49,0.34-0.78s0.24-0.5,0.3-0.61l1.27-2.38h0.7l-2.72,5.01c-0.24,0.45-0.48,0.76-0.72,0.93s-0.52,0.26-0.86,0.26
		c-0.19,0-0.37-0.03-0.55-0.08v-0.53c0.16,0.05,0.33,0.07,0.51,0.07c0.21,0,0.4-0.07,0.55-0.2s0.3-0.33,0.44-0.58l0.3-0.53
		L21.92,299.81z"/>
	<path class="st4" d="M30.18,302.88c0,0.41-0.14,0.72-0.43,0.95s-0.69,0.34-1.22,0.34c-0.44,0-0.84-0.09-1.19-0.27v-0.62
		c0.18,0.11,0.38,0.19,0.59,0.25s0.41,0.09,0.59,0.09c0.33,0,0.58-0.07,0.74-0.2s0.25-0.3,0.25-0.5c0-0.15-0.05-0.27-0.14-0.38
		s-0.29-0.24-0.59-0.42c-0.34-0.19-0.58-0.38-0.72-0.56s-0.21-0.4-0.21-0.65c0-0.36,0.13-0.65,0.39-0.87s0.61-0.33,1.04-0.33
		c0.45,0,0.88,0.1,1.29,0.29l-0.21,0.54l-0.22-0.1c-0.26-0.11-0.55-0.17-0.86-0.17c-0.24,0-0.43,0.06-0.57,0.17
		s-0.21,0.26-0.21,0.44c0,0.15,0.05,0.27,0.14,0.38s0.28,0.24,0.57,0.4c0.28,0.16,0.48,0.29,0.6,0.4s0.21,0.23,0.27,0.36
		S30.18,302.71,30.18,302.88z"/>
	<path class="st4" d="M33.25,299.75c0.49,0,0.89,0.15,1.17,0.44s0.43,0.7,0.43,1.21c0,0.49-0.09,0.95-0.28,1.39
		s-0.44,0.77-0.76,1.01s-0.68,0.36-1.09,0.36c-0.5,0-0.89-0.15-1.18-0.44s-0.43-0.7-0.43-1.21c0-0.5,0.1-0.96,0.29-1.4
		s0.45-0.77,0.77-1S32.85,299.75,33.25,299.75z M34.17,301.31c0-0.3-0.08-0.54-0.24-0.73s-0.38-0.28-0.66-0.28
		c-0.28,0-0.54,0.1-0.76,0.29s-0.4,0.46-0.52,0.8s-0.19,0.72-0.19,1.14c0,0.34,0.08,0.6,0.25,0.79s0.4,0.28,0.71,0.28
		c0.27,0,0.51-0.09,0.73-0.29s0.38-0.46,0.51-0.81S34.17,301.76,34.17,301.31z"/>
	<path class="st4" d="M37.94,304.09l0.58-2.7c0.05-0.25,0.07-0.42,0.07-0.53c0-0.18-0.04-0.32-0.12-0.43s-0.22-0.15-0.41-0.15
		c-0.22,0-0.43,0.08-0.64,0.23s-0.39,0.38-0.55,0.67s-0.28,0.64-0.37,1.05l-0.39,1.86h-0.66l0.91-4.28h0.54l-0.09,0.79h0.04
		c0.23-0.31,0.45-0.53,0.68-0.67s0.46-0.2,0.7-0.2c0.29,0,0.52,0.08,0.68,0.25s0.25,0.41,0.28,0.71h0.03
		c0.22-0.33,0.46-0.57,0.71-0.72s0.51-0.24,0.77-0.24c0.33,0,0.59,0.09,0.77,0.27s0.27,0.43,0.27,0.77c0,0.18-0.03,0.41-0.09,0.7
		l-0.56,2.62h-0.66l0.58-2.7c0.05-0.27,0.08-0.46,0.08-0.57c0-0.16-0.04-0.29-0.13-0.39s-0.23-0.15-0.42-0.15
		c-0.21,0-0.42,0.08-0.62,0.23s-0.39,0.37-0.54,0.64s-0.27,0.61-0.35,0.99l-0.42,1.95H37.94z"/>
	<path class="st4" d="M44.12,304.17c-0.48,0-0.86-0.14-1.13-0.43s-0.41-0.68-0.41-1.18c0-0.49,0.1-0.96,0.29-1.41
		s0.45-0.8,0.77-1.05s0.67-0.38,1.06-0.38c0.4,0,0.7,0.09,0.9,0.26s0.3,0.42,0.3,0.72c0,0.47-0.22,0.84-0.65,1.1s-1.05,0.4-1.86,0.4
		h-0.13l-0.02,0.31c0,0.34,0.08,0.61,0.24,0.8s0.41,0.29,0.74,0.29c0.16,0,0.33-0.02,0.51-0.07s0.39-0.13,0.65-0.26v0.57
		c-0.24,0.11-0.46,0.19-0.65,0.24S44.35,304.17,44.12,304.17z M44.66,300.29c-0.27,0-0.52,0.12-0.76,0.37s-0.42,0.58-0.54,1.02h0.05
		c0.59,0,1.05-0.08,1.37-0.23s0.47-0.38,0.47-0.67c0-0.14-0.05-0.25-0.14-0.34S44.87,300.29,44.66,300.29z"/>
	<path class="st4" d="M47.69,303.63c0.14,0,0.33-0.03,0.56-0.1v0.5c-0.09,0.04-0.2,0.07-0.33,0.09s-0.23,0.04-0.31,0.04
		c-0.33,0-0.57-0.08-0.75-0.23s-0.26-0.39-0.26-0.69c0-0.17,0.02-0.37,0.07-0.59l0.5-2.35H46.5l0.05-0.29l0.72-0.3l0.49-0.89h0.38
		l-0.21,0.98H49l-0.1,0.5h-1.07l-0.5,2.36c-0.05,0.23-0.07,0.4-0.07,0.52c0,0.15,0.04,0.26,0.11,0.34S47.55,303.63,47.69,303.63z"/>
	<path class="st4" d="M51.59,304.09l0.58-2.7c0.05-0.25,0.07-0.42,0.07-0.53c0-0.39-0.19-0.58-0.57-0.58
		c-0.23,0-0.46,0.08-0.68,0.23s-0.41,0.38-0.58,0.67s-0.29,0.65-0.38,1.06l-0.39,1.85h-0.66l1.29-6.08h0.66
		c-0.05,0.21-0.09,0.42-0.13,0.62s-0.09,0.4-0.13,0.61s-0.1,0.42-0.15,0.65s-0.12,0.47-0.19,0.74h0.04
		c0.24-0.32,0.49-0.55,0.72-0.69s0.49-0.21,0.75-0.21c0.34,0,0.6,0.09,0.79,0.28s0.28,0.45,0.28,0.8c0,0.16-0.03,0.38-0.09,0.65
		c-0.1,0.5-0.29,1.38-0.57,2.62H51.59z"/>
	<path class="st4" d="M54.24,304.09h-0.66l0.91-4.28h0.66L54.24,304.09z M54.68,298.72c0-0.15,0.04-0.26,0.12-0.36
		s0.19-0.14,0.32-0.14c0.23,0,0.34,0.12,0.34,0.35c0,0.14-0.04,0.26-0.13,0.36s-0.19,0.15-0.3,0.15c-0.1,0-0.19-0.03-0.26-0.1
		S54.68,298.83,54.68,298.72z"/>
	<path class="st4" d="M58.23,304.09l0.58-2.7c0.05-0.27,0.08-0.46,0.08-0.56c0-0.16-0.05-0.3-0.14-0.39s-0.24-0.15-0.44-0.15
		c-0.23,0-0.46,0.08-0.68,0.23s-0.41,0.38-0.58,0.67s-0.29,0.64-0.38,1.05l-0.39,1.86h-0.66l0.91-4.28h0.54l-0.09,0.79h0.04
		c0.25-0.32,0.49-0.54,0.72-0.67s0.47-0.2,0.72-0.2c0.33,0,0.59,0.09,0.78,0.27s0.29,0.43,0.29,0.76c0,0.21-0.03,0.44-0.09,0.7
		l-0.56,2.62H58.23z"/>
	<path class="st4" d="M64.3,299.81l-0.1,0.42l-0.82,0.09c0.11,0.16,0.16,0.37,0.16,0.62c0,0.5-0.15,0.89-0.46,1.19
		s-0.71,0.44-1.22,0.44c-0.14,0-0.25-0.01-0.33-0.03c-0.36,0.14-0.54,0.31-0.54,0.51c0,0.11,0.04,0.18,0.13,0.21
		s0.21,0.06,0.38,0.08l0.46,0.05c0.47,0.06,0.81,0.17,1.03,0.34s0.32,0.42,0.32,0.76c0,0.48-0.19,0.85-0.57,1.11
		s-0.92,0.39-1.61,0.39c-0.51,0-0.9-0.1-1.19-0.29s-0.43-0.46-0.43-0.81c0-0.27,0.09-0.51,0.28-0.71s0.49-0.37,0.91-0.51
		c-0.2-0.11-0.3-0.26-0.3-0.47c0-0.18,0.07-0.33,0.2-0.46s0.32-0.25,0.55-0.36c-0.16-0.08-0.3-0.21-0.4-0.37s-0.16-0.35-0.16-0.57
		c0-0.5,0.16-0.92,0.47-1.24s0.71-0.48,1.19-0.48c0.2,0,0.4,0.03,0.6,0.08H64.3z M60.14,304.85c0,0.2,0.08,0.36,0.25,0.48
		s0.42,0.18,0.75,0.18c0.47,0,0.84-0.08,1.11-0.25s0.4-0.4,0.4-0.7c0-0.16-0.07-0.29-0.21-0.38s-0.38-0.16-0.72-0.2l-0.62-0.06
		c-0.31,0.07-0.55,0.18-0.72,0.34S60.14,304.62,60.14,304.85z M61.23,301.43c0,0.22,0.06,0.39,0.18,0.51s0.28,0.17,0.49,0.17
		c0.21,0,0.39-0.05,0.54-0.16s0.27-0.26,0.35-0.45s0.12-0.4,0.12-0.62c0-0.21-0.06-0.38-0.17-0.49s-0.28-0.17-0.49-0.17
		c-0.2,0-0.38,0.05-0.53,0.16s-0.27,0.25-0.36,0.44S61.23,301.21,61.23,301.43z"/>
	<path class="st4" d="M68.94,304.09l0.58-2.7c0.05-0.27,0.08-0.46,0.08-0.56c0-0.16-0.05-0.3-0.14-0.39s-0.24-0.15-0.44-0.15
		c-0.23,0-0.46,0.08-0.68,0.23s-0.41,0.38-0.58,0.67s-0.29,0.64-0.38,1.05l-0.39,1.86h-0.66l0.91-4.28h0.54l-0.09,0.79h0.04
		c0.25-0.32,0.49-0.54,0.72-0.67s0.47-0.2,0.72-0.2c0.33,0,0.59,0.09,0.78,0.27s0.29,0.43,0.29,0.76c0,0.21-0.03,0.44-0.09,0.7
		l-0.56,2.62H68.94z"/>
	<path class="st4" d="M71.59,304.09h-0.66l0.91-4.28h0.66L71.59,304.09z M72.04,298.72c0-0.15,0.04-0.26,0.12-0.36
		s0.19-0.14,0.32-0.14c0.23,0,0.34,0.12,0.34,0.35c0,0.14-0.04,0.26-0.13,0.36s-0.19,0.15-0.3,0.15c-0.1,0-0.19-0.03-0.26-0.1
		S72.04,298.83,72.04,298.72z"/>
	<path class="st4" d="M74.72,304.17c-0.51,0-0.9-0.14-1.18-0.42s-0.42-0.67-0.42-1.18c0-0.52,0.1-1,0.29-1.44s0.46-0.78,0.8-1.03
		c0.34-0.25,0.72-0.37,1.15-0.37c0.36,0,0.71,0.07,1.05,0.2l-0.18,0.55c-0.31-0.13-0.6-0.2-0.86-0.2c-0.29,0-0.56,0.1-0.8,0.3
		c-0.24,0.2-0.43,0.48-0.57,0.83s-0.21,0.74-0.21,1.16c0,0.33,0.09,0.59,0.26,0.78s0.41,0.28,0.72,0.28c0.19,0,0.36-0.03,0.53-0.08
		c0.17-0.05,0.33-0.11,0.49-0.18v0.56C75.47,304.09,75.11,304.17,74.72,304.17z"/>
	<path class="st4" d="M78.26,304.17c-0.48,0-0.86-0.14-1.13-0.43s-0.41-0.68-0.41-1.18c0-0.49,0.1-0.96,0.29-1.41
		s0.45-0.8,0.77-1.05s0.67-0.38,1.06-0.38c0.4,0,0.7,0.09,0.9,0.26s0.3,0.42,0.3,0.72c0,0.47-0.22,0.84-0.65,1.1s-1.05,0.4-1.86,0.4
		h-0.13l-0.02,0.31c0,0.34,0.08,0.61,0.24,0.8s0.41,0.29,0.74,0.29c0.16,0,0.33-0.02,0.51-0.07s0.39-0.13,0.65-0.26v0.57
		c-0.25,0.11-0.46,0.19-0.65,0.24S78.49,304.17,78.26,304.17z M78.81,300.29c-0.27,0-0.52,0.12-0.76,0.37s-0.42,0.58-0.54,1.02h0.05
		c0.59,0,1.05-0.08,1.37-0.23s0.47-0.38,0.47-0.67c0-0.14-0.05-0.25-0.14-0.34S79.01,300.29,78.81,300.29z"/>
	<path class="st4" d="M80.45,303.8c0-0.2,0.05-0.36,0.16-0.48s0.25-0.18,0.44-0.18c0.11,0,0.2,0.03,0.27,0.1s0.1,0.17,0.1,0.31
		c0,0.18-0.05,0.34-0.16,0.46s-0.25,0.19-0.42,0.19c-0.12,0-0.21-0.03-0.29-0.1S80.45,303.93,80.45,303.8z M82.49,303.8
		c0-0.2,0.05-0.36,0.16-0.48s0.25-0.18,0.44-0.18c0.11,0,0.2,0.03,0.27,0.1s0.1,0.17,0.1,0.31c0,0.18-0.05,0.34-0.16,0.46
		s-0.25,0.19-0.42,0.19c-0.12,0-0.21-0.03-0.29-0.1S82.49,303.93,82.49,303.8z M84.52,303.8c0-0.2,0.05-0.36,0.16-0.48
		s0.25-0.18,0.44-0.18c0.11,0,0.2,0.03,0.27,0.1s0.1,0.17,0.1,0.31c0,0.18-0.05,0.34-0.16,0.46s-0.25,0.19-0.42,0.19
		c-0.12,0-0.21-0.03-0.29-0.1S84.52,303.93,84.52,303.8z"/>
</g>
<g class="st8">
	<path class="st6" d="M149.09,301.77c0.05-0.1,0.05-0.25,0-0.4c-0.05-0.05-0.05-0.1-0.1-0.15l-4.5-4.5c-0.2-0.2-0.5-0.2-0.7,0
		c-0.2,0.2-0.2,0.5,0,0.7l3.65,3.65h-10.1c-0.3,0-0.5,0.2-0.5,0.5c0,0.3,0.2,0.5,0.5,0.5h10.1l-3.65,3.65c-0.2,0.2-0.2,0.5,0,0.7
		c0.1,0.1,0.25,0.15,0.35,0.15c0.1,0,0.25-0.05,0.35-0.15l4.5-4.5C149.04,301.87,149.09,301.82,149.09,301.77z"/>
</g>
<g>
	<g>
		<g>
			<circle class="st9" cx="13.19" cy="59.87" r="6"/>
		</g>
		<g>
			<path class="st1" d="M13.66,63.17h-0.93v-4.91h-1.68v-0.8h4.29v0.8h-1.68V63.17z"/>
		</g>
	</g>
	<g>
		<g>
			<path class="st9" d="M23.28,45.07h66.24c1.15,0,2.09,0.94,2.09,2.09v16.62c0,1.15-0.93,2.09-2.09,2.09H17.25
				c2.25-1,3.94-2.69,3.94-6V47.16C21.19,46,22.13,45.07,23.28,45.07z"/>
		</g>
		<g>
			<path class="st1" d="M29.2,53.39h-0.7v-1.93h-1.97v1.93h-0.7V49.1h0.7v1.75h1.97V49.1h0.7V53.39z"/>
			<path class="st1" d="M31.67,53.44c-0.5,0-0.9-0.15-1.18-0.44s-0.43-0.7-0.43-1.21c0-0.53,0.13-0.95,0.4-1.25s0.63-0.45,1.09-0.45
				c0.43,0,0.77,0.13,1.01,0.39s0.37,0.62,0.37,1.07v0.37h-2.16c0.01,0.31,0.09,0.56,0.25,0.73s0.39,0.25,0.68,0.25
				c0.19,0,0.37-0.02,0.53-0.05s0.34-0.1,0.53-0.18v0.56c-0.17,0.08-0.34,0.14-0.51,0.17S31.89,53.44,31.67,53.44z M31.54,50.61
				c-0.22,0-0.39,0.07-0.53,0.21s-0.21,0.34-0.24,0.61h1.47c0-0.27-0.07-0.47-0.19-0.61S31.76,50.61,31.54,50.61z"/>
			<path class="st1" d="M33.22,50.15h0.75l0.66,1.84c0.1,0.26,0.17,0.51,0.2,0.74h0.02c0.02-0.11,0.05-0.24,0.1-0.39
				s0.29-0.88,0.74-2.18h0.74l-1.39,3.67c-0.25,0.67-0.67,1.01-1.26,1.01c-0.15,0-0.3-0.02-0.45-0.05v-0.54
				c0.1,0.02,0.22,0.04,0.35,0.04c0.33,0,0.57-0.19,0.7-0.58l0.12-0.3L33.22,50.15z"/>
			<path class="st1" d="M36.82,53.02c0-0.14,0.04-0.25,0.11-0.33s0.18-0.11,0.33-0.11c0.14,0,0.25,0.04,0.32,0.12
				s0.11,0.19,0.11,0.33s-0.04,0.25-0.11,0.33s-0.18,0.12-0.32,0.12c-0.14,0-0.25-0.04-0.32-0.12S36.82,53.16,36.82,53.02z
				 M37.52,52.09h-0.51l-0.15-2.98h0.81L37.52,52.09z"/>
			<path class="st1" d="M43.7,51.2c0,0.71-0.2,1.25-0.59,1.62s-0.96,0.56-1.7,0.56h-1.2V49.1h1.32c0.68,0,1.21,0.18,1.59,0.55
				S43.7,50.54,43.7,51.2z M42.96,51.23c0-1.03-0.48-1.54-1.44-1.54h-0.61v3.11h0.5C42.44,52.8,42.96,52.27,42.96,51.23z"/>
			<path class="st1" d="M44.5,49.29c0-0.12,0.03-0.22,0.1-0.28s0.16-0.1,0.29-0.1c0.12,0,0.22,0.03,0.28,0.1s0.1,0.16,0.1,0.28
				c0,0.12-0.03,0.21-0.1,0.28s-0.16,0.1-0.28,0.1c-0.12,0-0.22-0.03-0.29-0.1S44.5,49.4,44.5,49.29z M45.23,53.39h-0.69v-3.24h0.69
				V53.39z"/>
			<path class="st1" d="M47.31,53.44c-0.4,0-0.72-0.15-0.95-0.44s-0.34-0.7-0.34-1.23c0-0.53,0.11-0.94,0.34-1.24
				s0.55-0.44,0.95-0.44c0.43,0,0.75,0.16,0.97,0.47h0.04c-0.03-0.23-0.05-0.42-0.05-0.55v-1.18h0.69v4.56h-0.54l-0.12-0.42h-0.03
				C48.06,53.28,47.73,53.44,47.31,53.44z M47.49,52.89c0.28,0,0.49-0.08,0.62-0.24s0.2-0.42,0.2-0.77v-0.1
				c0-0.41-0.07-0.7-0.2-0.87s-0.34-0.26-0.62-0.26c-0.24,0-0.43,0.1-0.56,0.29s-0.2,0.48-0.2,0.84c0,0.36,0.06,0.63,0.19,0.82
				S47.24,52.89,47.49,52.89z"/>
			<path class="st1" d="M51.02,50.15h0.75l0.66,1.84c0.1,0.26,0.17,0.51,0.2,0.74h0.02c0.02-0.11,0.05-0.24,0.1-0.39
				s0.29-0.88,0.74-2.18h0.74l-1.39,3.67c-0.25,0.67-0.67,1.01-1.26,1.01c-0.15,0-0.3-0.02-0.45-0.05v-0.54
				c0.1,0.02,0.22,0.04,0.35,0.04c0.33,0,0.57-0.19,0.7-0.58l0.12-0.3L51.02,50.15z"/>
			<path class="st1" d="M57.6,51.76c0,0.53-0.14,0.94-0.41,1.24s-0.65,0.45-1.13,0.45c-0.3,0-0.57-0.07-0.8-0.21
				s-0.41-0.33-0.54-0.59s-0.19-0.55-0.19-0.89c0-0.53,0.13-0.94,0.4-1.23s0.65-0.44,1.14-0.44c0.47,0,0.84,0.15,1.11,0.45
				S57.6,51.25,57.6,51.76z M55.25,51.76c0,0.75,0.28,1.12,0.83,1.12c0.55,0,0.82-0.37,0.82-1.12c0-0.74-0.28-1.11-0.83-1.11
				c-0.29,0-0.5,0.1-0.63,0.29S55.25,51.4,55.25,51.76z"/>
			<path class="st1" d="M60.68,53.39l-0.1-0.42h-0.04c-0.1,0.15-0.23,0.27-0.41,0.35s-0.38,0.13-0.6,0.13
				c-0.39,0-0.69-0.1-0.88-0.29s-0.29-0.49-0.29-0.89v-2.12h0.69v2c0,0.25,0.05,0.43,0.15,0.56s0.26,0.19,0.48,0.19
				c0.29,0,0.5-0.09,0.64-0.26s0.2-0.46,0.2-0.87v-1.61h0.69v3.24H60.68z"/>
			<path class="st1" d="M66.49,53.39H65.8v-2c0-0.25-0.05-0.43-0.14-0.56s-0.24-0.18-0.44-0.18c-0.27,0-0.46,0.09-0.58,0.26
				s-0.19,0.46-0.19,0.86v1.61h-0.69v-3.24h0.54l0.1,0.42h0.04c0.09-0.15,0.22-0.27,0.39-0.36s0.36-0.13,0.56-0.13
				c0.5,0,0.83,0.17,0.99,0.51h0.05c0.1-0.16,0.23-0.29,0.4-0.38s0.37-0.13,0.6-0.13c0.39,0,0.67,0.1,0.85,0.29s0.27,0.49,0.27,0.89
				v2.11h-0.69v-2c0-0.25-0.05-0.43-0.14-0.56s-0.24-0.18-0.44-0.18c-0.27,0-0.46,0.08-0.59,0.25s-0.19,0.42-0.19,0.77V53.39z"/>
			<path class="st1" d="M71.53,53.39l-0.14-0.45h-0.02c-0.16,0.2-0.31,0.33-0.47,0.4s-0.36,0.11-0.61,0.11
				c-0.32,0-0.57-0.09-0.75-0.26s-0.27-0.42-0.27-0.73c0-0.33,0.12-0.59,0.37-0.76s0.63-0.26,1.13-0.28l0.56-0.02v-0.17
				c0-0.21-0.05-0.36-0.15-0.46c-0.1-0.1-0.25-0.15-0.45-0.15c-0.17,0-0.33,0.02-0.48,0.07s-0.3,0.11-0.44,0.17l-0.22-0.49
				c0.18-0.09,0.37-0.16,0.58-0.21s0.41-0.07,0.59-0.07c0.41,0,0.72,0.09,0.93,0.27c0.21,0.18,0.31,0.46,0.31,0.85v2.18H71.53z
				 M70.5,52.92c0.25,0,0.45-0.07,0.6-0.21s0.23-0.34,0.23-0.59v-0.28l-0.42,0.02c-0.32,0.01-0.56,0.07-0.71,0.16
				s-0.22,0.24-0.22,0.44c0,0.14,0.04,0.26,0.13,0.34S70.33,52.92,70.5,52.92z"/>
			<path class="st1" d="M75.83,53.39h-0.69v-1.99c0-0.25-0.05-0.44-0.15-0.56s-0.26-0.18-0.48-0.18c-0.29,0-0.5,0.09-0.64,0.26
				s-0.2,0.46-0.2,0.86v1.61h-0.69v-3.24h0.54l0.1,0.42h0.04c0.1-0.15,0.24-0.27,0.42-0.36s0.38-0.13,0.6-0.13
				c0.78,0,1.17,0.4,1.17,1.19V53.39z"/>
			<path class="st1" d="M78.81,53.39l-0.14-0.45h-0.02c-0.16,0.2-0.31,0.33-0.47,0.4s-0.36,0.11-0.61,0.11
				c-0.32,0-0.57-0.09-0.75-0.26c-0.18-0.17-0.27-0.42-0.27-0.73c0-0.33,0.12-0.59,0.37-0.76s0.63-0.26,1.13-0.28l0.56-0.02v-0.17
				c0-0.21-0.05-0.36-0.15-0.46c-0.1-0.1-0.25-0.15-0.45-0.15c-0.17,0-0.33,0.02-0.48,0.07s-0.3,0.11-0.44,0.17l-0.22-0.49
				c0.18-0.09,0.37-0.16,0.58-0.21s0.41-0.07,0.59-0.07c0.41,0,0.72,0.09,0.93,0.27c0.21,0.18,0.31,0.46,0.31,0.85v2.18H78.81z
				 M77.79,52.92c0.25,0,0.45-0.07,0.6-0.21s0.23-0.34,0.23-0.59v-0.28l-0.42,0.02c-0.32,0.01-0.56,0.07-0.71,0.16
				s-0.22,0.24-0.22,0.44c0,0.14,0.04,0.26,0.13,0.34S77.62,52.92,77.79,52.92z"/>
			<path class="st1" d="M83,50.15v0.38l-0.55,0.1c0.05,0.07,0.09,0.15,0.13,0.25s0.05,0.21,0.05,0.32c0,0.33-0.12,0.6-0.35,0.79
				s-0.55,0.29-0.95,0.29c-0.1,0-0.2-0.01-0.28-0.02c-0.15,0.09-0.22,0.2-0.22,0.32c0,0.07,0.03,0.13,0.1,0.17s0.2,0.06,0.38,0.06
				h0.57c0.36,0,0.63,0.08,0.81,0.23s0.28,0.37,0.28,0.66c0,0.37-0.15,0.65-0.45,0.85s-0.74,0.3-1.31,0.3
				c-0.44,0-0.78-0.08-1.01-0.23s-0.35-0.38-0.35-0.67c0-0.2,0.06-0.37,0.19-0.5c0.13-0.14,0.3-0.23,0.53-0.28
				c-0.09-0.04-0.17-0.1-0.23-0.19c-0.06-0.09-0.09-0.18-0.09-0.27c0-0.12,0.03-0.22,0.1-0.31s0.17-0.17,0.3-0.25
				c-0.17-0.07-0.3-0.19-0.41-0.35s-0.16-0.35-0.16-0.57c0-0.35,0.11-0.62,0.33-0.82s0.54-0.29,0.95-0.29
				c0.09,0,0.19,0.01,0.29,0.02s0.18,0.03,0.23,0.04H83z M80.46,53.89c0,0.15,0.07,0.26,0.2,0.34s0.32,0.12,0.56,0.12
				c0.38,0,0.65-0.05,0.84-0.16s0.28-0.25,0.28-0.43c0-0.14-0.05-0.24-0.15-0.3c-0.1-0.06-0.29-0.09-0.56-0.09H81.1
				c-0.2,0-0.35,0.05-0.47,0.14C80.52,53.61,80.46,53.73,80.46,53.89z M80.75,51.19c0,0.2,0.05,0.36,0.16,0.47s0.25,0.16,0.45,0.16
				c0.4,0,0.6-0.21,0.6-0.64c0-0.21-0.05-0.37-0.15-0.49c-0.1-0.11-0.25-0.17-0.45-0.17c-0.2,0-0.35,0.06-0.45,0.17
				C80.8,50.81,80.75,50.98,80.75,51.19z"/>
			<path class="st1" d="M85.02,53.44c-0.5,0-0.9-0.15-1.18-0.44c-0.28-0.29-0.43-0.7-0.43-1.21c0-0.53,0.13-0.95,0.4-1.25
				s0.63-0.45,1.09-0.45c0.43,0,0.77,0.13,1.01,0.39s0.37,0.62,0.37,1.07v0.37h-2.16c0.01,0.31,0.09,0.56,0.25,0.73
				s0.39,0.25,0.68,0.25c0.19,0,0.37-0.02,0.54-0.05c0.16-0.04,0.34-0.1,0.53-0.18v0.56c-0.17,0.08-0.34,0.14-0.51,0.17
				S85.24,53.44,85.02,53.44z M84.89,50.61c-0.22,0-0.39,0.07-0.53,0.21c-0.13,0.14-0.21,0.34-0.24,0.61h1.47
				c0-0.27-0.07-0.47-0.19-0.61S85.11,50.61,84.89,50.61z"/>
			<path class="st1" d="M26.95,60.09c0.17,0,0.34-0.03,0.5-0.08v0.52c-0.08,0.03-0.17,0.06-0.29,0.08s-0.24,0.03-0.37,0.03
				c-0.65,0-0.98-0.34-0.98-1.03v-1.75h-0.44v-0.3l0.47-0.25l0.23-0.69h0.42v0.72h0.92v0.52H26.5v1.73c0,0.17,0.04,0.29,0.12,0.37
				S26.82,60.09,26.95,60.09z"/>
			<path class="st1" d="M30.98,58.96c0,0.53-0.14,0.94-0.41,1.24s-0.65,0.45-1.13,0.45c-0.3,0-0.57-0.07-0.8-0.21
				s-0.41-0.33-0.54-0.59s-0.19-0.55-0.19-0.89c0-0.53,0.13-0.94,0.4-1.23s0.65-0.44,1.14-0.44c0.47,0,0.84,0.15,1.11,0.45
				S30.98,58.45,30.98,58.96z M28.62,58.96c0,0.75,0.28,1.12,0.83,1.12c0.55,0,0.82-0.37,0.82-1.12c0-0.74-0.28-1.11-0.83-1.11
				c-0.29,0-0.5,0.1-0.63,0.29S28.62,58.6,28.62,58.96z"/>
			<path class="st1" d="M36.06,57.35v0.38l-0.55,0.1c0.05,0.07,0.09,0.15,0.13,0.25s0.05,0.21,0.05,0.32c0,0.33-0.12,0.6-0.35,0.79
				s-0.55,0.29-0.95,0.29c-0.1,0-0.2-0.01-0.28-0.02c-0.15,0.09-0.22,0.2-0.22,0.32c0,0.07,0.03,0.13,0.1,0.17s0.2,0.06,0.38,0.06
				h0.57c0.36,0,0.63,0.08,0.81,0.23s0.28,0.37,0.28,0.66c0,0.37-0.15,0.65-0.45,0.85s-0.74,0.3-1.31,0.3
				c-0.44,0-0.78-0.08-1.01-0.23s-0.35-0.38-0.35-0.67c0-0.2,0.06-0.37,0.19-0.5s0.3-0.23,0.53-0.28c-0.09-0.04-0.17-0.1-0.23-0.19
				s-0.09-0.18-0.09-0.27c0-0.12,0.03-0.22,0.1-0.31s0.17-0.17,0.3-0.25c-0.17-0.07-0.3-0.19-0.41-0.35s-0.16-0.35-0.16-0.57
				c0-0.35,0.11-0.62,0.33-0.82s0.54-0.29,0.95-0.29c0.09,0,0.19,0.01,0.29,0.02s0.18,0.03,0.23,0.04H36.06z M33.52,61.09
				c0,0.15,0.07,0.26,0.2,0.34s0.32,0.12,0.56,0.12c0.38,0,0.65-0.05,0.84-0.16s0.28-0.25,0.28-0.43c0-0.14-0.05-0.24-0.15-0.3
				s-0.29-0.09-0.56-0.09h-0.52c-0.2,0-0.35,0.05-0.47,0.14S33.52,60.93,33.52,61.09z M33.81,58.39c0,0.2,0.05,0.36,0.16,0.47
				s0.25,0.16,0.45,0.16c0.4,0,0.6-0.21,0.6-0.64c0-0.21-0.05-0.37-0.15-0.49s-0.25-0.17-0.45-0.17c-0.2,0-0.35,0.06-0.45,0.17
				S33.81,58.18,33.81,58.39z"/>
			<path class="st1" d="M38.08,60.64c-0.5,0-0.9-0.15-1.18-0.44s-0.43-0.7-0.43-1.21c0-0.53,0.13-0.95,0.4-1.25s0.63-0.45,1.09-0.45
				c0.43,0,0.77,0.13,1.01,0.39s0.37,0.62,0.37,1.07v0.37h-2.16c0.01,0.31,0.09,0.56,0.25,0.73s0.39,0.25,0.68,0.25
				c0.19,0,0.37-0.02,0.53-0.05s0.34-0.1,0.53-0.18v0.56c-0.17,0.08-0.34,0.14-0.51,0.17S38.3,60.64,38.08,60.64z M37.95,57.81
				c-0.22,0-0.39,0.07-0.53,0.21s-0.21,0.34-0.24,0.61h1.47c0-0.27-0.07-0.47-0.19-0.61S38.17,57.81,37.95,57.81z"/>
			<path class="st1" d="M41.33,60.09c0.17,0,0.34-0.03,0.5-0.08v0.52c-0.08,0.03-0.17,0.06-0.29,0.08s-0.24,0.03-0.37,0.03
				c-0.65,0-0.98-0.34-0.98-1.03v-1.75h-0.44v-0.3l0.47-0.25l0.23-0.69h0.42v0.72h0.92v0.52h-0.92v1.73c0,0.17,0.04,0.29,0.12,0.37
				S41.19,60.09,41.33,60.09z"/>
			<path class="st1" d="M45.25,60.09c0.17,0,0.34-0.03,0.5-0.08v0.52c-0.08,0.03-0.17,0.06-0.29,0.08s-0.24,0.03-0.37,0.03
				c-0.65,0-0.98-0.34-0.98-1.03v-1.75h-0.44v-0.3l0.47-0.25l0.23-0.69h0.42v0.72h0.92v0.52h-0.92v1.73c0,0.17,0.04,0.29,0.12,0.37
				S45.11,60.09,45.25,60.09z"/>
			<path class="st1" d="M49.25,60.59h-0.69v-1.99c0-0.25-0.05-0.44-0.15-0.56s-0.26-0.18-0.48-0.18c-0.29,0-0.5,0.09-0.64,0.26
				s-0.2,0.46-0.2,0.87v1.61H46.4v-4.56h0.69v1.16c0,0.19-0.01,0.38-0.04,0.59h0.04c0.09-0.16,0.22-0.28,0.39-0.36
				s0.36-0.13,0.58-0.13c0.79,0,1.18,0.4,1.18,1.19V60.59z"/>
			<path class="st1" d="M51.62,60.64c-0.5,0-0.9-0.15-1.18-0.44s-0.43-0.7-0.43-1.21c0-0.53,0.13-0.95,0.4-1.25s0.63-0.45,1.09-0.45
				c0.43,0,0.77,0.13,1.01,0.39s0.37,0.62,0.37,1.07v0.37h-2.16c0.01,0.31,0.09,0.56,0.25,0.73s0.39,0.25,0.68,0.25
				c0.19,0,0.37-0.02,0.53-0.05s0.34-0.1,0.53-0.18v0.56c-0.17,0.08-0.34,0.14-0.51,0.17S51.84,60.64,51.62,60.64z M51.5,57.81
				c-0.22,0-0.39,0.07-0.53,0.21s-0.21,0.34-0.24,0.61h1.47c0-0.27-0.07-0.47-0.19-0.61S51.71,57.81,51.5,57.81z"/>
			<path class="st1" d="M56.88,57.29c0.4,0,0.72,0.15,0.94,0.44s0.34,0.7,0.34,1.23c0,0.53-0.11,0.94-0.34,1.24
				s-0.55,0.44-0.95,0.44c-0.41,0-0.73-0.15-0.96-0.44h-0.05l-0.13,0.38h-0.52v-4.56h0.69v1.08c0,0.08,0,0.2-0.01,0.36
				s-0.01,0.26-0.02,0.3h0.03C56.13,57.45,56.45,57.29,56.88,57.29z M56.7,57.85c-0.28,0-0.48,0.08-0.6,0.24s-0.19,0.44-0.19,0.82
				v0.05c0,0.39,0.06,0.68,0.19,0.86s0.33,0.27,0.61,0.27c0.24,0,0.43-0.1,0.56-0.29s0.19-0.47,0.19-0.84
				C57.45,58.22,57.2,57.85,56.7,57.85z"/>
			<path class="st1" d="M61.25,60.59l-0.1-0.42h-0.04c-0.1,0.15-0.23,0.27-0.41,0.35s-0.38,0.13-0.6,0.13
				c-0.39,0-0.69-0.1-0.88-0.29s-0.29-0.49-0.29-0.89v-2.12h0.69v2c0,0.25,0.05,0.43,0.15,0.56s0.26,0.19,0.48,0.19
				c0.29,0,0.5-0.09,0.64-0.26s0.2-0.46,0.2-0.87v-1.61h0.69v3.24H61.25z"/>
			<path class="st1" d="M64.41,57.29c0.14,0,0.25,0.01,0.34,0.03l-0.07,0.64c-0.1-0.02-0.2-0.04-0.3-0.04
				c-0.28,0-0.5,0.09-0.67,0.27s-0.26,0.41-0.26,0.7v1.69h-0.69v-3.24h0.54l0.09,0.57h0.04c0.11-0.19,0.25-0.35,0.42-0.46
				C64.03,57.34,64.21,57.29,64.41,57.29z"/>
			<path class="st1" d="M67,57.29c0.14,0,0.25,0.01,0.34,0.03l-0.07,0.64c-0.1-0.02-0.2-0.04-0.3-0.04c-0.28,0-0.5,0.09-0.67,0.27
				s-0.26,0.41-0.26,0.7v1.69h-0.69v-3.24h0.54l0.09,0.57h0.04c0.11-0.19,0.25-0.35,0.42-0.46S66.8,57.29,67,57.29z"/>
			<path class="st1" d="M67.9,56.49c0-0.12,0.03-0.22,0.1-0.28s0.16-0.1,0.29-0.1c0.12,0,0.22,0.03,0.28,0.1s0.1,0.16,0.1,0.28
				c0,0.12-0.03,0.21-0.1,0.28s-0.16,0.1-0.28,0.1c-0.12,0-0.22-0.03-0.29-0.1S67.9,56.6,67.9,56.49z M68.63,60.59h-0.69v-3.24h0.69
				V60.59z"/>
			<path class="st1" d="M70.82,60.09c0.17,0,0.34-0.03,0.5-0.08v0.52c-0.08,0.03-0.17,0.06-0.29,0.08
				c-0.12,0.02-0.25,0.03-0.37,0.03c-0.65,0-0.98-0.34-0.98-1.03v-1.75h-0.44v-0.3l0.47-0.25l0.23-0.69h0.42v0.72h0.92v0.52h-0.92
				v1.73c0,0.17,0.04,0.29,0.12,0.37S70.69,60.09,70.82,60.09z"/>
			<path class="st1" d="M74.85,58.96c0,0.53-0.14,0.94-0.41,1.24s-0.65,0.45-1.13,0.45c-0.3,0-0.57-0.07-0.8-0.21
				s-0.41-0.33-0.54-0.59s-0.19-0.55-0.19-0.89c0-0.53,0.13-0.94,0.4-1.23s0.65-0.44,1.14-0.44c0.47,0,0.84,0.15,1.11,0.45
				S74.85,58.45,74.85,58.96z M72.49,58.96c0,0.75,0.28,1.12,0.83,1.12c0.55,0,0.82-0.37,0.82-1.12c0-0.74-0.28-1.11-0.83-1.11
				c-0.29,0-0.5,0.1-0.63,0.29C72.55,58.33,72.49,58.6,72.49,58.96z"/>
			<path class="st1" d="M77.82,59.66c0,0.32-0.12,0.56-0.35,0.73s-0.56,0.25-0.99,0.25c-0.43,0-0.78-0.07-1.04-0.2v-0.59
				c0.38,0.18,0.74,0.26,1.06,0.26c0.42,0,0.64-0.13,0.64-0.38c0-0.08-0.02-0.15-0.07-0.21s-0.12-0.11-0.23-0.17
				s-0.26-0.12-0.45-0.2c-0.37-0.14-0.62-0.29-0.76-0.43c-0.13-0.14-0.2-0.33-0.2-0.56c0-0.28,0.11-0.49,0.34-0.65
				c0.22-0.15,0.53-0.23,0.91-0.23c0.38,0,0.74,0.08,1.08,0.23l-0.22,0.52c-0.35-0.14-0.64-0.22-0.88-0.22
				c-0.36,0-0.54,0.1-0.54,0.31c0,0.1,0.05,0.19,0.14,0.26c0.09,0.07,0.3,0.17,0.62,0.29c0.27,0.1,0.46,0.2,0.58,0.28
				s0.21,0.19,0.27,0.3S77.82,59.51,77.82,59.66z"/>
			<path class="st1" d="M78.9,59.28V59.1c0-0.21,0.04-0.39,0.12-0.54s0.21-0.29,0.41-0.44c0.23-0.18,0.38-0.33,0.45-0.43
				c0.07-0.1,0.1-0.22,0.1-0.36c0-0.16-0.05-0.29-0.16-0.38s-0.27-0.13-0.47-0.13c-0.19,0-0.36,0.03-0.52,0.08s-0.31,0.12-0.46,0.19
				l-0.25-0.52c0.4-0.22,0.82-0.33,1.27-0.33c0.38,0,0.69,0.09,0.91,0.28s0.34,0.45,0.34,0.78c0,0.15-0.02,0.28-0.06,0.39
				s-0.11,0.22-0.19,0.33c-0.09,0.1-0.24,0.24-0.45,0.4c-0.18,0.14-0.3,0.26-0.36,0.35c-0.06,0.09-0.09,0.22-0.09,0.38v0.13H78.9z
				 M78.78,60.22c0-0.29,0.14-0.44,0.43-0.44c0.14,0,0.25,0.04,0.32,0.12s0.11,0.19,0.11,0.33c0,0.14-0.04,0.25-0.11,0.33
				c-0.08,0.08-0.18,0.12-0.32,0.12s-0.25-0.04-0.32-0.12S78.78,60.36,78.78,60.22z"/>
		</g>
	</g>
</g>
<g>
	<g>
		<g>
			<circle class="st6" cx="13.19" cy="121.53" r="6"/>
		</g>
		<g>
			<g>
				<g>
					<g>
						<defs>
							<path id="SVGID_1_" d="M15.43,124.83h-1.02l-0.97-3.41c-0.04-0.15-0.09-0.36-0.16-0.64s-0.1-0.47-0.11-0.58
								c-0.03,0.17-0.07,0.38-0.13,0.65s-0.11,0.46-0.15,0.59l-0.95,3.39h-1.02l-0.74-2.86l-0.75-2.85h0.95l0.82,3.33
								c0.13,0.53,0.22,1.01,0.27,1.41c0.03-0.22,0.07-0.47,0.13-0.74s0.11-0.49,0.16-0.66l0.93-3.34h0.93l0.95,3.35
								c0.09,0.31,0.19,0.77,0.29,1.39c0.04-0.37,0.13-0.85,0.28-1.42l0.81-3.32h0.95L15.43,124.83z"/>
						</defs>
						<clipPath id="SVGID_2_">
							<use xlink:href="#SVGID_1_"  style="overflow:visible;"/>
						</clipPath>
						<rect x="9.46" y="119.12" class="st10" width="0.04" height="5.71"/>
						<rect x="9.5" y="119.12" class="st11" width="0.04" height="5.71"/>
						<rect x="9.54" y="119.12" class="st12" width="0.04" height="5.71"/>
						<rect x="9.59" y="119.12" class="st13" width="0.04" height="5.71"/>
						<rect x="9.63" y="119.12" class="st14" width="0.04" height="5.71"/>
						<rect x="9.67" y="119.12" class="st15" width="0.04" height="5.71"/>
						<rect x="9.72" y="119.12" class="st16" width="0.04" height="5.71"/>
						<rect x="9.76" y="119.12" class="st17" width="0.04" height="5.71"/>
						<rect x="9.81" y="119.12" class="st18" width="0.04" height="5.71"/>
						<rect x="9.85" y="119.12" class="st19" width="0.04" height="5.71"/>
						<rect x="9.9" y="119.12" class="st20" width="0.04" height="5.71"/>
						<rect x="9.94" y="119.12" class="st21" width="0.04" height="5.71"/>
						<rect x="9.98" y="119.12" class="st22" width="0.04" height="5.71"/>
						<rect x="10.03" y="119.12" class="st23" width="0.04" height="5.71"/>
						<rect x="10.07" y="119.12" class="st24" width="0.04" height="5.71"/>
						<rect x="10.12" y="119.12" class="st25" width="0.04" height="5.71"/>
						<rect x="10.16" y="119.12" class="st26" width="0.04" height="5.71"/>
						<rect x="10.2" y="119.12" class="st27" width="0.04" height="5.71"/>
						<rect x="10.25" y="119.12" class="st28" width="0.04" height="5.71"/>
						<rect x="10.29" y="119.12" class="st29" width="0.04" height="5.71"/>
						<rect x="10.34" y="119.12" class="st30" width="0.04" height="5.71"/>
						<rect x="10.38" y="119.12" class="st31" width="0.04" height="5.71"/>
						<rect x="10.42" y="119.12" class="st32" width="0.04" height="5.71"/>
						<rect x="10.47" y="119.12" class="st33" width="0.04" height="5.71"/>
						<rect x="10.51" y="119.12" class="st34" width="0.04" height="5.71"/>
						<rect x="10.56" y="119.12" class="st35" width="0.04" height="5.71"/>
						<rect x="10.6" y="119.12" class="st36" width="0.04" height="5.71"/>
						<rect x="10.65" y="119.12" class="st37" width="0.04" height="5.71"/>
						<rect x="10.69" y="119.12" class="st38" width="0.04" height="5.71"/>
						<rect x="10.73" y="119.12" class="st39" width="0.04" height="5.71"/>
						<rect x="10.78" y="119.12" class="st40" width="0.04" height="5.71"/>
						<rect x="10.82" y="119.12" class="st41" width="0.04" height="5.71"/>
						<rect x="10.87" y="119.12" class="st42" width="0.04" height="5.71"/>
						<rect x="10.91" y="119.12" class="st43" width="0.04" height="5.71"/>
						<rect x="10.95" y="119.12" class="st44" width="0.04" height="5.71"/>
						<rect x="11" y="119.12" class="st45" width="0.04" height="5.71"/>
						<rect x="11.04" y="119.12" class="st46" width="0.04" height="5.71"/>
						<rect x="11.09" y="119.12" class="st47" width="0.04" height="5.71"/>
						<rect x="11.13" y="119.12" class="st48" width="0.04" height="5.71"/>
						<rect x="11.17" y="119.12" class="st49" width="0.04" height="5.71"/>
						<rect x="11.22" y="119.12" class="st50" width="0.04" height="5.71"/>
						<rect x="11.26" y="119.12" class="st51" width="0.04" height="5.71"/>
						<rect x="11.31" y="119.12" class="st52" width="0.04" height="5.71"/>
						<rect x="11.35" y="119.12" class="st53" width="0.04" height="5.71"/>
						<rect x="11.4" y="119.12" class="st54" width="0.04" height="5.71"/>
						<rect x="11.44" y="119.12" class="st55" width="0.04" height="5.71"/>
						<rect x="11.48" y="119.12" class="st56" width="0.04" height="5.71"/>
						<rect x="11.53" y="119.12" class="st57" width="0.04" height="5.71"/>
						<rect x="11.57" y="119.12" class="st58" width="0.04" height="5.71"/>
						<rect x="11.62" y="119.12" class="st59" width="0.04" height="5.71"/>
						<rect x="11.66" y="119.12" class="st60" width="0.04" height="5.71"/>
						<rect x="11.7" y="119.12" class="st61" width="0.04" height="5.71"/>
						<rect x="11.75" y="119.12" class="st62" width="0.04" height="5.71"/>
						<rect x="11.79" y="119.12" class="st63" width="0.04" height="5.71"/>
						<rect x="11.84" y="119.12" class="st64" width="0.04" height="5.71"/>
						<rect x="11.88" y="119.12" class="st65" width="0.04" height="5.71"/>
						<rect x="11.93" y="119.12" class="st66" width="0.04" height="5.71"/>
						<rect x="11.97" y="119.12" class="st67" width="0.04" height="5.71"/>
						<rect x="12.01" y="119.12" class="st68" width="0.04" height="5.71"/>
						<rect x="12.06" y="119.12" class="st69" width="0.04" height="5.71"/>
						<rect x="12.1" y="119.12" class="st70" width="0.04" height="5.71"/>
						<rect x="12.15" y="119.12" class="st71" width="0.04" height="5.71"/>
						<rect x="12.19" y="119.12" class="st72" width="0.04" height="5.71"/>
						<rect x="12.23" y="119.12" class="st73" width="0.04" height="5.71"/>
						<rect x="12.28" y="119.12" class="st74" width="0.04" height="5.71"/>
						<rect x="12.32" y="119.12" class="st75" width="0.04" height="5.71"/>
						<rect x="12.37" y="119.12" class="st76" width="0.04" height="5.71"/>
						<rect x="12.41" y="119.12" class="st77" width="0.04" height="5.71"/>
						<rect x="12.45" y="119.12" class="st78" width="0.04" height="5.71"/>
						<rect x="12.5" y="119.12" class="st79" width="0.04" height="5.71"/>
						<rect x="12.54" y="119.12" class="st80" width="0.04" height="5.71"/>
						<rect x="12.59" y="119.12" class="st81" width="0.04" height="5.71"/>
						<rect x="12.63" y="119.12" class="st82" width="0.04" height="5.71"/>
						<rect x="12.68" y="119.12" class="st83" width="0.04" height="5.71"/>
						<rect x="12.72" y="119.12" class="st84" width="0.04" height="5.71"/>
						<rect x="12.76" y="119.12" class="st85" width="0.04" height="5.71"/>
						<rect x="12.81" y="119.12" class="st86" width="0.04" height="5.71"/>
						<rect x="12.85" y="119.12" class="st87" width="0.04" height="5.71"/>
						<rect x="12.9" y="119.12" class="st88" width="0.04" height="5.71"/>
						<rect x="12.94" y="119.12" class="st89" width="0.04" height="5.71"/>
						<rect x="12.98" y="119.12" class="st90" width="0.04" height="5.71"/>
						<rect x="13.03" y="119.12" class="st91" width="0.04" height="5.71"/>
						<rect x="13.07" y="119.12" class="st92" width="0.04" height="5.71"/>
						<rect x="13.12" y="119.12" class="st93" width="0.04" height="5.71"/>
						<rect x="13.16" y="119.12" class="st94" width="0.04" height="5.71"/>
						<rect x="13.21" y="119.12" class="st95" width="0.04" height="5.71"/>
						<rect x="13.25" y="119.12" class="st96" width="0.04" height="5.71"/>
						<rect x="13.29" y="119.12" class="st97" width="0.04" height="5.71"/>
						<rect x="13.34" y="119.12" class="st98" width="0.04" height="5.71"/>
						<rect x="13.38" y="119.12" class="st99" width="0.04" height="5.71"/>
						<rect x="13.43" y="119.12" class="st100" width="0.04" height="5.71"/>
						<rect x="13.47" y="119.12" class="st101" width="0.04" height="5.71"/>
						<rect x="13.51" y="119.12" class="st102" width="0.04" height="5.71"/>
						<rect x="13.56" y="119.12" class="st103" width="0.04" height="5.71"/>
						<rect x="13.6" y="119.12" class="st104" width="0.04" height="5.71"/>
						<rect x="13.65" y="119.12" class="st105" width="0.04" height="5.71"/>
						<rect x="13.69" y="119.12" class="st106" width="0.04" height="5.71"/>
						<rect x="13.73" y="119.12" class="st107" width="0.04" height="5.71"/>
						<rect x="13.78" y="119.12" class="st108" width="0.04" height="5.71"/>
						<rect x="13.82" y="119.12" class="st109" width="0.04" height="5.71"/>
						<rect x="13.87" y="119.12" class="st110" width="0.04" height="5.71"/>
						<rect x="13.91" y="119.12" class="st111" width="0.04" height="5.71"/>
						<rect x="13.96" y="119.12" class="st112" width="0.04" height="5.71"/>
						<rect x="14" y="119.12" class="st113" width="0.04" height="5.71"/>
						<rect x="14.04" y="119.12" class="st114" width="0.04" height="5.71"/>
						<rect x="14.09" y="119.12" class="st115" width="0.04" height="5.71"/>
						<rect x="14.13" y="119.12" class="st116" width="0.04" height="5.71"/>
						<rect x="14.18" y="119.12" class="st117" width="0.04" height="5.71"/>
						<rect x="14.22" y="119.12" class="st118" width="0.04" height="5.71"/>
						<rect x="14.26" y="119.12" class="st119" width="0.04" height="5.71"/>
						<rect x="14.31" y="119.12" class="st120" width="0.04" height="5.71"/>
						<rect x="14.35" y="119.12" class="st121" width="0.04" height="5.71"/>
						<rect x="14.4" y="119.12" class="st122" width="0.04" height="5.71"/>
						<rect x="14.44" y="119.12" class="st123" width="0.04" height="5.71"/>
						<rect x="14.49" y="119.12" class="st124" width="0.04" height="5.71"/>
						<rect x="14.53" y="119.12" class="st125" width="0.04" height="5.71"/>
						<rect x="14.57" y="119.12" class="st126" width="0.04" height="5.71"/>
						<rect x="14.62" y="119.12" class="st127" width="0.04" height="5.71"/>
						<rect x="14.66" y="119.12" class="st128" width="0.04" height="5.71"/>
						<rect x="14.71" y="119.12" class="st129" width="0.04" height="5.71"/>
						<rect x="14.75" y="119.12" class="st130" width="0.04" height="5.71"/>
						<rect x="14.79" y="119.12" class="st131" width="0.04" height="5.71"/>
						<rect x="14.84" y="119.12" class="st132" width="0.04" height="5.71"/>
						<rect x="14.88" y="119.12" class="st133" width="0.04" height="5.71"/>
						<rect x="14.93" y="119.12" class="st134" width="0.04" height="5.71"/>
						<rect x="14.97" y="119.12" class="st135" width="0.04" height="5.71"/>
						<rect x="15.01" y="119.12" class="st136" width="0.04" height="5.71"/>
						<rect x="15.06" y="119.12" class="st137" width="0.04" height="5.71"/>
						<rect x="15.1" y="119.12" class="st138" width="0.04" height="5.71"/>
						<rect x="15.15" y="119.12" class="st139" width="0.04" height="5.71"/>
						<rect x="15.19" y="119.12" class="st140" width="0.04" height="5.71"/>
						<rect x="15.24" y="119.12" class="st141" width="0.04" height="5.71"/>
						<rect x="15.28" y="119.12" class="st142" width="0.04" height="5.71"/>
						<rect x="15.32" y="119.12" class="st143" width="0.04" height="5.71"/>
						<rect x="15.37" y="119.12" class="st144" width="0.04" height="5.71"/>
						<rect x="15.41" y="119.12" class="st145" width="0.04" height="5.71"/>
						<rect x="15.46" y="119.12" class="st146" width="0.04" height="5.71"/>
						<rect x="15.5" y="119.12" class="st147" width="0.04" height="5.71"/>
						<rect x="15.54" y="119.12" class="st148" width="0.04" height="5.71"/>
						<rect x="15.59" y="119.12" class="st149" width="0.04" height="5.71"/>
						<rect x="15.63" y="119.12" class="st150" width="0.04" height="5.71"/>
						<rect x="15.68" y="119.12" class="st151" width="0.04" height="5.71"/>
						<rect x="15.72" y="119.12" class="st152" width="0.04" height="5.71"/>
						<rect x="15.77" y="119.12" class="st153" width="0.04" height="5.71"/>
						<rect x="15.81" y="119.12" class="st154" width="0.04" height="5.71"/>
						<rect x="15.85" y="119.12" class="st155" width="0.04" height="5.71"/>
						<rect x="15.9" y="119.12" class="st156" width="0.04" height="5.71"/>
						<rect x="15.94" y="119.12" class="st157" width="0.04" height="5.71"/>
						<rect x="15.99" y="119.12" class="st158" width="0.04" height="5.71"/>
						<rect x="16.03" y="119.12" class="st159" width="0.04" height="5.71"/>
						<rect x="16.07" y="119.12" class="st160" width="0.04" height="5.71"/>
						<rect x="16.12" y="119.12" class="st161" width="0.04" height="5.71"/>
						<rect x="16.16" y="119.12" class="st162" width="0.04" height="5.71"/>
						<rect x="16.21" y="119.12" class="st163" width="0.04" height="5.71"/>
						<rect x="16.25" y="119.12" class="st164" width="0.04" height="5.71"/>
						<rect x="16.29" y="119.12" class="st165" width="0.04" height="5.71"/>
						<rect x="16.34" y="119.12" class="st166" width="0.04" height="5.71"/>
						<rect x="16.38" y="119.12" class="st167" width="0.04" height="5.71"/>
						<rect x="16.43" y="119.12" class="st168" width="0.04" height="5.71"/>
						<rect x="16.47" y="119.12" class="st169" width="0.04" height="5.71"/>
						<rect x="16.52" y="119.12" class="st170" width="0.04" height="5.71"/>
						<rect x="16.56" y="119.12" class="st171" width="0.04" height="5.71"/>
						<rect x="16.6" y="119.12" class="st172" width="0.04" height="5.71"/>
						<rect x="16.65" y="119.12" class="st173" width="0.04" height="5.71"/>
						<rect x="16.69" y="119.12" class="st174" width="0.04" height="5.71"/>
						<rect x="16.74" y="119.12" class="st175" width="0.04" height="5.71"/>
						<rect x="16.78" y="119.12" class="st176" width="0.04" height="5.71"/>
						<rect x="16.82" y="119.12" class="st177" width="0.04" height="5.71"/>
						<rect x="16.87" y="119.12" class="st178" width="0.04" height="5.71"/>
						<rect x="16.91" y="119.12" class="st179" width="0.01" height="5.71"/>
					</g>
				</g>
			</g>
			<g>
				<path class="st1" d="M15.43,124.83h-1.02l-0.97-3.41c-0.04-0.15-0.09-0.36-0.16-0.64s-0.1-0.47-0.11-0.58
					c-0.03,0.17-0.07,0.38-0.13,0.65s-0.11,0.46-0.15,0.59l-0.95,3.39h-1.02l-0.74-2.86l-0.75-2.85h0.95l0.82,3.33
					c0.13,0.53,0.22,1.01,0.27,1.41c0.03-0.22,0.07-0.47,0.13-0.74s0.11-0.49,0.16-0.66l0.93-3.34h0.93l0.95,3.35
					c0.09,0.31,0.19,0.77,0.29,1.39c0.04-0.37,0.13-0.85,0.28-1.42l0.81-3.32h0.95L15.43,124.83z"/>
			</g>
		</g>
	</g>
	<g>
		<g>
			<path class="st6" d="M23.28,106.73h66.24c1.15,0,2.09,0.94,2.09,2.09v16.62c0,1.15-0.93,2.09-2.09,2.09H17.25
				c2.25-1,3.94-2.69,3.94-6v-12.71C21.19,107.66,22.13,106.73,23.28,106.73z"/>
		</g>
		<g>
			<path class="st1" d="M27.64,111.3c-0.4,0-0.72,0.14-0.95,0.43s-0.35,0.68-0.35,1.18c0,0.53,0.11,0.92,0.33,1.19
				s0.54,0.4,0.96,0.4c0.18,0,0.36-0.02,0.53-0.05s0.35-0.08,0.53-0.14v0.6c-0.34,0.13-0.72,0.19-1.14,0.19
				c-0.63,0-1.11-0.19-1.44-0.57s-0.5-0.92-0.5-1.63c0-0.45,0.08-0.83,0.24-1.17s0.4-0.59,0.71-0.77s0.67-0.27,1.09-0.27
				c0.44,0,0.84,0.09,1.21,0.28l-0.25,0.58c-0.14-0.07-0.3-0.13-0.46-0.18S27.82,111.3,27.64,111.3z"/>
			<path class="st1" d="M32.4,115.05h-0.69v-1.99c0-0.25-0.05-0.44-0.15-0.56s-0.26-0.18-0.48-0.18c-0.29,0-0.5,0.09-0.64,0.26
				s-0.2,0.46-0.2,0.87v1.61h-0.69v-4.56h0.69v1.16c0,0.19-0.01,0.38-0.04,0.59h0.04c0.09-0.16,0.22-0.28,0.39-0.36
				s0.36-0.13,0.58-0.13c0.79,0,1.18,0.4,1.18,1.19V115.05z"/>
			<path class="st1" d="M36.23,113.42c0,0.53-0.14,0.94-0.41,1.24s-0.65,0.45-1.13,0.45c-0.3,0-0.57-0.07-0.8-0.21
				s-0.41-0.33-0.54-0.59s-0.19-0.55-0.19-0.89c0-0.53,0.13-0.94,0.4-1.23s0.65-0.44,1.14-0.44c0.47,0,0.84,0.15,1.11,0.45
				S36.23,112.91,36.23,113.42z M33.87,113.42c0,0.75,0.28,1.12,0.83,1.12c0.55,0,0.82-0.37,0.82-1.12c0-0.74-0.28-1.11-0.83-1.11
				c-0.29,0-0.5,0.1-0.63,0.29S33.87,113.06,33.87,113.42z"/>
			<path class="st1" d="M38.33,115.11c-0.49,0-0.86-0.14-1.12-0.43s-0.38-0.7-0.38-1.23c0-0.54,0.13-0.96,0.4-1.26
				s0.65-0.44,1.16-0.44c0.34,0,0.65,0.06,0.92,0.19l-0.21,0.55c-0.29-0.11-0.53-0.17-0.72-0.17c-0.56,0-0.84,0.37-0.84,1.12
				c0,0.36,0.07,0.64,0.21,0.82s0.34,0.27,0.61,0.27c0.31,0,0.6-0.08,0.87-0.23v0.6c-0.12,0.07-0.25,0.12-0.39,0.16
				S38.53,115.11,38.33,115.11z"/>
			<path class="st1" d="M42.87,113.42c0,0.53-0.14,0.94-0.41,1.24s-0.65,0.45-1.13,0.45c-0.3,0-0.57-0.07-0.8-0.21
				s-0.41-0.33-0.54-0.59s-0.19-0.55-0.19-0.89c0-0.53,0.13-0.94,0.4-1.23s0.65-0.44,1.14-0.44c0.47,0,0.84,0.15,1.11,0.45
				S42.87,112.91,42.87,113.42z M40.51,113.42c0,0.75,0.28,1.12,0.83,1.12c0.55,0,0.82-0.37,0.82-1.12c0-0.74-0.28-1.11-0.83-1.11
				c-0.29,0-0.5,0.1-0.63,0.29S40.51,113.06,40.51,113.42z"/>
			<path class="st1" d="M44.35,115.05h-0.69v-4.56h0.69V115.05z"/>
			<path class="st1" d="M47.36,115.05l-0.14-0.45H47.2c-0.16,0.2-0.31,0.33-0.47,0.4s-0.36,0.11-0.61,0.11
				c-0.32,0-0.57-0.09-0.75-0.26s-0.27-0.42-0.27-0.73c0-0.33,0.12-0.59,0.37-0.76s0.63-0.26,1.13-0.28l0.56-0.02v-0.17
				c0-0.21-0.05-0.36-0.15-0.46s-0.25-0.15-0.45-0.15c-0.17,0-0.33,0.02-0.48,0.07s-0.3,0.11-0.44,0.17l-0.22-0.49
				c0.18-0.09,0.37-0.16,0.58-0.21s0.41-0.07,0.59-0.07c0.41,0,0.72,0.09,0.93,0.27s0.31,0.46,0.31,0.85v2.18H47.36z M46.33,114.58
				c0.25,0,0.45-0.07,0.6-0.21s0.23-0.34,0.23-0.59v-0.28l-0.42,0.02c-0.32,0.01-0.56,0.07-0.71,0.16s-0.22,0.24-0.22,0.44
				c0,0.14,0.04,0.26,0.13,0.34S46.16,114.58,46.33,114.58z"/>
			<path class="st1" d="M50.02,114.55c0.17,0,0.34-0.03,0.5-0.08v0.52c-0.08,0.03-0.17,0.06-0.29,0.08s-0.24,0.03-0.37,0.03
				c-0.65,0-0.98-0.34-0.98-1.03v-1.75h-0.44v-0.3l0.47-0.25l0.23-0.69h0.42v0.72h0.92v0.52h-0.92v1.73c0,0.17,0.04,0.29,0.12,0.37
				S49.88,114.55,50.02,114.55z"/>
			<path class="st1" d="M52.58,115.11c-0.5,0-0.9-0.15-1.18-0.44s-0.43-0.7-0.43-1.21c0-0.53,0.13-0.95,0.4-1.25
				s0.63-0.45,1.09-0.45c0.43,0,0.77,0.13,1.01,0.39s0.37,0.62,0.37,1.07v0.37h-2.16c0.01,0.31,0.09,0.56,0.25,0.73
				s0.39,0.25,0.68,0.25c0.19,0,0.37-0.02,0.53-0.05s0.34-0.1,0.53-0.18v0.56c-0.17,0.08-0.34,0.14-0.51,0.17
				S52.81,115.11,52.58,115.11z M52.46,112.27c-0.22,0-0.39,0.07-0.53,0.21s-0.21,0.34-0.24,0.61h1.47c0-0.27-0.07-0.47-0.19-0.61
				S52.68,112.27,52.46,112.27z"/>
			<path class="st1" d="M57.49,115.11c-0.49,0-0.86-0.14-1.12-0.43s-0.38-0.7-0.38-1.23c0-0.54,0.13-0.96,0.4-1.26
				s0.65-0.44,1.16-0.44c0.34,0,0.65,0.06,0.92,0.19l-0.21,0.55c-0.29-0.11-0.53-0.17-0.72-0.17c-0.56,0-0.84,0.37-0.84,1.12
				c0,0.36,0.07,0.64,0.21,0.82s0.34,0.27,0.61,0.27c0.31,0,0.6-0.08,0.87-0.23v0.6c-0.12,0.07-0.25,0.12-0.39,0.16
				S57.69,115.11,57.49,115.11z"/>
			<path class="st1" d="M62.01,115.05h-0.69v-1.99c0-0.25-0.05-0.44-0.15-0.56s-0.26-0.18-0.48-0.18c-0.29,0-0.5,0.09-0.64,0.26
				s-0.2,0.46-0.2,0.87v1.61h-0.69v-4.56h0.69v1.16c0,0.19-0.01,0.38-0.04,0.59h0.04c0.09-0.16,0.22-0.28,0.39-0.36
				s0.36-0.13,0.58-0.13c0.79,0,1.18,0.4,1.18,1.19V115.05z"/>
			<path class="st1" d="M62.92,110.95c0-0.12,0.03-0.22,0.1-0.28s0.16-0.1,0.29-0.1c0.12,0,0.22,0.03,0.28,0.1s0.1,0.16,0.1,0.28
				c0,0.12-0.03,0.21-0.1,0.28s-0.16,0.1-0.28,0.1c-0.12,0-0.22-0.03-0.29-0.1S62.92,111.07,62.92,110.95z M63.65,115.05h-0.69
				v-3.24h0.69V115.05z"/>
			<path class="st1" d="M66.28,115.11c-0.41,0-0.73-0.15-0.96-0.44h-0.04c0.03,0.27,0.04,0.44,0.04,0.5v1.33h-0.69v-4.68h0.56
				c0.02,0.06,0.05,0.21,0.1,0.43h0.04c0.21-0.33,0.54-0.49,0.97-0.49c0.4,0,0.72,0.15,0.94,0.44s0.34,0.7,0.34,1.23
				s-0.11,0.94-0.34,1.24S66.69,115.11,66.28,115.11z M66.11,112.31c-0.27,0-0.47,0.08-0.6,0.24s-0.19,0.42-0.19,0.77v0.1
				c0,0.39,0.06,0.68,0.19,0.86s0.33,0.27,0.61,0.27c0.24,0,0.42-0.1,0.55-0.29s0.19-0.47,0.19-0.83c0-0.36-0.06-0.64-0.19-0.82
				S66.36,112.31,66.11,112.31z"/>
			<path class="st1" d="M69.09,114.42c-0.09,0.36-0.27,0.83-0.52,1.4h-0.51c0.13-0.53,0.24-1.02,0.3-1.47h0.68L69.09,114.42z"/>
			<path class="st1" d="M71.21,116.49c-0.21,0-0.38-0.02-0.52-0.07v-0.54c0.13,0.04,0.27,0.05,0.41,0.05c0.29,0,0.44-0.17,0.44-0.5
				v-3.62h0.69v3.67c0,0.33-0.09,0.59-0.26,0.76S71.54,116.49,71.21,116.49z M71.5,110.95c0-0.12,0.03-0.22,0.1-0.28
				c0.07-0.07,0.16-0.1,0.29-0.1c0.12,0,0.22,0.03,0.28,0.1c0.07,0.07,0.1,0.16,0.1,0.28c0,0.12-0.03,0.21-0.1,0.28
				c-0.07,0.07-0.16,0.1-0.28,0.1c-0.12,0-0.22-0.03-0.29-0.1C71.53,111.16,71.5,111.07,71.5,110.95z"/>
			<path class="st1" d="M75.5,115.05l-0.1-0.42h-0.04c-0.1,0.15-0.23,0.27-0.41,0.35s-0.38,0.13-0.6,0.13
				c-0.39,0-0.69-0.1-0.88-0.29s-0.29-0.49-0.29-0.89v-2.12h0.69v2c0,0.25,0.05,0.43,0.15,0.56s0.26,0.19,0.48,0.19
				c0.29,0,0.5-0.09,0.64-0.26s0.2-0.46,0.2-0.87v-1.61h0.69v3.24H75.5z"/>
			<path class="st1" d="M79.2,114.12c0,0.32-0.12,0.56-0.35,0.73s-0.56,0.25-0.99,0.25c-0.43,0-0.78-0.07-1.04-0.2v-0.59
				c0.38,0.18,0.74,0.26,1.06,0.26c0.42,0,0.64-0.13,0.64-0.38c0-0.08-0.02-0.15-0.07-0.21s-0.12-0.11-0.23-0.17
				s-0.26-0.12-0.45-0.2c-0.37-0.14-0.62-0.29-0.76-0.43c-0.13-0.14-0.2-0.33-0.2-0.56c0-0.28,0.11-0.49,0.34-0.65
				c0.22-0.15,0.53-0.23,0.91-0.23c0.38,0,0.74,0.08,1.08,0.23l-0.22,0.52c-0.35-0.14-0.64-0.22-0.88-0.22
				c-0.36,0-0.54,0.1-0.54,0.31c0,0.1,0.05,0.19,0.14,0.26c0.09,0.07,0.3,0.17,0.62,0.29c0.27,0.1,0.46,0.2,0.58,0.28
				s0.21,0.19,0.27,0.3S79.2,113.97,79.2,114.12z"/>
			<path class="st1" d="M81.15,114.55c0.17,0,0.34-0.03,0.5-0.08v0.52c-0.08,0.03-0.17,0.06-0.29,0.08
				c-0.12,0.02-0.24,0.03-0.37,0.03c-0.65,0-0.98-0.34-0.98-1.03v-1.75h-0.44v-0.3l0.47-0.25l0.23-0.69h0.42v0.72h0.92v0.52H80.7
				v1.73c0,0.17,0.04,0.29,0.12,0.37C80.9,114.51,81.01,114.55,81.15,114.55z"/>
			<path class="st1" d="M26.43,122.25h-0.69v-4.56h0.69V122.25z"/>
			<path class="st1" d="M27.38,118.15c0-0.12,0.03-0.22,0.1-0.28s0.16-0.1,0.29-0.1c0.12,0,0.22,0.03,0.28,0.1s0.1,0.16,0.1,0.28
				c0,0.12-0.03,0.21-0.1,0.28s-0.16,0.1-0.28,0.1c-0.12,0-0.22-0.03-0.29-0.1S27.38,118.27,27.38,118.15z M28.11,122.25h-0.69
				v-3.24h0.69V122.25z"/>
			<path class="st1" d="M29.76,120.54l0.39-0.49l0.98-1.04h0.79l-1.3,1.39l1.39,1.85h-0.81l-1.04-1.42l-0.38,0.31v1.11h-0.68v-4.56
				h0.68v2.22l-0.04,0.62H29.76z"/>
			<path class="st1" d="M33.94,122.31c-0.5,0-0.9-0.15-1.18-0.44s-0.43-0.7-0.43-1.21c0-0.53,0.13-0.95,0.4-1.25
				s0.63-0.45,1.09-0.45c0.43,0,0.77,0.13,1.01,0.39s0.37,0.62,0.37,1.07v0.37h-2.16c0.01,0.31,0.09,0.56,0.25,0.73
				s0.39,0.25,0.68,0.25c0.19,0,0.37-0.02,0.53-0.05s0.34-0.1,0.53-0.18v0.56c-0.17,0.08-0.34,0.14-0.51,0.17
				S34.16,122.31,33.94,122.31z M33.81,119.47c-0.22,0-0.39,0.07-0.53,0.21s-0.21,0.34-0.24,0.61h1.47c0-0.27-0.07-0.47-0.19-0.61
				S34.03,119.47,33.81,119.47z"/>
			<path class="st1" d="M37.05,119.01h0.75l0.66,1.84c0.1,0.26,0.17,0.51,0.2,0.74h0.02c0.02-0.11,0.05-0.24,0.1-0.39
				s0.29-0.88,0.74-2.18h0.74l-1.39,3.67c-0.25,0.67-0.67,1.01-1.26,1.01c-0.15,0-0.3-0.02-0.45-0.05v-0.54
				c0.1,0.02,0.22,0.04,0.35,0.04c0.33,0,0.57-0.19,0.7-0.58l0.12-0.3L37.05,119.01z"/>
			<path class="st1" d="M43.63,120.62c0,0.53-0.14,0.94-0.41,1.24s-0.65,0.45-1.13,0.45c-0.3,0-0.57-0.07-0.8-0.21
				s-0.41-0.33-0.54-0.59s-0.19-0.55-0.19-0.89c0-0.53,0.13-0.94,0.4-1.23s0.65-0.44,1.14-0.44c0.47,0,0.84,0.15,1.11,0.45
				S43.63,120.11,43.63,120.62z M41.27,120.62c0,0.75,0.28,1.12,0.83,1.12c0.55,0,0.82-0.37,0.82-1.12c0-0.74-0.28-1.11-0.83-1.11
				c-0.29,0-0.5,0.1-0.63,0.29S41.27,120.26,41.27,120.62z"/>
			<path class="st1" d="M46.7,122.25l-0.1-0.42h-0.04c-0.1,0.15-0.23,0.27-0.41,0.35s-0.38,0.13-0.6,0.13
				c-0.39,0-0.69-0.1-0.88-0.29s-0.29-0.49-0.29-0.89v-2.12h0.69v2c0,0.25,0.05,0.43,0.15,0.56s0.26,0.19,0.48,0.19
				c0.29,0,0.5-0.09,0.64-0.26s0.2-0.46,0.2-0.87v-1.61h0.69v3.24H46.7z"/>
			<path class="st1" d="M51.81,122.25l-0.14-0.45h-0.02c-0.16,0.2-0.31,0.33-0.47,0.4s-0.36,0.11-0.61,0.11
				c-0.32,0-0.57-0.09-0.75-0.26s-0.27-0.42-0.27-0.73c0-0.33,0.12-0.59,0.37-0.76s0.63-0.26,1.13-0.28l0.56-0.02v-0.17
				c0-0.21-0.05-0.36-0.15-0.46s-0.25-0.15-0.45-0.15c-0.17,0-0.33,0.02-0.48,0.07s-0.3,0.11-0.44,0.17l-0.22-0.49
				c0.18-0.09,0.37-0.16,0.58-0.21s0.41-0.07,0.59-0.07c0.41,0,0.72,0.09,0.93,0.27s0.31,0.46,0.31,0.85v2.18H51.81z M50.79,121.78
				c0.25,0,0.45-0.07,0.6-0.21s0.23-0.34,0.23-0.59v-0.28l-0.42,0.02c-0.32,0.01-0.56,0.07-0.71,0.16s-0.22,0.24-0.22,0.44
				c0,0.14,0.04,0.26,0.13,0.34S50.62,121.78,50.79,121.78z"/>
			<path class="st1" d="M55.44,121.32c0,0.32-0.12,0.56-0.35,0.73s-0.56,0.25-0.99,0.25c-0.43,0-0.78-0.07-1.04-0.2v-0.59
				c0.38,0.18,0.74,0.26,1.06,0.26c0.42,0,0.64-0.13,0.64-0.38c0-0.08-0.02-0.15-0.07-0.21s-0.12-0.11-0.23-0.17
				s-0.26-0.12-0.45-0.2c-0.37-0.14-0.63-0.29-0.76-0.43s-0.2-0.33-0.2-0.56c0-0.28,0.11-0.49,0.34-0.65s0.53-0.23,0.91-0.23
				c0.38,0,0.74,0.08,1.08,0.23l-0.22,0.52c-0.35-0.14-0.64-0.22-0.88-0.22c-0.36,0-0.54,0.1-0.54,0.31c0,0.1,0.05,0.19,0.14,0.26
				s0.3,0.17,0.62,0.29c0.27,0.1,0.46,0.2,0.58,0.28s0.21,0.19,0.27,0.3S55.44,121.17,55.44,121.32z"/>
			<path class="st1" d="M56.85,120.54l0.39-0.49l0.98-1.04h0.79l-1.3,1.39l1.39,1.85h-0.81l-1.04-1.42l-0.38,0.31v1.11h-0.68v-4.56
				h0.68v2.22l-0.04,0.62H56.85z"/>
			<path class="st1" d="M61.03,122.31c-0.5,0-0.9-0.15-1.18-0.44s-0.43-0.7-0.43-1.21c0-0.53,0.13-0.95,0.4-1.25
				s0.63-0.45,1.09-0.45c0.43,0,0.77,0.13,1.01,0.39s0.37,0.62,0.37,1.07v0.37h-2.16c0.01,0.31,0.09,0.56,0.25,0.73
				s0.39,0.25,0.68,0.25c0.19,0,0.37-0.02,0.53-0.05s0.34-0.1,0.53-0.18v0.56c-0.17,0.08-0.34,0.14-0.51,0.17
				S61.25,122.31,61.03,122.31z M60.91,119.47c-0.22,0-0.39,0.07-0.53,0.21s-0.21,0.34-0.24,0.61h1.47c0-0.27-0.07-0.47-0.19-0.61
				S61.13,119.47,60.91,119.47z"/>
			<path class="st1" d="M64.17,122.31c-0.4,0-0.72-0.15-0.95-0.44s-0.34-0.7-0.34-1.23c0-0.53,0.11-0.94,0.34-1.24
				s0.55-0.44,0.95-0.44c0.43,0,0.75,0.16,0.97,0.47h0.04c-0.03-0.23-0.05-0.42-0.05-0.55v-1.18h0.69v4.56h-0.54l-0.12-0.42h-0.03
				C64.92,122.14,64.59,122.31,64.17,122.31z M64.35,121.75c0.28,0,0.49-0.08,0.62-0.24s0.2-0.42,0.2-0.77v-0.1
				c0-0.41-0.07-0.7-0.2-0.87s-0.34-0.26-0.62-0.26c-0.24,0-0.43,0.1-0.56,0.29s-0.2,0.48-0.2,0.84c0,0.36,0.06,0.63,0.19,0.82
				S64.1,121.75,64.35,121.75z"/>
			<path class="st1" d="M68.27,119.38c0-0.29,0.14-0.44,0.43-0.44c0.15,0,0.26,0.04,0.33,0.12s0.11,0.19,0.11,0.33
				s-0.04,0.25-0.11,0.33s-0.18,0.12-0.32,0.12s-0.25-0.04-0.32-0.12S68.27,119.52,68.27,119.38z M68.27,121.88
				c0-0.14,0.04-0.25,0.11-0.33s0.18-0.11,0.32-0.11c0.14,0,0.25,0.04,0.33,0.12s0.11,0.19,0.11,0.32c0,0.14-0.04,0.25-0.11,0.33
				s-0.18,0.12-0.32,0.12s-0.25-0.04-0.32-0.12S68.27,122.02,68.27,121.88z"/>
			<path class="st1" d="M71.19,120.6c0,0.51-0.08,0.99-0.23,1.44c-0.15,0.44-0.37,0.83-0.65,1.16h-0.59
				c0.27-0.37,0.48-0.77,0.62-1.22s0.22-0.91,0.22-1.38c0-0.48-0.07-0.94-0.22-1.4s-0.35-0.87-0.62-1.23h0.6
				c0.29,0.34,0.51,0.74,0.66,1.19S71.19,120.09,71.19,120.6z"/>
		</g>
	</g>
</g>
<g>
	<g>
		<g>
			<circle class="st6" cx="13.19" cy="77.67" r="6"/>
		</g>
		<g>
			<path class="st1" d="M15.43,80.97h-1.02l-0.97-3.41c-0.04-0.15-0.09-0.36-0.16-0.64s-0.1-0.47-0.11-0.58
				c-0.03,0.17-0.07,0.38-0.13,0.65s-0.11,0.46-0.15,0.59l-0.95,3.39h-1.02l-0.74-2.86l-0.75-2.85h0.95l0.82,3.33
				c0.13,0.53,0.22,1.01,0.27,1.41c0.03-0.22,0.07-0.47,0.13-0.74s0.11-0.49,0.16-0.66l0.93-3.34h0.93l0.95,3.35
				c0.09,0.31,0.19,0.77,0.29,1.39c0.04-0.37,0.13-0.85,0.28-1.42l0.81-3.32h0.95L15.43,80.97z"/>
		</g>
	</g>
	<g>
		<g>
			<path class="st6" d="M23.46,70.61h68.2c1.19,0,2.15,0.94,2.15,2.09v8.88c0,1.15-0.96,2.09-2.15,2.09H17.25
				c2.32-1,4.06-2.69,4.06-6v-4.97C21.31,71.54,22.27,70.61,23.46,70.61z"/>
		</g>
		<g>
			<path class="st1" d="M29.39,78.44h-0.86l-2.11-3.41H26.4l0.01,0.19c0.03,0.36,0.04,0.7,0.04,1v2.23h-0.64v-4.28h0.85l2.1,3.4
				h0.02c0-0.04-0.01-0.21-0.02-0.49s-0.02-0.5-0.02-0.66v-2.24h0.64V78.44z"/>
			<path class="st1" d="M32.47,78.44l-0.14-0.45h-0.02c-0.16,0.2-0.31,0.33-0.47,0.4s-0.36,0.11-0.61,0.11
				c-0.32,0-0.57-0.09-0.75-0.26s-0.27-0.42-0.27-0.73c0-0.33,0.12-0.59,0.37-0.76s0.63-0.26,1.13-0.28l0.56-0.02v-0.17
				c0-0.21-0.05-0.36-0.15-0.46s-0.25-0.15-0.45-0.15c-0.17,0-0.33,0.02-0.48,0.07s-0.3,0.11-0.44,0.17l-0.22-0.49
				c0.18-0.09,0.37-0.16,0.58-0.21s0.41-0.07,0.59-0.07c0.41,0,0.72,0.09,0.93,0.27s0.31,0.46,0.31,0.85v2.18H32.47z M31.45,77.97
				c0.25,0,0.45-0.07,0.6-0.21s0.23-0.34,0.23-0.59V76.9l-0.42,0.02c-0.32,0.01-0.56,0.07-0.71,0.16s-0.22,0.24-0.22,0.44
				c0,0.14,0.04,0.26,0.13,0.34S31.28,77.97,31.45,77.97z"/>
			<path class="st1" d="M36.78,78.44h-0.69v-1.99c0-0.25-0.05-0.44-0.15-0.56s-0.26-0.18-0.48-0.18c-0.29,0-0.5,0.09-0.64,0.26
				s-0.2,0.46-0.2,0.87v1.61h-0.69v-4.56h0.69v1.16c0,0.19-0.01,0.38-0.04,0.59h0.04c0.09-0.16,0.22-0.28,0.39-0.36
				s0.36-0.13,0.58-0.13c0.79,0,1.18,0.4,1.18,1.19V78.44z"/>
			<path class="st1" d="M38.45,77.81c-0.09,0.36-0.27,0.83-0.52,1.4h-0.51c0.13-0.53,0.24-1.02,0.3-1.47h0.68L38.45,77.81z"/>
			<path class="st1" d="M42.1,77.95c0.17,0,0.34-0.03,0.5-0.08v0.52c-0.08,0.03-0.17,0.06-0.29,0.08s-0.24,0.03-0.37,0.03
				c-0.65,0-0.98-0.34-0.98-1.03v-1.75h-0.44v-0.3l0.47-0.25l0.23-0.69h0.42v0.72h0.92v0.52h-0.92v1.73c0,0.17,0.04,0.29,0.12,0.37
				S41.97,77.95,42.1,77.95z"/>
			<path class="st1" d="M46.1,78.44h-0.69v-1.99c0-0.25-0.05-0.44-0.15-0.56s-0.26-0.18-0.48-0.18c-0.29,0-0.5,0.09-0.64,0.26
				s-0.2,0.46-0.2,0.87v1.61h-0.69v-4.56h0.69v1.16c0,0.19-0.01,0.38-0.04,0.59h0.04c0.09-0.16,0.22-0.28,0.39-0.36
				s0.36-0.13,0.58-0.13c0.79,0,1.18,0.4,1.18,1.19V78.44z"/>
			<path class="st1" d="M48.48,78.5c-0.5,0-0.9-0.15-1.18-0.44s-0.43-0.7-0.43-1.21c0-0.53,0.13-0.95,0.4-1.25s0.63-0.45,1.09-0.45
				c0.43,0,0.77,0.13,1.01,0.39s0.37,0.62,0.37,1.07v0.37h-2.16c0.01,0.31,0.09,0.56,0.25,0.73s0.39,0.25,0.68,0.25
				c0.19,0,0.37-0.02,0.53-0.05s0.34-0.1,0.53-0.18v0.56c-0.17,0.08-0.34,0.14-0.51,0.17S48.7,78.5,48.48,78.5z M48.35,75.67
				c-0.22,0-0.39,0.07-0.53,0.21s-0.21,0.34-0.24,0.61h1.47c0-0.27-0.07-0.47-0.19-0.61S48.57,75.67,48.35,75.67z"/>
			<path class="st1" d="M50.03,75.2h0.75l0.66,1.84c0.1,0.26,0.17,0.51,0.2,0.74h0.02c0.02-0.11,0.05-0.24,0.1-0.39
				s0.29-0.88,0.74-2.18h0.74l-1.39,3.67c-0.25,0.67-0.67,1.01-1.26,1.01c-0.15,0-0.3-0.02-0.45-0.05v-0.54
				c0.1,0.02,0.22,0.04,0.35,0.04c0.33,0,0.57-0.19,0.7-0.58l0.12-0.3L50.03,75.2z"/>
			<path class="st1" d="M57.95,78.44l-0.42-1.51c-0.05-0.16-0.14-0.53-0.28-1.12h-0.03c-0.11,0.53-0.2,0.9-0.27,1.12l-0.43,1.51
				h-0.76l-0.91-3.24h0.7l0.41,1.6c0.09,0.39,0.16,0.73,0.2,1.01h0.02c0.02-0.14,0.05-0.31,0.09-0.49s0.07-0.32,0.1-0.41l0.49-1.71
				h0.76l0.48,1.71c0.03,0.1,0.07,0.24,0.11,0.44s0.07,0.35,0.08,0.46h0.02c0.03-0.24,0.1-0.58,0.21-1.01l0.42-1.6h0.69l-0.91,3.24
				H57.95z"/>
			<path class="st1" d="M61.61,78.5c-0.5,0-0.9-0.15-1.18-0.44S60,77.36,60,76.85c0-0.53,0.13-0.95,0.4-1.25s0.63-0.45,1.09-0.45
				c0.43,0,0.77,0.13,1.01,0.39s0.37,0.62,0.37,1.07v0.37h-2.16c0.01,0.31,0.09,0.56,0.25,0.73s0.39,0.25,0.68,0.25
				c0.19,0,0.37-0.02,0.53-0.05s0.34-0.1,0.53-0.18v0.56c-0.17,0.08-0.34,0.14-0.51,0.17S61.83,78.5,61.61,78.5z M61.49,75.67
				c-0.22,0-0.39,0.07-0.53,0.21s-0.21,0.34-0.24,0.61h1.47c0-0.27-0.07-0.47-0.19-0.61S61.7,75.67,61.49,75.67z"/>
			<path class="st1" d="M65.3,75.14c0.14,0,0.25,0.01,0.34,0.03l-0.07,0.64c-0.1-0.02-0.2-0.04-0.3-0.04c-0.28,0-0.5,0.09-0.67,0.27
				s-0.26,0.41-0.26,0.7v1.69h-0.69V75.2h0.54l0.09,0.57h0.04c0.11-0.19,0.25-0.35,0.42-0.46S65.1,75.14,65.3,75.14z"/>
			<path class="st1" d="M67.66,78.5c-0.5,0-0.9-0.15-1.18-0.44s-0.43-0.7-0.43-1.21c0-0.53,0.13-0.95,0.4-1.25s0.63-0.45,1.09-0.45
				c0.43,0,0.77,0.13,1.01,0.39s0.37,0.62,0.37,1.07v0.37h-2.16c0.01,0.31,0.09,0.56,0.25,0.73s0.39,0.25,0.68,0.25
				c0.19,0,0.37-0.02,0.53-0.05s0.34-0.1,0.53-0.18v0.56c-0.17,0.08-0.34,0.14-0.51,0.17S67.88,78.5,67.66,78.5z M67.53,75.67
				c-0.22,0-0.39,0.07-0.53,0.21s-0.21,0.34-0.24,0.61h1.47c0-0.27-0.07-0.47-0.19-0.61S67.75,75.67,67.53,75.67z"/>
			<path class="st1" d="M72.56,78.5c-0.49,0-0.86-0.14-1.12-0.43c-0.26-0.29-0.38-0.7-0.38-1.23c0-0.54,0.13-0.96,0.4-1.26
				c0.27-0.29,0.65-0.44,1.16-0.44c0.34,0,0.65,0.06,0.92,0.19l-0.21,0.55c-0.29-0.11-0.53-0.17-0.72-0.17
				c-0.56,0-0.84,0.37-0.84,1.12c0,0.36,0.07,0.64,0.21,0.82s0.34,0.27,0.61,0.27c0.31,0,0.6-0.08,0.87-0.23v0.6
				c-0.12,0.07-0.25,0.12-0.39,0.16S72.76,78.5,72.56,78.5z"/>
			<path class="st1" d="M74.91,78.44h-0.69v-4.56h0.69V78.44z"/>
			<path class="st1" d="M78.77,76.82c0,0.53-0.14,0.94-0.41,1.24s-0.65,0.45-1.13,0.45c-0.3,0-0.57-0.07-0.8-0.21
				s-0.41-0.33-0.54-0.59s-0.19-0.55-0.19-0.89c0-0.53,0.13-0.94,0.4-1.23s0.65-0.44,1.14-0.44c0.47,0,0.84,0.15,1.11,0.45
				S78.77,76.31,78.77,76.82z M76.41,76.82c0,0.75,0.28,1.12,0.83,1.12c0.55,0,0.82-0.37,0.82-1.12c0-0.74-0.28-1.11-0.83-1.11
				c-0.29,0-0.5,0.1-0.63,0.29C76.48,76.19,76.41,76.46,76.41,76.82z"/>
			<path class="st1" d="M81.74,77.52c0,0.32-0.12,0.56-0.35,0.73s-0.56,0.25-0.99,0.25c-0.43,0-0.78-0.07-1.04-0.2v-0.59
				c0.38,0.18,0.74,0.26,1.06,0.26c0.42,0,0.64-0.13,0.64-0.38c0-0.08-0.02-0.15-0.07-0.21s-0.12-0.11-0.23-0.17
				s-0.26-0.12-0.45-0.2c-0.37-0.14-0.62-0.29-0.76-0.43c-0.13-0.14-0.2-0.33-0.2-0.56c0-0.28,0.11-0.49,0.34-0.65
				c0.22-0.15,0.53-0.23,0.91-0.23c0.38,0,0.74,0.08,1.08,0.23l-0.22,0.52c-0.35-0.14-0.64-0.22-0.88-0.22
				c-0.36,0-0.54,0.1-0.54,0.31c0,0.1,0.05,0.19,0.14,0.26c0.09,0.07,0.3,0.17,0.62,0.29c0.27,0.1,0.46,0.2,0.58,0.28
				s0.21,0.19,0.27,0.3S81.74,77.36,81.74,77.52z"/>
			<path class="st1" d="M83.9,78.5c-0.5,0-0.9-0.15-1.18-0.44c-0.28-0.29-0.43-0.7-0.43-1.21c0-0.53,0.13-0.95,0.4-1.25
				s0.63-0.45,1.09-0.45c0.43,0,0.77,0.13,1.01,0.39s0.37,0.62,0.37,1.07v0.37H83c0.01,0.31,0.09,0.56,0.25,0.73
				s0.39,0.25,0.68,0.25c0.19,0,0.37-0.02,0.54-0.05c0.16-0.04,0.34-0.1,0.53-0.18v0.56c-0.17,0.08-0.34,0.14-0.51,0.17
				S84.12,78.5,83.9,78.5z M83.77,75.67c-0.22,0-0.39,0.07-0.53,0.21c-0.13,0.14-0.21,0.34-0.24,0.61h1.47
				c0-0.27-0.07-0.47-0.19-0.61S83.99,75.67,83.77,75.67z"/>
			<path class="st1" d="M87.04,78.5c-0.4,0-0.72-0.15-0.95-0.44s-0.34-0.7-0.34-1.23c0-0.53,0.11-0.94,0.34-1.24
				s0.55-0.44,0.95-0.44c0.43,0,0.75,0.16,0.97,0.47h0.04C88.02,75.38,88,75.2,88,75.07v-1.18h0.69v4.56h-0.54l-0.12-0.42H88
				C87.78,78.34,87.46,78.5,87.04,78.5z M87.22,77.95c0.28,0,0.49-0.08,0.62-0.24s0.2-0.42,0.2-0.77v-0.1c0-0.41-0.07-0.7-0.2-0.87
				s-0.34-0.26-0.62-0.26c-0.24,0-0.43,0.1-0.56,0.29s-0.2,0.48-0.2,0.84c0,0.36,0.06,0.63,0.19,0.82S86.97,77.95,87.22,77.95z"/>
		</g>
	</g>
</g>
<g>
	<g>
		<path class="st4" d="M151.19,101.73H69.78c-1.2,0-2.18-0.97-2.18-2.18v-8.71c0-1.2,0.97-2.18,2.18-2.18h81.41
			c1.2,0,2.18,0.97,2.18,2.18v8.71C153.36,100.75,152.39,101.73,151.19,101.73z"/>
	</g>
	<g>
		<g>
			<path class="st1" d="M75.94,96.5h-0.76l-0.73-2.55c-0.03-0.11-0.07-0.27-0.12-0.48s-0.08-0.36-0.08-0.44
				c-0.02,0.12-0.05,0.29-0.1,0.49s-0.08,0.35-0.11,0.45l-0.71,2.54h-0.76l-0.55-2.14l-0.56-2.14h0.71l0.61,2.5
				c0.1,0.4,0.16,0.75,0.21,1.06c0.02-0.17,0.05-0.35,0.1-0.56s0.08-0.37,0.12-0.5l0.7-2.5h0.69l0.71,2.51
				c0.07,0.23,0.14,0.58,0.22,1.04c0.03-0.28,0.1-0.63,0.21-1.07l0.61-2.49h0.71L75.94,96.5z"/>
			<path class="st1" d="M80.44,96.5h-0.69v-1.99c0-0.25-0.05-0.44-0.15-0.56s-0.26-0.18-0.48-0.18c-0.29,0-0.5,0.09-0.64,0.26
				s-0.2,0.46-0.2,0.87v1.61h-0.69v-4.56h0.69v1.16c0,0.19-0.01,0.38-0.04,0.59h0.04c0.09-0.16,0.22-0.28,0.39-0.36
				s0.36-0.13,0.58-0.13c0.79,0,1.18,0.4,1.18,1.19V96.5z"/>
			<path class="st1" d="M83.43,96.5l-0.14-0.45h-0.02c-0.16,0.2-0.31,0.33-0.47,0.4s-0.36,0.11-0.61,0.11
				c-0.32,0-0.57-0.09-0.75-0.26s-0.27-0.42-0.27-0.73c0-0.33,0.12-0.59,0.37-0.76s0.63-0.26,1.13-0.28l0.56-0.02v-0.17
				c0-0.21-0.05-0.36-0.14-0.46s-0.25-0.15-0.45-0.15c-0.17,0-0.33,0.02-0.48,0.07s-0.3,0.11-0.44,0.17l-0.22-0.49
				c0.18-0.09,0.37-0.16,0.58-0.21s0.41-0.07,0.59-0.07c0.41,0,0.72,0.09,0.93,0.27s0.31,0.46,0.31,0.85v2.18H83.43z M82.4,96.04
				c0.25,0,0.45-0.07,0.6-0.21s0.23-0.34,0.23-0.59v-0.28l-0.42,0.02c-0.32,0.01-0.56,0.07-0.71,0.16s-0.22,0.24-0.22,0.44
				c0,0.14,0.04,0.26,0.13,0.34S82.23,96.04,82.4,96.04z"/>
			<path class="st1" d="M86.09,96.01c0.17,0,0.34-0.03,0.5-0.08v0.52c-0.08,0.03-0.17,0.06-0.29,0.08s-0.25,0.03-0.37,0.03
				c-0.65,0-0.98-0.34-0.98-1.03v-1.75H84.5v-0.3l0.47-0.25l0.23-0.69h0.42v0.72h0.92v0.52h-0.92v1.73c0,0.17,0.04,0.29,0.12,0.37
				S85.95,96.01,86.09,96.01z"/>
			<path class="st1" d="M90.83,96.5l-0.14-0.45h-0.02c-0.16,0.2-0.31,0.33-0.47,0.4s-0.36,0.11-0.61,0.11
				c-0.32,0-0.57-0.09-0.75-0.26s-0.27-0.42-0.27-0.73c0-0.33,0.12-0.59,0.37-0.76s0.63-0.26,1.13-0.28l0.56-0.02v-0.17
				c0-0.21-0.05-0.36-0.14-0.46s-0.25-0.15-0.45-0.15c-0.17,0-0.33,0.02-0.48,0.07s-0.3,0.11-0.44,0.17l-0.22-0.49
				c0.18-0.09,0.37-0.16,0.58-0.21s0.41-0.07,0.59-0.07c0.41,0,0.72,0.09,0.93,0.27s0.31,0.46,0.31,0.85v2.18H90.83z M89.8,96.04
				c0.25,0,0.45-0.07,0.6-0.21s0.23-0.34,0.23-0.59v-0.28l-0.42,0.02c-0.32,0.01-0.56,0.07-0.71,0.16s-0.22,0.24-0.22,0.44
				c0,0.14,0.04,0.26,0.13,0.34S89.63,96.04,89.8,96.04z"/>
			<path class="st1" d="M93.93,93.21c0.4,0,0.72,0.15,0.95,0.44s0.34,0.7,0.34,1.23c0,0.53-0.11,0.94-0.34,1.24
				s-0.55,0.44-0.95,0.44c-0.41,0-0.73-0.15-0.96-0.44h-0.05l-0.13,0.38h-0.52v-4.56h0.69v1.08c0,0.08,0,0.2-0.01,0.36
				s-0.01,0.26-0.02,0.3h0.03C93.19,93.37,93.51,93.21,93.93,93.21z M93.75,93.77c-0.28,0-0.48,0.08-0.6,0.24s-0.19,0.44-0.19,0.82
				v0.05c0,0.39,0.06,0.68,0.19,0.86S93.48,96,93.77,96c0.24,0,0.43-0.1,0.56-0.29s0.19-0.47,0.19-0.84
				C94.51,94.14,94.26,93.77,93.75,93.77z"/>
			<path class="st1" d="M98.89,94.88c0,0.53-0.14,0.94-0.41,1.24s-0.65,0.45-1.13,0.45c-0.3,0-0.57-0.07-0.8-0.21
				s-0.41-0.33-0.54-0.59s-0.19-0.55-0.19-0.89c0-0.53,0.13-0.94,0.4-1.23s0.65-0.44,1.14-0.44c0.47,0,0.84,0.15,1.11,0.45
				S98.89,94.37,98.89,94.88z M96.53,94.88c0,0.75,0.28,1.12,0.83,1.12c0.55,0,0.82-0.37,0.82-1.12c0-0.74-0.28-1.11-0.83-1.11
				c-0.29,0-0.5,0.1-0.63,0.29S96.53,94.52,96.53,94.88z"/>
			<path class="st1" d="M101.97,96.5l-0.1-0.42h-0.04c-0.1,0.15-0.23,0.27-0.41,0.35s-0.38,0.13-0.61,0.13
				c-0.39,0-0.69-0.1-0.88-0.29s-0.29-0.49-0.29-0.89v-2.12h0.69v2c0,0.25,0.05,0.43,0.15,0.56s0.26,0.19,0.48,0.19
				c0.29,0,0.5-0.09,0.64-0.26s0.2-0.46,0.2-0.87v-1.61h0.69v3.24H101.97z"/>
			<path class="st1" d="M104.7,96.01c0.17,0,0.34-0.03,0.5-0.08v0.52c-0.08,0.03-0.17,0.06-0.29,0.08s-0.25,0.03-0.37,0.03
				c-0.65,0-0.98-0.34-0.98-1.03v-1.75h-0.44v-0.3l0.47-0.25l0.23-0.69h0.42v0.72h0.92v0.52h-0.92v1.73c0,0.17,0.04,0.29,0.12,0.37
				S104.56,96.01,104.7,96.01z"/>
			<path class="st1" d="M108.61,96.01c0.17,0,0.34-0.03,0.5-0.08v0.52c-0.08,0.03-0.17,0.06-0.29,0.08s-0.25,0.03-0.37,0.03
				c-0.65,0-0.98-0.34-0.98-1.03v-1.75h-0.44v-0.3l0.47-0.25l0.23-0.69h0.42v0.72h0.92v0.52h-0.92v1.73c0,0.17,0.04,0.29,0.12,0.37
				S108.48,96.01,108.61,96.01z"/>
			<path class="st1" d="M112.62,96.5h-0.69v-1.99c0-0.25-0.05-0.44-0.15-0.56s-0.26-0.18-0.48-0.18c-0.29,0-0.5,0.09-0.64,0.26
				s-0.2,0.46-0.2,0.87v1.61h-0.69v-4.56h0.69v1.16c0,0.19-0.01,0.38-0.04,0.59h0.04c0.09-0.16,0.22-0.28,0.39-0.36
				s0.36-0.13,0.58-0.13c0.79,0,1.18,0.4,1.18,1.19V96.5z"/>
			<path class="st1" d="M114.99,96.56c-0.5,0-0.9-0.15-1.18-0.44s-0.43-0.7-0.43-1.21c0-0.53,0.13-0.95,0.4-1.25
				s0.63-0.45,1.09-0.45c0.43,0,0.77,0.13,1.01,0.39s0.37,0.62,0.37,1.07v0.37h-2.16c0.01,0.31,0.09,0.56,0.25,0.73
				s0.39,0.25,0.68,0.25c0.19,0,0.37-0.02,0.54-0.05s0.34-0.1,0.53-0.18v0.56c-0.17,0.08-0.34,0.14-0.51,0.17
				S115.21,96.56,114.99,96.56z M114.86,93.73c-0.22,0-0.39,0.07-0.53,0.21s-0.21,0.34-0.24,0.61h1.47c0-0.27-0.07-0.47-0.19-0.61
				S115.08,93.73,114.86,93.73z"/>
			<path class="st1" d="M118.55,92.41c0-0.12,0.03-0.22,0.1-0.28s0.16-0.1,0.29-0.1c0.12,0,0.22,0.03,0.28,0.1s0.1,0.16,0.1,0.28
				c0,0.12-0.03,0.21-0.1,0.28s-0.16,0.1-0.28,0.1c-0.12,0-0.22-0.03-0.29-0.1S118.55,92.52,118.55,92.41z M119.28,96.5h-0.69v-3.24
				h0.69V96.5z"/>
			<path class="st1" d="M121.57,96.56c-0.49,0-0.86-0.14-1.12-0.43s-0.38-0.7-0.38-1.23c0-0.54,0.13-0.96,0.4-1.26
				s0.65-0.44,1.16-0.44c0.34,0,0.65,0.06,0.92,0.19l-0.21,0.55c-0.29-0.11-0.53-0.17-0.72-0.17c-0.56,0-0.84,0.37-0.84,1.12
				c0,0.36,0.07,0.64,0.21,0.82s0.34,0.27,0.61,0.27c0.31,0,0.6-0.08,0.87-0.23v0.6c-0.12,0.07-0.25,0.12-0.39,0.16
				S121.77,96.56,121.57,96.56z"/>
			<path class="st1" d="M124.65,96.56c-0.5,0-0.9-0.15-1.18-0.44s-0.43-0.7-0.43-1.21c0-0.53,0.13-0.95,0.4-1.25
				s0.63-0.45,1.09-0.45c0.43,0,0.77,0.13,1.01,0.39s0.37,0.62,0.37,1.07v0.37h-2.16c0.01,0.31,0.09,0.56,0.25,0.73
				s0.39,0.25,0.68,0.25c0.19,0,0.37-0.02,0.54-0.05s0.34-0.1,0.53-0.18v0.56c-0.17,0.08-0.34,0.14-0.51,0.17
				S124.87,96.56,124.65,96.56z M124.52,93.73c-0.22,0-0.39,0.07-0.53,0.21s-0.21,0.34-0.24,0.61h1.47c0-0.27-0.07-0.47-0.19-0.61
				S124.74,93.73,124.52,93.73z"/>
			<path class="st1" d="M128,96.56c-0.49,0-0.86-0.14-1.12-0.43s-0.38-0.7-0.38-1.23c0-0.54,0.13-0.96,0.4-1.26s0.65-0.44,1.16-0.44
				c0.34,0,0.65,0.06,0.92,0.19l-0.21,0.55c-0.29-0.11-0.53-0.17-0.72-0.17c-0.56,0-0.84,0.37-0.84,1.12c0,0.36,0.07,0.64,0.21,0.82
				s0.34,0.27,0.61,0.27c0.31,0,0.6-0.08,0.87-0.23v0.6c-0.12,0.07-0.25,0.12-0.39,0.16S128.2,96.56,128,96.56z"/>
			<path class="st1" d="M131.3,93.21c0.14,0,0.25,0.01,0.34,0.03l-0.07,0.64c-0.1-0.02-0.2-0.04-0.3-0.04
				c-0.28,0-0.5,0.09-0.67,0.27s-0.26,0.41-0.26,0.7v1.69h-0.69v-3.24h0.54l0.09,0.57h0.04c0.11-0.19,0.25-0.35,0.42-0.46
				S131.11,93.21,131.3,93.21z"/>
			<path class="st1" d="M133.66,96.56c-0.5,0-0.9-0.15-1.18-0.44c-0.28-0.29-0.43-0.7-0.43-1.21c0-0.53,0.13-0.95,0.4-1.25
				s0.63-0.45,1.09-0.45c0.43,0,0.77,0.13,1.01,0.39s0.37,0.62,0.37,1.07v0.37h-2.16c0.01,0.31,0.09,0.56,0.25,0.73
				s0.39,0.25,0.68,0.25c0.19,0,0.37-0.02,0.54-0.05c0.16-0.04,0.34-0.1,0.53-0.18v0.56c-0.17,0.08-0.34,0.14-0.51,0.17
				S133.88,96.56,133.66,96.56z M133.54,93.73c-0.22,0-0.39,0.07-0.53,0.21c-0.13,0.14-0.21,0.34-0.24,0.61h1.47
				c0-0.27-0.07-0.47-0.19-0.61S133.76,93.73,133.54,93.73z"/>
			<path class="st1" d="M137.73,96.5l-0.14-0.45h-0.02c-0.16,0.2-0.31,0.33-0.47,0.4s-0.36,0.11-0.61,0.11
				c-0.32,0-0.57-0.09-0.75-0.26c-0.18-0.17-0.27-0.42-0.27-0.73c0-0.33,0.12-0.59,0.37-0.76s0.63-0.26,1.13-0.28l0.56-0.02v-0.17
				c0-0.21-0.05-0.36-0.15-0.46c-0.1-0.1-0.25-0.15-0.45-0.15c-0.17,0-0.33,0.02-0.48,0.07s-0.3,0.11-0.44,0.17l-0.22-0.49
				c0.18-0.09,0.37-0.16,0.58-0.21s0.41-0.07,0.59-0.07c0.41,0,0.72,0.09,0.93,0.27c0.21,0.18,0.31,0.46,0.31,0.85v2.18H137.73z
				 M136.71,96.04c0.25,0,0.45-0.07,0.6-0.21s0.23-0.34,0.23-0.59v-0.28l-0.42,0.02c-0.32,0.01-0.56,0.07-0.71,0.16
				s-0.22,0.24-0.22,0.44c0,0.14,0.04,0.26,0.13,0.34S136.54,96.04,136.71,96.04z"/>
			<path class="st1" d="M141.92,96.5h-0.69v-2c0-0.25-0.05-0.43-0.14-0.56s-0.24-0.18-0.44-0.18c-0.27,0-0.46,0.09-0.58,0.26
				c-0.12,0.17-0.19,0.46-0.19,0.86v1.61h-0.69v-3.24h0.54l0.1,0.42h0.04c0.09-0.15,0.22-0.27,0.39-0.36
				c0.17-0.08,0.36-0.13,0.56-0.13c0.5,0,0.83,0.17,0.99,0.51h0.05c0.1-0.16,0.23-0.29,0.4-0.38s0.37-0.13,0.6-0.13
				c0.39,0,0.67,0.1,0.84,0.29s0.27,0.49,0.27,0.89v2.11h-0.69v-2c0-0.25-0.05-0.43-0.14-0.56c-0.1-0.12-0.24-0.18-0.44-0.18
				c-0.27,0-0.46,0.08-0.59,0.25s-0.19,0.42-0.19,0.77V96.5z"/>
			<path class="st1" d="M145.26,95.2v-0.19c0-0.21,0.04-0.39,0.12-0.54s0.21-0.29,0.41-0.44c0.23-0.18,0.38-0.33,0.45-0.43
				c0.07-0.1,0.1-0.22,0.1-0.36c0-0.16-0.05-0.29-0.16-0.38s-0.27-0.13-0.47-0.13c-0.19,0-0.36,0.03-0.52,0.08s-0.31,0.12-0.46,0.19
				l-0.25-0.52c0.4-0.22,0.82-0.33,1.27-0.33c0.38,0,0.69,0.09,0.91,0.28s0.34,0.45,0.34,0.78c0,0.15-0.02,0.28-0.06,0.39
				s-0.11,0.22-0.19,0.33c-0.09,0.1-0.24,0.24-0.45,0.4c-0.18,0.14-0.3,0.26-0.36,0.35c-0.06,0.09-0.09,0.22-0.09,0.38v0.13H145.26z
				 M145.14,96.14c0-0.29,0.14-0.44,0.43-0.44c0.14,0,0.25,0.04,0.32,0.12S146,96,146,96.14c0,0.14-0.04,0.25-0.11,0.33
				c-0.08,0.08-0.18,0.12-0.32,0.12s-0.25-0.04-0.32-0.12S145.14,96.28,145.14,96.14z"/>
			<path class="st1" d="M147.54,96.14c0-0.14,0.04-0.25,0.11-0.33s0.18-0.11,0.33-0.11c0.14,0,0.25,0.04,0.32,0.12
				s0.11,0.19,0.11,0.33s-0.04,0.25-0.11,0.33s-0.18,0.12-0.32,0.12c-0.14,0-0.25-0.04-0.32-0.12
				C147.58,96.39,147.54,96.28,147.54,96.14z M148.24,95.2h-0.51l-0.15-2.98h0.81L148.24,95.2z"/>
		</g>
	</g>
</g>
</svg>
