<?xml version="1.0" encoding="utf-8"?>
<!-- Generator: Adobe Illustrator 22.1.0, SVG Export Plug-In . SVG Version: 6.00 Build 0)  -->
<svg version="1.1" id="Layer_1" xmlns="http://www.w3.org/2000/svg" xmlns:xlink="http://www.w3.org/1999/xlink" x="0px" y="0px"
	 viewBox="0 0 220 460" style="enable-background:new 0 0 220 460;" xml:space="preserve">
<style type="text/css">
	.st0{opacity:0.25;fill:#3C459B;enable-background:new    ;}
	.st1{fill:#3C459B;}
	.st2{fill:#FFFFFF;}
	.st3{opacity:0.2;}
	.st4{opacity:0.5;}
	.st5{fill:#EE94BF;}
	.st6{fill:#6FC7B4;}
	.st7{opacity:0.1;}
</style>
<g>
	<path class="st0" d="M219.9,454.2V152.1c0-6.9-5.6-12.5-12.5-12.5H12.6c-6.9,0-12.5,5.6-12.5,12.5v302.1H0h0.1l0,0h0.1l9.8,4.9
		l9.8-4.9h0.4l9.8,4.9l9.8-4.9h0.4l9.8,4.9l9.8-4.9h0.4l9.8,4.9l9.8-4.9h0.4l9.8,4.9l9.8-4.9h0.4l9.8,4.9l9.8-4.9h0.4l9.8,4.9
		l9.8-4.9h0.4l9.8,4.9l9.8-4.9h0.4l9.8,4.9l9.8-4.9h0.4l9.8,4.9l9.8-4.9h0.4l9.8,4.9L219.9,454.2L219.9,454.2L219.9,454.2
		L219.9,454.2L219.9,454.2z M138.7,154.1H81.3c-2.4,0-4.4-2.2-4.4-5s1.9-5,4.4-5h57.3c2.4,0,4.4,2.2,4.4,5S141.1,154.1,138.7,154.1z
		"/>
	<path class="st1" d="M193,442.6H27c-8.9,0-16-7.2-16-16V175.2c0-8.9,7.2-16,16-16h166c8.9,0,16,7.2,16,16v251.4
		C209.1,435.4,201.9,442.6,193,442.6z"/>
	<g>
		<g>
			<g>
				<path class="st2" d="M93.6,254.5c-3.1,0-5.5-0.9-7.2-2.7c-1.6-1.8-2.4-4.5-2.4-7.9c0-3.5,0.9-6.2,2.6-8c1.7-1.9,4.2-2.8,7.4-2.8
					c2.2,0,4.2,0.4,5.9,1.2l-1.3,3.5c-1.9-0.7-3.4-1.1-4.6-1.1c-3.6,0-5.4,2.4-5.4,7.1c0,2.3,0.4,4.1,1.3,5.2
					c0.9,1.2,2.2,1.8,3.9,1.8c2,0,3.8-0.5,5.6-1.5v3.8c-0.8,0.5-1.6,0.8-2.5,1C96,254.4,94.9,254.5,93.6,254.5z"/>
				<path class="st2" d="M121.8,254.1h-4.4v-12.8c0-1.6-0.3-2.8-0.9-3.6s-1.5-1.2-2.8-1.2c-1.7,0-2.9,0.6-3.7,1.7
					c-0.8,1.1-1.2,2.9-1.2,5.5V254h-4.4v-20.7h3.5l0.6,2.7h0.2c0.6-1,1.4-1.8,2.5-2.3s2.3-0.8,3.6-0.8c3.2,0,5.3,1.1,6.3,3.3h0.3
					c0.6-1,1.5-1.8,2.6-2.4c1.1-0.6,2.4-0.9,3.8-0.9c2.5,0,4.3,0.6,5.4,1.9c1.1,1.3,1.7,3.2,1.7,5.7V254h-4.4v-12.8
					c0-1.6-0.3-2.8-0.9-3.6c-0.6-0.8-1.5-1.2-2.8-1.2c-1.7,0-3,0.5-3.8,1.6s-1.2,2.7-1.2,4.9V254.1z"/>
			</g>
		</g>
		<g>
			<g class="st3">
				<path class="st2" d="M70.1,253.8c-1.9-7-1.9-14.4,0-21.4s5.6-13.4,10.7-18.5l2.3,2.3c-4.7,4.7-8.1,10.6-9.8,17
					c-1.7,6.4-1.7,13.2,0,19.7L70.1,253.8z"/>
			</g>
			<g>
				<path class="st2" d="M99.3,282.9c-14.2-3.8-25.4-15-29.2-29.2l3.2-0.9c3.5,13.1,13.8,23.3,26.8,26.8L99.3,282.9z"/>
			</g>
			<g class="st4">
				<path class="st2" d="M109.9,284.3c-3.5,0-7.1-0.5-10.6-1.4l0.9-3.2c13.1,3.5,27.1-0.3,36.7-9.8l2.3,2.3
					C131.3,280.1,120.8,284.3,109.9,284.3z"/>
			</g>
			<g class="st3">
				<path class="st2" d="M139.2,272.3l-2.3-2.3c4.7-4.7,8.1-10.6,9.8-17s1.7-13.2,0-19.7l3.2-0.9c1.9,7,1.9,14.4,0,21.4
					C148,260.8,144.3,267.2,139.2,272.3z"/>
			</g>
			<g>
				<path class="st2" d="M146.7,233.2c-3.5-13.1-13.8-23.3-26.8-26.8l0.9-3.2c14.2,3.8,25.4,15,29.2,29.2L146.7,233.2z"/>
			</g>
			<g class="st4">
				<path class="st2" d="M83.2,216.2l-2.3-2.3c10.4-10.4,25.7-14.5,39.9-10.7l-0.9,3.2C106.8,202.9,92.7,206.7,83.2,216.2z"/>
			</g>
		</g>
	</g>
	<g>
		<g>
			<g>
				<g>
					<polygon class="st5" points="47.2,27 29.1,38.2 5.4,0 30.4,0 					"/>
				</g>
				<g>
					
						<rect x="40.7" y="28.8" transform="matrix(0.8491 -0.5283 0.5283 0.8491 -20.6429 35.2393)" class="st6" width="21.3" height="49.9"/>
				</g>
				<g>
					
						<rect x="67.1" y="71.2" transform="matrix(0.8491 -0.5283 0.5283 0.8491 -39.0416 55.5879)" class="st1" width="21.3" height="49.9"/>
				</g>
				<g class="st7">
					<path class="st1" d="M121.1,145.8l-1.7,2.7c-5.1,8-16.8,7.9-21.7-0.1l-1.7-2.7l-13.9-22.4l18-11.2l8.6,13.8L121.1,145.8z"/>
				</g>
			</g>
		</g>
		<g>
			<g>
				<g>
					<path class="st5" d="M135.4,123.6l-14.2,22.2l-1.5,2.4c-5.2,8.1-17,8-22.1-0.1l-1.5-2.4l12.7-19.8l8.8-13.7L135.4,123.6z"/>
				</g>
				<g>
					
						<rect x="115" y="86.3" transform="matrix(0.5397 -0.8418 0.8418 0.5397 -17.2177 162.4075)" class="st6" width="49.9" height="21.3"/>
				</g>
				<g>
					
						<rect x="141.9" y="44.2" transform="matrix(0.5397 -0.8418 0.8418 0.5397 30.6128 165.6634)" class="st1" width="49.9" height="21.3"/>
				</g>
				<g class="st7">
					<polygon class="st1" points="214.6,0 189.4,39.3 171.5,27.8 189.4,0 					"/>
				</g>
			</g>
		</g>
	</g>
</g>
<g>
	<path class="st2" d="M68.9,429.4c0,0.8-0.3,1.4-0.8,1.8s-1.3,0.7-2.3,0.7s-1.8-0.2-2.4-0.5v-1.3c0.4,0.2,0.8,0.3,1.2,0.4
		s0.8,0.2,1.2,0.2c0.6,0,1-0.1,1.2-0.3s0.4-0.5,0.4-0.8c0-0.3-0.1-0.6-0.4-0.8s-0.7-0.5-1.5-0.8c-0.8-0.3-1.3-0.7-1.7-1.1
		s-0.5-0.9-0.5-1.5c0-0.7,0.3-1.3,0.8-1.7s1.2-0.6,2-0.6c0.8,0,1.6,0.2,2.4,0.5l-0.4,1.1c-0.8-0.3-1.4-0.5-2-0.5
		c-0.5,0-0.8,0.1-1,0.3s-0.4,0.5-0.4,0.8c0,0.2,0,0.4,0.1,0.6s0.2,0.3,0.5,0.4s0.6,0.3,1.2,0.6c0.6,0.3,1.1,0.5,1.4,0.7
		s0.5,0.5,0.6,0.8S68.9,429,68.9,429.4z"/>
	<path class="st2" d="M74.5,431.7l-0.3-0.9h0c-0.3,0.4-0.6,0.7-0.9,0.8s-0.7,0.2-1.2,0.2c-0.6,0-1.1-0.2-1.5-0.5s-0.5-0.8-0.5-1.5
		c0-0.7,0.2-1.2,0.7-1.5s1.3-0.5,2.3-0.6l1.1,0v-0.3c0-0.4-0.1-0.7-0.3-0.9s-0.5-0.3-0.9-0.3c-0.3,0-0.7,0-1,0.1s-0.6,0.2-0.9,0.3
		l-0.4-1c0.4-0.2,0.7-0.3,1.2-0.4s0.8-0.1,1.2-0.1c0.8,0,1.4,0.2,1.9,0.5s0.6,0.9,0.6,1.7v4.4H74.5z M72.4,430.8
		c0.5,0,0.9-0.1,1.2-0.4s0.5-0.7,0.5-1.2v-0.6l-0.8,0c-0.6,0-1.1,0.1-1.4,0.3s-0.4,0.5-0.4,0.9c0,0.3,0.1,0.5,0.3,0.7
		S72.1,430.8,72.4,430.8z"/>
	<path class="st2" d="M79.8,430.7c0.3,0,0.7-0.1,1-0.2v1c-0.2,0.1-0.3,0.1-0.6,0.2s-0.5,0.1-0.7,0.1c-1.3,0-2-0.7-2-2.1v-3.5h-0.9
		v-0.6l0.9-0.5l0.5-1.4h0.8v1.4h1.8v1h-1.8v3.5c0,0.3,0.1,0.6,0.2,0.7S79.5,430.7,79.8,430.7z"/>
	<path class="st2" d="M90.5,426.8c0,1.7-0.3,2.9-1,3.8s-1.7,1.2-3.1,1.2c-0.5,0-0.9,0-1.1-0.1v-1.2c0.3,0.1,0.7,0.1,1,0.1
		c0.9,0,1.6-0.2,2.1-0.8s0.7-1.3,0.8-2.4h-0.1c-0.2,0.4-0.5,0.6-0.8,0.8s-0.7,0.2-1.1,0.2c-0.8,0-1.4-0.2-1.8-0.7s-0.7-1.1-0.7-1.9
		c0-0.9,0.3-1.6,0.8-2.1s1.2-0.8,2.1-0.8c0.6,0,1.1,0.1,1.6,0.4s0.8,0.7,1,1.3S90.5,426,90.5,426.8z M87.6,424.2
		c-0.5,0-0.8,0.2-1.1,0.5s-0.4,0.7-0.4,1.3c0,0.5,0.1,0.9,0.4,1.2s0.6,0.4,1.1,0.4c0.5,0,0.9-0.1,1.2-0.4s0.5-0.6,0.5-1
		c0-0.3-0.1-0.7-0.2-1s-0.3-0.5-0.6-0.7S87.9,424.2,87.6,424.2z"/>
	<path class="st2" d="M94.5,430.7c0.3,0,0.7-0.1,1-0.2v1c-0.2,0.1-0.3,0.1-0.6,0.2s-0.5,0.1-0.7,0.1c-1.3,0-2-0.7-2-2.1v-3.5h-0.9
		v-0.6l0.9-0.5l0.5-1.4h0.8v1.4h1.8v1h-1.8v3.5c0,0.3,0.1,0.6,0.2,0.7S94.2,430.7,94.5,430.7z"/>
	<path class="st2" d="M102.5,431.7h-1.4v-4c0-0.5-0.1-0.9-0.3-1.1s-0.5-0.4-1-0.4c-0.6,0-1,0.2-1.3,0.5s-0.4,0.9-0.4,1.7v3.2h-1.4
		v-9.1h1.4v2.3c0,0.4,0,0.8-0.1,1.2h0.1c0.2-0.3,0.4-0.6,0.8-0.7s0.7-0.3,1.2-0.3c1.6,0,2.4,0.8,2.4,2.4V431.7z"/>
	<path class="st2" d="M103.8,429.1v-1.2h3v1.2H103.8z"/>
	<path class="st2" d="M111.8,431.7h-1.4v-5.5c0-0.7,0-1.2,0-1.6c-0.1,0.1-0.2,0.2-0.3,0.3s-0.6,0.5-1.3,1.1l-0.7-0.9l2.5-2h1.1
		V431.7z"/>
	<path class="st2" d="M120.5,427.4c0,1.5-0.2,2.6-0.7,3.3s-1.2,1.1-2.2,1.1c-1,0-1.7-0.4-2.2-1.1s-0.7-1.8-0.7-3.3
		c0-1.5,0.2-2.6,0.7-3.3s1.2-1.1,2.2-1.1c1,0,1.7,0.4,2.2,1.1S120.5,426,120.5,427.4z M116,427.4c0,1.2,0.1,2,0.4,2.5
		s0.6,0.8,1.2,0.8s0.9-0.3,1.2-0.8s0.4-1.3,0.4-2.5c0-1.1-0.1-2-0.4-2.5s-0.6-0.8-1.2-0.8s-0.9,0.3-1.2,0.8S116,426.3,116,427.4z"/>
	<path class="st2" d="M124.4,430.7c0.3,0,0.7-0.1,1-0.2v1c-0.2,0.1-0.3,0.1-0.6,0.2s-0.5,0.1-0.7,0.1c-1.3,0-2-0.7-2-2.1v-3.5h-0.9
		v-0.6l0.9-0.5l0.5-1.4h0.8v1.4h1.8v1h-1.8v3.5c0,0.3,0.1,0.6,0.2,0.7S124.1,430.7,124.4,430.7z"/>
	<path class="st2" d="M132.4,431.7H131v-4c0-0.5-0.1-0.9-0.3-1.1s-0.5-0.4-1-0.4c-0.6,0-1,0.2-1.3,0.5s-0.4,0.9-0.4,1.7v3.2h-1.4
		v-9.1h1.4v2.3c0,0.4,0,0.8-0.1,1.2h0.1c0.2-0.3,0.4-0.6,0.8-0.7s0.7-0.3,1.2-0.3c1.6,0,2.4,0.8,2.4,2.4V431.7z"/>
	<path class="st2" d="M138.9,431.7h-1.4v-8.6h4.8v1.2h-3.4v2.7h3.2v1.2h-3.2V431.7z"/>
	<path class="st2" d="M146.6,431.8c-1,0-1.8-0.3-2.4-0.9s-0.9-1.4-0.9-2.4c0-1.1,0.3-1.9,0.8-2.5s1.3-0.9,2.2-0.9
		c0.9,0,1.5,0.3,2,0.8s0.7,1.2,0.7,2.1v0.7h-4.3c0,0.6,0.2,1.1,0.5,1.5s0.8,0.5,1.4,0.5c0.4,0,0.7,0,1.1-0.1s0.7-0.2,1.1-0.4v1.1
		c-0.3,0.2-0.7,0.3-1,0.3S147.1,431.8,146.6,431.8z M146.4,426.2c-0.4,0-0.8,0.1-1.1,0.4s-0.4,0.7-0.5,1.2h2.9
		c0-0.5-0.1-0.9-0.4-1.2S146.8,426.2,146.4,426.2z"/>
	<path class="st2" d="M154,425.1c0.8,0,1.4,0.3,1.9,0.9s0.7,1.4,0.7,2.5c0,1.1-0.2,1.9-0.7,2.5s-1.1,0.9-1.9,0.9
		c-0.8,0-1.5-0.3-1.9-0.9H152l-0.3,0.8h-1v-9.1h1.4v2.2c0,0.2,0,0.4,0,0.7s0,0.5,0,0.6h0.1C152.5,425.4,153.2,425.1,154,425.1z
		 M153.7,426.2c-0.6,0-1,0.2-1.2,0.5s-0.4,0.9-0.4,1.6v0.1c0,0.8,0.1,1.4,0.4,1.7s0.7,0.5,1.2,0.5c0.5,0,0.9-0.2,1.1-0.6
		s0.4-0.9,0.4-1.7C155.2,427,154.7,426.2,153.7,426.2z"/>
</g>
</svg>
