<?xml version="1.0" encoding="utf-8"?>
<!-- Generator: Adobe Illustrator 22.1.0, SVG Export Plug-In . SVG Version: 6.00 Build 0)  -->
<svg version="1.1" id="Layer_1" xmlns="http://www.w3.org/2000/svg" xmlns:xlink="http://www.w3.org/1999/xlink" x="0px" y="0px"
	 viewBox="0 0 124 40" style="enable-background:new 0 0 124 40;" xml:space="preserve">
<style type="text/css">
	.st0{fill:#3C459B;}
	.st1{fill:#EE94BF;}
	.st2{fill:#6FC7B4;}
	.st3{opacity:0.5;fill:#3C459B;}
</style>
<g>
	<g>
		<g>
			<g>
				<g>
					<g>
						<path class="st0" d="M12.24,25.48c-1.5,0-2.7-0.4-3.5-1.3s-1.2-2.2-1.2-3.8c0-1.7,0.4-3,1.2-3.9s2-1.4,3.6-1.4
							c1.1,0,2,0.2,2.9,0.6l-0.6,1.7c-0.9-0.4-1.6-0.5-2.2-0.5c-1.7,0-2.6,1.2-2.6,3.5c0,1.1,0.2,2,0.7,2.5c0.4,0.6,1.1,0.9,1.9,0.9
							c1,0,1.9-0.2,2.7-0.7v1.9c-0.4,0.2-0.8,0.4-1.2,0.5C13.34,25.48,12.84,25.48,12.24,25.48z"/>
					</g>
				</g>
				<g>
					<g>
						<path class="st0" d="M25.84,25.38h-2.1v-6.2c0-0.8-0.1-1.3-0.4-1.7c-0.3-0.4-0.7-0.6-1.4-0.6c-0.8,0-1.4,0.3-1.8,0.8
							s-0.6,1.4-0.6,2.7v5h-2.1v-10.1h1.7l0.3,1.3h0.1c0.3-0.5,0.7-0.8,1.2-1.1s1.1-0.4,1.8-0.4c1.5,0,2.6,0.5,3.1,1.6h0.1
							c0.3-0.5,0.7-0.9,1.3-1.2c0.5-0.3,1.2-0.4,1.9-0.4c1.2,0,2.1,0.3,2.6,0.9c0.5,0.6,0.8,1.5,0.8,2.8v6.6h-2.1v-6.2
							c0-0.8-0.1-1.3-0.4-1.7c-0.3-0.4-0.8-0.6-1.4-0.6c-0.8,0-1.4,0.3-1.8,0.8s-0.6,1.3-0.6,2.4v5.3H25.84z"/>
					</g>
				</g>
			</g>
		</g>
		<g>
			<g>
				<g>
					<g>
						<path class="st0" d="M14.94,39.28c-3.4-0.9-6.5-2.7-9-5.2s-4.3-5.6-5.2-9l1.5-0.4c0.9,3.2,2.6,6,4.9,8.3s5.1,3.9,8.3,4.8
							L14.94,39.28z"/>
					</g>
				</g>
			</g>
			<g>
				<g>
					<g>
						<path class="st1" d="M0.84,25.18c-1.8-6.9,0.1-14.3,5.2-19.3l1.1,1.1c-4.6,4.6-6.5,11.4-4.8,17.8L0.84,25.18z"/>
					</g>
				</g>
			</g>
			<g>
				<g>
					<g>
						<path class="st2" d="M7.14,6.98l-1.1-1.1c5-5,12.4-7,19.3-5.2l-0.4,1.5C18.54,0.48,11.74,2.38,7.14,6.98z"/>
					</g>
				</g>
			</g>
			<g>
				<g>
					<g>
						<path class="st0" d="M37.94,15.18c-0.8-3.1-2.5-5.9-4.8-8.2s-5.1-3.9-8.2-4.8l0.4-1.5c3.4,0.9,6.5,2.7,9,5.2s4.3,5.6,5.2,9
							L37.94,15.18z"/>
					</g>
				</g>
			</g>
			<g>
				<g>
					<g>
						<path class="st1" d="M34.24,34.08l-1.1-1.1c4.6-4.6,6.5-11.4,4.8-17.8l1.5-0.4C41.34,21.68,39.34,29.08,34.24,34.08z"/>
					</g>
				</g>
			</g>
			<g>
				<g>
					<g>
						<path class="st2" d="M20.14,39.98c-1.7,0-3.4-0.2-5.1-0.7l0.4-1.5c6.3,1.7,13.1-0.1,17.8-4.8l1.1,1.1
							C30.54,37.88,25.34,39.98,20.14,39.98z"/>
					</g>
				</g>
			</g>
		</g>
	</g>
	<g>
		<path class="st3" d="M53.01,10.45h-1.15V7.12c0-0.41-0.08-0.72-0.23-0.93s-0.4-0.31-0.73-0.31c-0.44,0-0.77,0.14-0.97,0.43
			s-0.31,0.77-0.31,1.44v2.69h-1.15v-5.4h0.9l0.16,0.71h0.06c0.15-0.26,0.37-0.46,0.65-0.6s0.6-0.21,0.94-0.21
			c0.83,0,1.38,0.28,1.65,0.85h0.08c0.16-0.27,0.38-0.48,0.67-0.62s0.62-0.22,1-0.22c0.64,0,1.11,0.16,1.41,0.49
			s0.44,0.82,0.44,1.49v3.52h-1.15V7.12c0-0.41-0.08-0.72-0.24-0.93s-0.4-0.31-0.73-0.31c-0.45,0-0.77,0.14-0.98,0.42
			s-0.31,0.71-0.31,1.28V10.45z"/>
		<path class="st3" d="M60.38,10.54c-0.84,0-1.5-0.25-1.97-0.73S57.7,8.64,57.7,7.78c0-0.88,0.22-1.58,0.66-2.08
			s1.04-0.76,1.81-0.76c0.71,0,1.28,0.22,1.69,0.65s0.62,1.03,0.62,1.79V8h-3.6c0.02,0.52,0.16,0.93,0.42,1.21s0.64,0.42,1.13,0.42
			c0.32,0,0.62-0.03,0.89-0.09s0.57-0.16,0.89-0.3v0.93c-0.28,0.13-0.56,0.23-0.85,0.28S60.75,10.54,60.38,10.54z M60.17,5.82
			c-0.36,0-0.66,0.12-0.88,0.35s-0.35,0.57-0.39,1.01h2.45c-0.01-0.45-0.11-0.78-0.32-1.01S60.53,5.82,60.17,5.82z"/>
		<path class="st3" d="M64.93,10.45h-1.15v-7.6h1.15V10.45z"/>
		<path class="st3" d="M69.33,4.95c0.67,0,1.2,0.24,1.57,0.73s0.56,1.17,0.56,2.06c0,0.89-0.19,1.57-0.57,2.07s-0.91,0.74-1.59,0.74
			c-0.68,0-1.21-0.25-1.59-0.74h-0.08l-0.21,0.64h-0.86v-7.6h1.15v1.81c0,0.13-0.01,0.33-0.02,0.6c-0.01,0.26-0.02,0.43-0.03,0.5
			h0.05C68.08,5.22,68.62,4.95,69.33,4.95z M69.03,5.88c-0.46,0-0.79,0.14-1,0.41c-0.2,0.27-0.31,0.73-0.31,1.36v0.08
			c0,0.66,0.1,1.13,0.31,1.43c0.21,0.29,0.55,0.44,1.02,0.44c0.41,0,0.71-0.16,0.92-0.48s0.32-0.79,0.32-1.4
			C70.29,6.5,69.87,5.88,69.03,5.88z"/>
		<path class="st3" d="M77.59,7.74c0,0.88-0.23,1.57-0.68,2.07c-0.45,0.49-1.08,0.74-1.89,0.74c-0.5,0-0.95-0.11-1.34-0.34
			C73.3,9.97,73,9.65,72.79,9.22c-0.21-0.43-0.31-0.92-0.31-1.48c0-0.88,0.22-1.56,0.67-2.05s1.08-0.74,1.9-0.74
			c0.78,0,1.4,0.25,1.86,0.75C77.36,6.2,77.59,6.88,77.59,7.74z M73.66,7.74c0,1.25,0.46,1.87,1.38,1.87c0.91,0,1.37-0.62,1.37-1.87
			c0-1.23-0.46-1.85-1.38-1.85c-0.48,0-0.83,0.16-1.05,0.48C73.77,6.68,73.66,7.14,73.66,7.74z"/>
		<path class="st3" d="M82.72,10.45l-0.16-0.71H82.5c-0.16,0.25-0.39,0.45-0.68,0.59c-0.29,0.14-0.63,0.21-1.01,0.21
			c-0.65,0-1.14-0.16-1.46-0.49s-0.48-0.82-0.48-1.48V5.04h1.16v3.33c0,0.41,0.08,0.72,0.25,0.93c0.17,0.21,0.43,0.31,0.8,0.31
			c0.48,0,0.84-0.14,1.06-0.43c0.23-0.29,0.34-0.77,0.34-1.45V5.04h1.15v5.4H82.72z"/>
		<path class="st3" d="M88,4.95c0.23,0,0.42,0.02,0.57,0.05l-0.11,1.07c-0.16-0.04-0.33-0.06-0.51-0.06c-0.46,0-0.83,0.15-1.12,0.45
			c-0.28,0.3-0.43,0.69-0.43,1.17v2.82h-1.15v-5.4h0.9L86.31,6h0.06c0.18-0.32,0.41-0.58,0.7-0.77C87.35,5.04,87.66,4.95,88,4.95z"
			/>
		<path class="st3" d="M94.32,10.45h-1.15V7.12c0-0.42-0.08-0.73-0.25-0.93c-0.17-0.21-0.43-0.31-0.8-0.31
			c-0.49,0-0.84,0.14-1.06,0.43s-0.34,0.77-0.34,1.44v2.69h-1.15v-5.4h0.9l0.16,0.71h0.06c0.16-0.26,0.39-0.46,0.69-0.6
			s0.63-0.21,1-0.21c1.3,0,1.94,0.66,1.94,1.98V10.45z"/>
		<path class="st3" d="M98.27,10.54c-0.84,0-1.5-0.25-1.97-0.73c-0.47-0.49-0.71-1.16-0.71-2.02c0-0.88,0.22-1.58,0.66-2.08
			s1.04-0.76,1.81-0.76c0.71,0,1.28,0.22,1.69,0.65s0.62,1.03,0.62,1.79V8h-3.6c0.02,0.52,0.16,0.93,0.42,1.21s0.64,0.42,1.13,0.42
			c0.32,0,0.62-0.03,0.89-0.09c0.28-0.06,0.57-0.16,0.89-0.3v0.93c-0.28,0.13-0.56,0.23-0.85,0.28S98.64,10.54,98.27,10.54z
			 M98.06,5.82c-0.36,0-0.66,0.12-0.88,0.35c-0.22,0.23-0.35,0.57-0.39,1.01h2.45c-0.01-0.45-0.11-0.78-0.32-1.01
			S98.43,5.82,98.06,5.82z"/>
		<path class="st0" d="M50.64,22.54c-0.82,0-1.44-0.24-1.86-0.71c-0.42-0.48-0.64-1.16-0.64-2.05c0-0.91,0.22-1.61,0.67-2.09
			s1.09-0.73,1.93-0.73c0.57,0,1.08,0.11,1.54,0.32l-0.35,0.92c-0.48-0.19-0.89-0.28-1.2-0.28c-0.93,0-1.4,0.62-1.4,1.86
			c0,0.6,0.12,1.06,0.35,1.36c0.23,0.3,0.57,0.46,1.02,0.46c0.51,0,0.99-0.13,1.45-0.38v1c-0.21,0.12-0.42,0.21-0.66,0.26
			C51.25,22.52,50.97,22.54,50.64,22.54z"/>
		<path class="st0" d="M58.2,19.74c0,0.88-0.23,1.57-0.68,2.06c-0.45,0.5-1.08,0.74-1.89,0.74c-0.5,0-0.95-0.11-1.34-0.34
			c-0.39-0.23-0.69-0.55-0.89-0.98c-0.21-0.43-0.31-0.92-0.31-1.48c0-0.88,0.22-1.56,0.67-2.05s1.08-0.74,1.9-0.74
			c0.78,0,1.4,0.25,1.86,0.75S58.2,18.88,58.2,19.74z M54.27,19.74c0,1.25,0.46,1.87,1.38,1.87c0.91,0,1.37-0.62,1.37-1.87
			c0-1.23-0.46-1.85-1.38-1.85c-0.48,0-0.83,0.16-1.05,0.48S54.27,19.14,54.27,19.74z"/>
		<path class="st0" d="M61.34,22.54c-0.67,0-1.2-0.24-1.58-0.73s-0.57-1.17-0.57-2.06c0-0.89,0.19-1.57,0.57-2.07
			s0.91-0.74,1.59-0.74c0.71,0,1.25,0.26,1.62,0.79h0.06c-0.06-0.39-0.08-0.69-0.08-0.92v-1.97h1.15v7.6h-0.9l-0.2-0.71h-0.05
			C62.59,22.27,62.05,22.54,61.34,22.54z M61.65,21.61c0.47,0,0.82-0.13,1.03-0.4c0.21-0.27,0.33-0.7,0.33-1.29v-0.16
			c0-0.68-0.11-1.16-0.33-1.45s-0.57-0.43-1.04-0.43c-0.4,0-0.71,0.16-0.93,0.49s-0.33,0.79-0.33,1.4c0,0.6,0.11,1.06,0.32,1.37
			C60.91,21.46,61.22,21.61,61.65,21.61z"/>
		<path class="st0" d="M68.11,22.54c-0.84,0-1.5-0.25-1.97-0.73c-0.47-0.49-0.71-1.17-0.71-2.02c0-0.88,0.22-1.58,0.66-2.08
			s1.04-0.76,1.81-0.76c0.71,0,1.28,0.22,1.69,0.65c0.41,0.43,0.62,1.03,0.62,1.79V20h-3.6c0.02,0.52,0.16,0.93,0.42,1.21
			c0.27,0.28,0.64,0.42,1.13,0.42c0.32,0,0.62-0.03,0.89-0.09c0.28-0.06,0.57-0.16,0.89-0.3v0.93c-0.28,0.13-0.56,0.23-0.85,0.28
			C68.8,22.51,68.47,22.54,68.11,22.54z M67.9,17.82c-0.37,0-0.66,0.12-0.88,0.35s-0.35,0.57-0.39,1.01h2.45
			c-0.01-0.45-0.11-0.78-0.32-1.01C68.55,17.93,68.26,17.82,67.9,17.82z"/>
		<path class="st0" d="M78.66,22.44h-1.15v-3.33c0-0.41-0.08-0.72-0.23-0.93s-0.4-0.31-0.73-0.31c-0.44,0-0.77,0.14-0.97,0.43
			c-0.21,0.29-0.31,0.77-0.31,1.44v2.69h-1.15v-5.4h0.9l0.16,0.71h0.06c0.15-0.26,0.37-0.46,0.65-0.6c0.29-0.14,0.6-0.21,0.94-0.21
			c0.83,0,1.38,0.28,1.65,0.85h0.08c0.16-0.27,0.38-0.48,0.67-0.62c0.29-0.15,0.62-0.22,1-0.22c0.64,0,1.11,0.16,1.41,0.49
			c0.29,0.33,0.44,0.82,0.44,1.49v3.52h-1.15v-3.33c0-0.41-0.08-0.72-0.24-0.93c-0.16-0.2-0.4-0.31-0.73-0.31
			c-0.45,0-0.77,0.14-0.98,0.42c-0.21,0.28-0.31,0.71-0.31,1.28V22.44z"/>
		<path class="st0" d="M86.03,22.54c-0.84,0-1.5-0.25-1.97-0.73c-0.47-0.49-0.71-1.17-0.71-2.02c0-0.88,0.22-1.58,0.66-2.08
			s1.04-0.76,1.81-0.76c0.71,0,1.28,0.22,1.69,0.65s0.62,1.03,0.62,1.79V20h-3.6c0.02,0.52,0.16,0.93,0.42,1.21
			c0.27,0.28,0.64,0.42,1.13,0.42c0.32,0,0.62-0.03,0.89-0.09c0.28-0.06,0.57-0.16,0.89-0.3v0.93c-0.28,0.13-0.56,0.23-0.85,0.28
			C86.72,22.51,86.4,22.54,86.03,22.54z M85.82,17.82c-0.36,0-0.66,0.12-0.88,0.35c-0.22,0.23-0.35,0.57-0.39,1.01H87
			c-0.01-0.45-0.11-0.78-0.32-1.01S86.18,17.82,85.82,17.82z"/>
		<path class="st0" d="M94.18,22.44h-1.15v-3.32c0-0.42-0.08-0.73-0.25-0.93c-0.17-0.21-0.43-0.31-0.8-0.31
			c-0.49,0-0.84,0.14-1.06,0.43s-0.34,0.77-0.34,1.44v2.69h-1.15v-5.4h0.9l0.16,0.71h0.06c0.16-0.26,0.39-0.46,0.69-0.6
			s0.63-0.21,1-0.21c1.3,0,1.94,0.66,1.94,1.98V22.44z"/>
		<path class="st0" d="M97.79,21.61c0.28,0,0.56-0.04,0.84-0.13v0.86c-0.13,0.06-0.29,0.1-0.49,0.14c-0.2,0.04-0.41,0.06-0.62,0.06
			c-1.09,0-1.63-0.57-1.63-1.72v-2.91h-0.74v-0.51l0.79-0.42l0.39-1.14h0.71v1.2h1.54v0.87h-1.54v2.89c0,0.28,0.07,0.48,0.21,0.61
			C97.38,21.55,97.57,21.61,97.79,21.61z"/>
		<path class="st0" d="M104.5,19.74c0,0.88-0.23,1.57-0.68,2.06c-0.45,0.5-1.08,0.74-1.89,0.74c-0.5,0-0.95-0.11-1.34-0.34
			c-0.39-0.23-0.69-0.55-0.89-0.98c-0.21-0.43-0.31-0.92-0.31-1.48c0-0.88,0.22-1.56,0.67-2.05s1.08-0.74,1.9-0.74
			c0.78,0,1.4,0.25,1.86,0.75S104.5,18.88,104.5,19.74z M100.57,19.74c0,1.25,0.46,1.87,1.38,1.87c0.91,0,1.37-0.62,1.37-1.87
			c0-1.23-0.46-1.85-1.38-1.85c-0.48,0-0.83,0.16-1.05,0.48C100.68,18.68,100.57,19.14,100.57,19.74z"/>
		<path class="st0" d="M108.56,16.95c0.23,0,0.42,0.02,0.57,0.05l-0.11,1.07c-0.16-0.04-0.33-0.06-0.51-0.06
			c-0.46,0-0.83,0.15-1.12,0.45c-0.28,0.3-0.43,0.69-0.43,1.17v2.82h-1.15v-5.4h0.9l0.15,0.95h0.06c0.18-0.32,0.41-0.58,0.7-0.77
			C107.92,17.04,108.22,16.95,108.56,16.95z"/>
		<path class="st0" d="M110.06,15.61c0-0.21,0.06-0.36,0.17-0.47c0.11-0.11,0.27-0.17,0.48-0.17c0.2,0,0.36,0.06,0.47,0.17
			c0.11,0.11,0.17,0.27,0.17,0.47c0,0.2-0.06,0.35-0.17,0.46c-0.11,0.11-0.27,0.17-0.47,0.17c-0.21,0-0.37-0.06-0.48-0.17
			C110.12,15.96,110.06,15.81,110.06,15.61z M111.28,22.44h-1.15v-5.4h1.15V22.44z"/>
		<path class="st0" d="M117.67,22.44h-1.15v-3.32c0-0.42-0.08-0.73-0.25-0.93c-0.17-0.21-0.43-0.31-0.8-0.31
			c-0.49,0-0.84,0.14-1.06,0.43s-0.34,0.77-0.34,1.44v2.69h-1.15v-5.4h0.9l0.16,0.71h0.06c0.16-0.26,0.39-0.46,0.69-0.6
			s0.63-0.21,1-0.21c1.3,0,1.94,0.66,1.94,1.98V22.44z"/>
		<path class="st0" d="M123.83,17.04v0.63l-0.92,0.17c0.08,0.11,0.15,0.25,0.21,0.42s0.08,0.34,0.08,0.53
			c0,0.56-0.19,0.99-0.58,1.31c-0.38,0.32-0.91,0.48-1.59,0.48c-0.17,0-0.33-0.01-0.47-0.04c-0.25,0.15-0.37,0.33-0.37,0.54
			c0,0.12,0.06,0.22,0.17,0.28c0.12,0.06,0.33,0.09,0.64,0.09h0.94c0.6,0,1.05,0.13,1.36,0.38s0.46,0.62,0.46,1.1
			c0,0.61-0.25,1.08-0.76,1.42s-1.23,0.5-2.19,0.5c-0.74,0-1.3-0.13-1.68-0.39c-0.39-0.26-0.58-0.63-0.58-1.11
			c0-0.33,0.1-0.61,0.32-0.84c0.21-0.23,0.5-0.38,0.88-0.47c-0.15-0.06-0.28-0.17-0.38-0.31c-0.1-0.15-0.15-0.3-0.15-0.46
			c0-0.2,0.06-0.37,0.17-0.51c0.11-0.14,0.28-0.28,0.51-0.42c-0.28-0.12-0.51-0.32-0.68-0.59c-0.17-0.27-0.26-0.59-0.26-0.95
			c0-0.59,0.18-1.04,0.55-1.36c0.37-0.32,0.9-0.48,1.58-0.48c0.15,0,0.31,0.01,0.48,0.03c0.17,0.02,0.29,0.04,0.38,0.07H123.83z
			 M119.58,23.28c0,0.25,0.11,0.44,0.33,0.57c0.22,0.13,0.54,0.2,0.94,0.2c0.62,0,1.09-0.09,1.4-0.27c0.31-0.18,0.46-0.42,0.46-0.71
			c0-0.23-0.08-0.4-0.25-0.5c-0.17-0.1-0.48-0.15-0.93-0.15h-0.87c-0.33,0-0.59,0.08-0.78,0.23
			C119.68,22.81,119.58,23.02,119.58,23.28z M120.08,18.79c0,0.34,0.09,0.6,0.26,0.78c0.17,0.18,0.42,0.27,0.75,0.27
			c0.66,0,1-0.35,1-1.06c0-0.35-0.08-0.62-0.25-0.81c-0.16-0.19-0.41-0.29-0.75-0.29c-0.33,0-0.58,0.09-0.75,0.28
			C120.16,18.16,120.08,18.43,120.08,18.79z"/>
		<path class="st3" d="M50.82,34.54c-0.84,0-1.5-0.25-1.97-0.73c-0.47-0.49-0.71-1.17-0.71-2.02c0-0.88,0.22-1.58,0.66-2.08
			c0.44-0.5,1.04-0.76,1.81-0.76c0.71,0,1.28,0.22,1.69,0.65c0.41,0.43,0.62,1.03,0.62,1.79V32h-3.6c0.02,0.52,0.16,0.93,0.42,1.21
			c0.27,0.28,0.64,0.42,1.13,0.42c0.32,0,0.62-0.03,0.89-0.09c0.27-0.06,0.57-0.16,0.89-0.3v0.93c-0.28,0.13-0.56,0.23-0.85,0.28
			C51.51,34.51,51.19,34.54,50.82,34.54z M50.61,29.82c-0.36,0-0.66,0.12-0.88,0.35c-0.22,0.23-0.35,0.57-0.39,1.01h2.45
			c-0.01-0.45-0.11-0.78-0.32-1.01S50.97,29.82,50.61,29.82z"/>
		<path class="st3" d="M55.45,34.44l-2.05-5.4h1.21l1.1,3.14c0.19,0.53,0.3,0.95,0.34,1.28h0.04c0.03-0.23,0.14-0.66,0.34-1.28
			l1.1-3.14h1.22l-2.06,5.4H55.45z"/>
		<path class="st3" d="M61.93,34.54c-0.84,0-1.5-0.25-1.97-0.73c-0.47-0.49-0.71-1.17-0.71-2.02c0-0.88,0.22-1.58,0.66-2.08
			c0.44-0.5,1.04-0.76,1.81-0.76c0.71,0,1.28,0.22,1.69,0.65c0.41,0.43,0.62,1.03,0.62,1.79V32h-3.6c0.02,0.52,0.16,0.93,0.42,1.21
			c0.27,0.28,0.64,0.42,1.13,0.42c0.32,0,0.62-0.03,0.89-0.09c0.27-0.06,0.57-0.16,0.89-0.3v0.93c-0.28,0.13-0.56,0.23-0.85,0.28
			C62.63,34.51,62.3,34.54,61.93,34.54z M61.72,29.82c-0.36,0-0.66,0.12-0.88,0.35c-0.22,0.23-0.35,0.57-0.39,1.01h2.45
			c-0.01-0.45-0.11-0.78-0.32-1.01S62.09,29.82,61.72,29.82z"/>
		<path class="st3" d="M70.08,34.44h-1.15v-3.32c0-0.42-0.08-0.73-0.25-0.93c-0.17-0.21-0.43-0.31-0.8-0.31
			c-0.49,0-0.84,0.14-1.06,0.43c-0.22,0.29-0.34,0.77-0.34,1.44v2.69h-1.15v-5.4h0.9l0.16,0.71h0.06c0.16-0.26,0.39-0.46,0.69-0.6
			c0.3-0.14,0.63-0.21,1-0.21c1.29,0,1.94,0.66,1.94,1.98V34.44z"/>
		<path class="st3" d="M73.69,33.61c0.28,0,0.56-0.04,0.84-0.13v0.86c-0.13,0.06-0.29,0.1-0.49,0.14c-0.2,0.04-0.41,0.06-0.62,0.06
			c-1.09,0-1.63-0.57-1.63-1.72v-2.91h-0.74v-0.51l0.79-0.42l0.39-1.14h0.71v1.2h1.54v0.87h-1.54v2.89c0,0.28,0.07,0.48,0.21,0.61
			C73.29,33.55,73.47,33.61,73.69,33.61z"/>
		<path class="st3" d="M79.24,32.91c0,0.53-0.19,0.93-0.58,1.21c-0.38,0.28-0.93,0.42-1.65,0.42c-0.72,0-1.3-0.11-1.73-0.33v-0.99
			c0.63,0.29,1.23,0.44,1.77,0.44c0.71,0,1.06-0.21,1.06-0.64c0-0.14-0.04-0.25-0.12-0.34c-0.08-0.09-0.21-0.19-0.39-0.28
			c-0.18-0.1-0.43-0.21-0.75-0.33c-0.62-0.24-1.04-0.48-1.26-0.72c-0.22-0.24-0.33-0.55-0.33-0.94c0-0.46,0.19-0.82,0.56-1.08
			c0.37-0.26,0.88-0.38,1.52-0.38c0.63,0,1.24,0.13,1.8,0.39l-0.37,0.86c-0.58-0.24-1.07-0.36-1.47-0.36
			c-0.61,0-0.91,0.17-0.91,0.52c0,0.17,0.08,0.31,0.24,0.43c0.16,0.12,0.5,0.28,1.03,0.48c0.45,0.17,0.77,0.33,0.97,0.47
			c0.2,0.14,0.35,0.31,0.45,0.5C79.19,32.42,79.24,32.65,79.24,32.91z"/>
	</g>
</g>
</svg>
