<?xml version="1.0" encoding="utf-8"?>
<!-- Generator: Adobe Illustrator 22.1.0, SVG Export Plug-In . SVG Version: 6.00 Build 0)  -->
<svg version="1.1" id="Layer_1" xmlns="http://www.w3.org/2000/svg" xmlns:xlink="http://www.w3.org/1999/xlink" x="0px" y="0px"
	 viewBox="0 0 185.6 369.49" style="enable-background:new 0 0 185.6 369.49;" xml:space="preserve">
<style type="text/css">
	.st0{fill:#F2F2F3;}
	.st1{fill:none;}
	.st2{fill:#3C459B;}
	.st3{fill:#FFFFFF;}
</style>
<g id="XMLID_18_">
	<path id="XMLID_32_" class="st0" d="M183.63,26.82C183.63,12.01,171.62,0,156.81,0H28.79C13.98,0,1.97,12.01,1.97,26.82v315.85
		c0,14.81,12.01,26.82,26.82,26.82h128.02c14.81,0,26.82-12.01,26.82-26.82V26.82z M179.51,342.41c0,12.68-10.28,22.96-22.96,22.96
		H28.53c-12.68,0-22.96-10.28-22.96-22.96V26.56C5.57,13.88,15.85,3.6,28.53,3.6h128.02c12.68,0,22.96,10.28,22.96,22.96V342.41z"/>
	<polyline id="XMLID_31_" class="st0" points="1.97,48.77 0,48.77 0,62.75 1.97,62.75 	"/>
	<polyline id="XMLID_30_" class="st0" points="183.63,127.06 185.6,127.06 185.6,84.04 183.63,84.04 	"/>
	<g id="XMLID_27_">
		<polyline id="XMLID_29_" class="st0" points="1.97,75.68 0,75.68 0,101.84 1.97,101.84 		"/>
		<polyline id="XMLID_28_" class="st0" points="1.97,109.26 0,109.26 0,135.42 1.97,135.42 		"/>
	</g>
	<path id="XMLID_26_" class="st1" d="M157.34,9.78h-14.68c-3.13,0-4.29,0.02-4.48,3.99c-0.2,4.12-3.03,6.37-6.86,7.57
		c-1.3,0.41-2.75,0.27-4.13,0.27h-2.8H62.28h-2.8c-1.38,0-2.83,0.23-4.13-0.17c-3.83-1.2-6.67-3.65-6.86-7.77
		c-0.19-3.97-1.35-3.89-4.48-3.89H29.2c-8.99,0-15.9,7.43-15.9,16.41v315.59c0,8.99,6.92,15.87,15.9,15.87h128.14
		c8.99,0,16.52-6.88,16.52-15.87V26.19C173.85,17.2,166.32,9.78,157.34,9.78z"/>
	<path id="XMLID_21_" class="st0" d="M179.51,26.56c0-12.68-10.28-22.96-22.96-22.96H28.53C15.85,3.6,5.57,13.88,5.57,26.56v315.85
		c0,12.68,10.28,22.96,22.96,22.96h128.02c12.68,0,22.96-10.28,22.96-22.96V26.56z M114.01,12.62c0,1.24-1.01,2.25-2.25,2.25
		s-2.25-1.01-2.25-2.25c0-1.24,1.01-2.25,2.25-2.25S114.01,11.38,114.01,12.62z M83.39,11.32h20.07c0.85,0,1.54,0.53,1.54,1.29
		c0,0.76-0.69,1.29-1.54,1.29H83.39c-0.85,0-1.54-0.53-1.54-1.29C81.85,11.85,82.54,11.32,83.39,11.32z M173.85,341.78
		c0,8.99-7.53,15.87-16.52,15.87H29.2c-8.99,0-15.9-6.88-15.9-15.87V26.19c0-8.99,6.92-16.41,15.9-16.41h14.81
		c3.13,0,4.29,0.02,4.48,3.99c0.2,4.12,3.03,6.37,6.86,7.57c1.3,0.41,2.75,0.27,4.13,0.27h2.8h62.12h2.8c1.38,0,2.83,0.23,4.13-0.17
		c3.83-1.2,6.67-3.65,6.86-7.77c0.19-3.97,1.35-3.89,4.48-3.89h14.68c8.99,0,16.52,7.43,16.52,16.41V341.78z"/>
	<circle id="XMLID_20_" class="st2" cx="111.76" cy="12.62" r="2.25"/>
	<path id="XMLID_19_" class="st2" d="M83.39,13.89h20.07c0.85,0,1.54-0.53,1.54-1.29c0-0.76-0.69-1.29-1.54-1.29H83.39
		c-0.85,0-1.54,0.53-1.54,1.29C81.85,13.37,82.54,13.89,83.39,13.89z"/>
</g>
<path id="XMLID_35_" class="st3" d="M173.85,341.78c0,8.99-7.53,15.87-16.52,15.87H29.2c-8.99,0-15.9-6.88-15.9-15.87V26.19
	c0-8.99,6.92-16.41,15.9-16.41h14.81c3.13,0,4.29,0.02,4.48,3.99c0.2,4.12,3.03,6.37,6.86,7.57c1.3,0.41,2.75,0.27,4.13,0.27h2.8
	h62.12h2.8c1.38,0,2.83,0.23,4.13-0.17c3.83-1.2,6.67-3.65,6.86-7.77c0.19-3.97,1.35-3.89,4.48-3.89h14.68
	c8.99,0,16.52,7.43,16.52,16.41V341.78z"/>
</svg>
