<?xml version="1.0" encoding="utf-8"?>
<!-- Generator: Adobe Illustrator 22.1.0, SVG Export Plug-In . SVG Version: 6.00 Build 0)  -->
<svg version="1.1" id="Layer_1" xmlns="http://www.w3.org/2000/svg" xmlns:xlink="http://www.w3.org/1999/xlink" x="0px" y="0px"
	 viewBox="0 0 120 120" style="enable-background:new 0 0 120 120;" xml:space="preserve">
<style type="text/css">
	.st0{fill:#3B439B;}
	.st1{fill:#FFFFFF;stroke:#6FC7B4;stroke-width:2;stroke-miterlimit:10;}
	.st2{fill:none;stroke:#6FC7B4;stroke-width:2;stroke-miterlimit:10;}
</style>
<path class="st0" d="M88.5,60.52c0,6.18-1.9,11.88-5.46,16.86s-8.31,8.31-14.01,10.21c-0.71,0.24-1.19,0-1.43-0.24
	s-0.48-0.71-0.48-1.19v-7.84c0-2.38-0.71-4.28-1.9-5.23c1.43-0.24,2.61-0.48,3.8-0.71c1.19-0.24,2.38-0.71,3.56-1.43
	c1.18-0.72,2.14-1.43,3.09-2.38s1.43-2.38,1.9-3.8c0.47-1.42,0.71-3.56,0.71-5.7c0-3.09-0.95-5.46-2.85-7.6
	c0.95-2.14,0.71-4.75-0.24-7.6c-0.71-0.24-1.66,0-3.09,0.48c-1.43,0.48-2.38,0.95-3.33,1.66l-1.66,0.71
	c-2.38-0.71-4.75-0.95-7.13-0.95s-4.75,0.24-7.13,0.95c-0.48-0.24-0.95-0.71-1.66-0.95c-0.71-0.48-1.66-0.95-3.09-1.43
	s-2.38-0.71-3.09-0.48c-1.19,2.85-1.19,5.23-0.24,7.6c-1.9,2.14-2.85,4.75-2.85,7.6c0,2.14,0.24,4.04,0.71,5.46
	c0.47,1.66,1.19,2.85,1.9,3.8c0.71,0.95,1.9,1.9,3.09,2.38s2.38,1.19,3.56,1.43c1.19,0.24,2.38,0.48,3.8,0.71
	c-0.95,0.95-1.66,2.14-1.9,3.8c-0.48,0.24-1.19,0.48-1.66,0.48c-0.48,0-1.19,0.24-2.14,0.24s-1.66-0.24-2.38-0.71
	c-0.71-0.47-1.43-1.19-2.14-2.38c-0.48-0.71-1.19-1.43-1.9-1.9c-0.71-0.47-1.43-0.48-1.9-0.71h-0.71c-0.48,0-0.95,0-1.19,0.24
	c-0.24,0.24-0.24,0.24-0.24,0.48s0.24,0.24,0.24,0.48c0,0.24,0.24,0.24,0.48,0.48l0.24,0.24c0.48,0.24,1.19,0.71,1.66,1.43
	c0.48,0.71,0.95,1.43,1.19,1.9l0.48,0.95c0.24,0.95,0.95,1.66,1.66,2.38c0.71,0.71,1.66,0.95,2.38,1.19
	c0.71,0.24,1.66,0.24,2.61,0.24c0.71,0,1.43,0,2.14-0.24l0.95-0.24c0,0.95,0,2.14,0,3.33s0,1.9,0,1.9c0,0.47-0.24,0.71-0.48,1.19
	c-0.24,0.48-0.71,0.48-1.43,0.24c-5.7-1.9-10.45-5.23-14.01-10.21c-3.56-4.98-5.46-10.93-5.46-17.1c0-5.23,1.19-9.98,3.8-14.25
	s5.94-7.84,10.45-10.45s9.03-3.8,14.25-3.8s9.98,1.19,14.25,3.8s7.84,5.94,10.45,10.45S88.5,55.29,88.5,60.52z"/>
<g>
	<circle class="st1" cx="88.96" cy="30" r="15"/>
	<line class="st2" x1="88.96" y1="20" x2="88.96" y2="40"/>
	<line class="st2" x1="78.96" y1="30" x2="98.96" y2="30"/>
</g>
</svg>
