<?xml version="1.0" encoding="utf-8"?>
<!-- Generator: Adobe Illustrator 22.1.0, SVG Export Plug-In . SVG Version: 6.00 Build 0)  -->
<svg version="1.1" id="Layer_1" xmlns="http://www.w3.org/2000/svg" xmlns:xlink="http://www.w3.org/1999/xlink" x="0px" y="0px"
	 viewBox="0 0 120 120" style="enable-background:new 0 0 120 120;" xml:space="preserve">
<style type="text/css">
	.st0{fill:#3B439B;}
	.st1{fill:#FFFFFF;stroke:#6FC7B4;stroke-width:2;stroke-miterlimit:10;}
	.st2{fill:none;stroke:#6FC7B4;stroke-width:2;stroke-miterlimit:10;}
</style>
<g>
	<path class="st0" d="M90.4,72.53l-8.29-3.02V39.57c0-1.44-1.17-2.61-2.61-2.61c-0.41,0-0.79,0.12-1.14,0.3v17.1H77.1V38.58
		c0,0.01-0.01,0.01-0.01,0.02v-3.14c0-1.44-1.16-2.61-2.6-2.61s-2.61,1.17-2.61,2.61v2.07c1.18,0.48,2.01,1.61,2.01,2.93v13.9h-1.26
		V40.51c0-1.13-0.92-2.05-2.05-2.05c-1.13,0-2.05,0.92-2.05,2.05v20.61h-1.5l0.01-6.59c0-1.33-1.08-2.4-2.41-2.41
		c-0.4,0.01-0.79,0.1-1.13,0.29c-0.37,0.2-0.67,0.48-0.9,0.82c-0.24,0.39-0.37,0.84-0.37,1.29l-0.04,11.92c0,0,0.11,2.07,0.33,2.97
		c0.71,3.76,3.84,5.32,3.84,5.32l24.07,11.64L90.4,72.53z"/>
	<path class="st0" d="M54.21,45.35l-6.97-11.61l1.77-1.06l6.97,11.61L54.21,45.35z"/>
	<path class="st0" d="M59.23,37.94h-2.06V24.86h2.06V37.94z"/>
	<path class="st0" d="M63.29,43.62l-1.94-0.71l5.16-14.19l1.94,0.71L63.29,43.62z"/>
	<path class="st0" d="M58.22,64.15c0-0.46-0.12-0.9-0.36-1.29c-0.23-0.33-0.53-0.61-0.9-0.81c-0.34-0.19-0.73-0.29-1.13-0.29
		c-1.33,0.01-2.41,1.09-2.41,2.41l0.01,6.59h-1.5V49.21c0-1.44-1.17-2.61-2.61-2.61c-0.41,0-0.79,0.12-1.14,0.3v17.06h-1.27V48.22
		c0,0.01-0.01,0.01-0.01,0.02V45.1c0-1.44-1.16-2.61-2.6-2.61s-2.61,1.17-2.61,2.61v2.07c1.18,0.47,2.01,1.61,2.01,2.93v13.86h-1.26
		V50.14c0-1.13-0.92-2.05-2.05-2.05s-2.05,0.92-2.05,2.05v25.15c0.08,1.62,0.28,3.69,1.3,4.94c1.5,1.82,3.71,2.21,3.73,2.21
		c0.49,0.09,0.82,0.55,0.74,1.05c-0.08,0.44-0.46,0.75-0.89,0.75c-0.05,0-0.1,0-0.15-0.01c-0.12-0.02-2.88-0.52-4.81-2.84
		c-0.45-0.55-0.79-1.23-1.04-1.97l-7.63,1.88l-0.04,13.83l24.54-10.78c0,0,3.14-1.56,3.84-5.32c0.22-0.9,0.34-2.96,0.34-2.96
		L58.22,64.15z"/>
</g>
<g>
	<circle class="st1" cx="88.96" cy="30" r="15"/>
	<line class="st2" x1="88.96" y1="20" x2="88.96" y2="40"/>
	<line class="st2" x1="78.96" y1="30" x2="98.96" y2="30"/>
</g>
</svg>
