<?xml version="1.0" standalone="no"?>
<!DOCTYPE svg PUBLIC "-//W3C//DTD SVG 20010904//EN"
 "http://www.w3.org/TR/2001/REC-SVG-20010904/DTD/svg10.dtd">
<svg version="1.0" xmlns="http://www.w3.org/2000/svg"
 width="255.000000pt" height="255.000000pt" viewBox="0 0 255.000000 255.000000"
 preserveAspectRatio="xMidYMid meet">
<metadata>
Created by potrace 1.11, written by Peter Selinger 2001-2013
</metadata>
<g transform="translate(0.000000,255.000000) scale(0.100000,-0.100000)"
fill="#000000" stroke="none">
<path d="M1139 2546 c-2 -2 -22 -6 -44 -9 -229 -33 -448 -129 -625 -276 -247
-204 -415 -502 -457 -811 -9 -70 -10 -258 0 -330 14 -114 20 -138 57 -250 120
-360 387 -642 735 -778 167 -65 297 -90 477 -89 339 0 648 127 883 362 129
129 182 200 252 340 35 68 89 212 97 256 1 8 9 41 16 74 16 66 20 355 7 440
-67 444 -392 841 -819 996 -141 52 -246 71 -419 74 -86 2 -158 2 -160 1z m321
-111 c10 -3 29 -8 42 -10 300 -56 585 -247 753 -505 135 -207 196 -421 190
-670 -3 -142 -4 -149 -36 -274 -132 -520 -619 -885 -1159 -871 -63 2 -124 5
-135 8 -11 3 -40 8 -65 12 -129 21 -325 105 -450 193 -89 62 -236 212 -292
297 -243 370 -269 811 -71 1200 97 190 272 372 463 480 124 70 302 130 425
142 33 3 62 7 64 9 6 5 251 -5 271 -11z"/>
<path d="M695 1580 c-109 -24 -192 -113 -212 -227 -8 -49 -8 -157 0 -206 16
-86 71 -161 146 -196 48 -22 69 -26 151 -25 66 0 106 5 133 16 37 17 37 17 37
79 0 54 -2 60 -17 54 -91 -38 -182 -46 -233 -20 -55 28 -84 102 -82 208 2 135
56 205 159 208 33 1 95 -11 137 -27 9 -4 19 11 30 42 9 26 16 53 16 59 0 28
-185 53 -265 35z"/>
<path d="M1354 1581 c-33 -8 -82 -39 -104 -66 -13 -15 -32 -21 -28 -7 1 4 -3
21 -9 37 -10 29 -14 31 -59 30 l-49 0 -3 -322 -2 -322 69 1 69 1 0 190 c1 198
10 266 42 305 36 43 119 59 169 33 47 -26 54 -59 55 -301 l1 -225 68 -3 c37
-1 67 1 68 5 0 5 1 103 2 218 3 221 8 246 53 286 60 53 166 40 196 -24 13 -26
16 -74 16 -237 1 -113 1 -215 1 -227 1 -21 5 -22 69 -20 l67 2 1 238 c1 202
-2 246 -17 290 -30 90 -100 129 -219 122 -68 -4 -119 -26 -158 -66 l-27 -29
-25 28 c-14 16 -39 36 -57 46 -37 19 -143 28 -189 17z"/>
</g>
</svg>
